%TF.GenerationSoftware,KiCad,Pcbnew,9.0.5*%
%TF.CreationDate,2026-04-29T00:30:59-05:00*%
%TF.ProjectId,baloon,62616c6f-6f6e-42e6-9b69-6361645f7063,rev?*%
%TF.SameCoordinates,Original*%
%TF.FileFunction,Other,User*%
%FSLAX46Y46*%
G04 Gerber Fmt 4.6, Leading zero omitted, Abs format (unit mm)*
G04 Created by KiCad (PCBNEW 9.0.5) date 2026-04-29 00:30:59*
%MOMM*%
%LPD*%
G01*
G04 APERTURE LIST*
%ADD10C,0.050000*%
G04 APERTURE END LIST*
D10*
%TO.C,U3*%
X139305322Y-62450000D02*
X139305322Y-45950000D01*
X157805322Y-45950000D02*
X139305322Y-45950000D01*
X157805322Y-45950000D02*
X157805322Y-62450000D01*
X157805322Y-62450000D02*
X139305322Y-62450000D01*
%TO.C,Y1*%
X180930322Y-50450000D02*
X177430322Y-50450000D01*
X177430322Y-54650000D01*
X180930322Y-54650000D01*
X180930322Y-50450000D01*
%TO.C,U4*%
X141842822Y-69050000D02*
X142842822Y-69050000D01*
X141842822Y-72050000D02*
X141842822Y-69050000D01*
X142842822Y-68850000D02*
X144942822Y-68850000D01*
X142842822Y-69050000D02*
X142842822Y-68850000D01*
X142842822Y-72050000D02*
X141842822Y-72050000D01*
X142842822Y-72250000D02*
X142842822Y-72050000D01*
X144942822Y-68850000D02*
X144942822Y-70000000D01*
X144942822Y-70000000D02*
X145942822Y-70000000D01*
X144942822Y-71100000D02*
X144942822Y-72250000D01*
X144942822Y-72250000D02*
X142842822Y-72250000D01*
X145942822Y-70000000D02*
X145942822Y-71100000D01*
X145942822Y-71100000D02*
X144942822Y-71100000D01*
%TO.C,U2*%
X162655322Y-48850000D02*
X164105322Y-48850000D01*
X162655322Y-57150000D02*
X162655322Y-48850000D01*
X164105322Y-47750000D02*
X165205322Y-47750000D01*
X164105322Y-48850000D02*
X164105322Y-47750000D01*
X164105322Y-57150000D02*
X162655322Y-57150000D01*
X164105322Y-58250000D02*
X164105322Y-57150000D01*
X165205322Y-46300000D02*
X173505322Y-46300000D01*
X165205322Y-47750000D02*
X165205322Y-46300000D01*
X165205322Y-58250000D02*
X164105322Y-58250000D01*
X165205322Y-59700000D02*
X165205322Y-58250000D01*
X173505322Y-46300000D02*
X173505322Y-47750000D01*
X173505322Y-47750000D02*
X174605322Y-47750000D01*
X173505322Y-58250000D02*
X173505322Y-59700000D01*
X173505322Y-59700000D02*
X165205322Y-59700000D01*
X174605322Y-47750000D02*
X174605322Y-48850000D01*
X174605322Y-48850000D02*
X176055322Y-48850000D01*
X174605322Y-57150000D02*
X174605322Y-58250000D01*
X174605322Y-58250000D02*
X173505322Y-58250000D01*
X176055322Y-48850000D02*
X176055322Y-57150000D01*
X176055322Y-57150000D02*
X174605322Y-57150000D01*
%TO.C,U1*%
X194605322Y-57450000D02*
X198105322Y-57450000D01*
X198105322Y-60950000D01*
X194605322Y-60950000D01*
X194605322Y-57450000D01*
%TO.C,TP1*%
X138455322Y-47200000D02*
G75*
G02*
X135455322Y-47200000I-1500000J0D01*
G01*
X135455322Y-47200000D02*
G75*
G02*
X138455322Y-47200000I1500000J0D01*
G01*
%TO.C,SW1*%
X194105322Y-75000000D02*
X202605322Y-75000000D01*
X194105322Y-81000000D02*
X194105322Y-75000000D01*
X202605322Y-75000000D02*
X202605322Y-81000000D01*
X202605322Y-81000000D02*
X194105322Y-81000000D01*
%TO.C,R9*%
X187865322Y-42180000D02*
X192765322Y-42180000D01*
X187865322Y-44440000D02*
X187865322Y-42180000D01*
X192765322Y-42180000D02*
X192765322Y-44440000D01*
X192765322Y-44440000D02*
X187865322Y-44440000D01*
%TO.C,R6*%
X187915322Y-39580000D02*
X192815322Y-39580000D01*
X187915322Y-41840000D02*
X187915322Y-39580000D01*
X192815322Y-39580000D02*
X192815322Y-41840000D01*
X192815322Y-41840000D02*
X187915322Y-41840000D01*
%TO.C,R4*%
X176580322Y-47320000D02*
X181480322Y-47320000D01*
X176580322Y-49580000D02*
X176580322Y-47320000D01*
X181480322Y-47320000D02*
X181480322Y-49580000D01*
X181480322Y-49580000D02*
X176580322Y-49580000D01*
%TO.C,R3*%
X176705322Y-61270000D02*
X181605322Y-61270000D01*
X176705322Y-63530000D02*
X176705322Y-61270000D01*
X181605322Y-61270000D02*
X181605322Y-63530000D01*
X181605322Y-63530000D02*
X176705322Y-63530000D01*
%TO.C,R2*%
X192885322Y-56562500D02*
X192885322Y-61462500D01*
X190625322Y-56562500D02*
X192885322Y-56562500D01*
X192885322Y-61462500D02*
X190625322Y-61462500D01*
X190625322Y-61462500D02*
X190625322Y-56562500D01*
%TO.C,R1*%
X202885322Y-56362500D02*
X202885322Y-61262500D01*
X200625322Y-56362500D02*
X202885322Y-56362500D01*
X202885322Y-61262500D02*
X200625322Y-61262500D01*
X200625322Y-61262500D02*
X200625322Y-56362500D01*
%TO.C,J5*%
X148125322Y-77230000D02*
X142035322Y-77230000D01*
X142035322Y-77230000D02*
X142035322Y-80770000D01*
X148125322Y-80770000D02*
X148125322Y-77230000D01*
X142035322Y-80770000D02*
X148125322Y-80770000D01*
%TO.C,J4*%
X194885322Y-48830000D02*
X204305322Y-48830000D01*
X194885322Y-48830000D02*
X194885322Y-38190000D01*
X204305322Y-48830000D02*
X204305322Y-38190000D01*
X194885322Y-38190000D02*
X204305322Y-38190000D01*
%TO.C,J2*%
X155105322Y-80970000D02*
X166265322Y-80970000D01*
X166265322Y-80970000D02*
X166265322Y-77430000D01*
X155105322Y-77430000D02*
X155105322Y-80970000D01*
X166265322Y-77430000D02*
X155105322Y-77430000D01*
%TO.C,J1*%
X187665322Y-77630000D02*
X173965322Y-77630000D01*
X173965322Y-77630000D02*
X173965322Y-81170000D01*
X187665322Y-81170000D02*
X187665322Y-77630000D01*
X173965322Y-81170000D02*
X187665322Y-81170000D01*
%TO.C,C12*%
X182605322Y-63280000D02*
X182605322Y-58320000D01*
X184905322Y-63280000D02*
X182605322Y-63280000D01*
X182605322Y-58320000D02*
X184905322Y-58320000D01*
X184905322Y-58320000D02*
X184905322Y-63280000D01*
%TO.C,C11*%
X164550322Y-61100000D02*
X169510322Y-61100000D01*
X164550322Y-63400000D02*
X164550322Y-61100000D01*
X169510322Y-61100000D02*
X169510322Y-63400000D01*
X169510322Y-63400000D02*
X164550322Y-63400000D01*
%TO.C,C10*%
X169950322Y-61100000D02*
X174910322Y-61100000D01*
X169950322Y-63400000D02*
X169950322Y-61100000D01*
X174910322Y-61100000D02*
X174910322Y-63400000D01*
X174910322Y-63400000D02*
X169950322Y-63400000D01*
%TO.C,C8*%
X181510322Y-59000000D02*
X176550322Y-59000000D01*
X181510322Y-56700000D02*
X181510322Y-59000000D01*
X176550322Y-59000000D02*
X176550322Y-56700000D01*
X176550322Y-56700000D02*
X181510322Y-56700000D01*
%TO.C,C7*%
X182480322Y-55530000D02*
X182480322Y-50570000D01*
X184780322Y-55530000D02*
X182480322Y-55530000D01*
X182480322Y-50570000D02*
X184780322Y-50570000D01*
X184780322Y-50570000D02*
X184780322Y-55530000D01*
%TO.C,C5*%
X137605322Y-72480000D02*
X137605322Y-67520000D01*
X139905322Y-72480000D02*
X137605322Y-72480000D01*
X137605322Y-67520000D02*
X139905322Y-67520000D01*
X139905322Y-67520000D02*
X139905322Y-72480000D01*
%TO.C,C4*%
X147605322Y-72480000D02*
X147605322Y-67520000D01*
X149905322Y-72480000D02*
X147605322Y-72480000D01*
X147605322Y-67520000D02*
X149905322Y-67520000D01*
X149905322Y-67520000D02*
X149905322Y-72480000D01*
%TO.C,C3*%
X198872822Y-54762500D02*
X193912822Y-54762500D01*
X198872822Y-52462500D02*
X198872822Y-54762500D01*
X193912822Y-54762500D02*
X193912822Y-52462500D01*
X193912822Y-52462500D02*
X198872822Y-52462500D01*
%TO.C,C2*%
X194075322Y-62262500D02*
X199035322Y-62262500D01*
X194075322Y-64562500D02*
X194075322Y-62262500D01*
X199035322Y-62262500D02*
X199035322Y-64562500D01*
X199035322Y-64562500D02*
X194075322Y-64562500D01*
%TO.C,C1*%
X135730322Y-54880000D02*
X135730322Y-49920000D01*
X138030322Y-54880000D02*
X135730322Y-54880000D01*
X135730322Y-49920000D02*
X138030322Y-49920000D01*
X138030322Y-49920000D02*
X138030322Y-54880000D01*
%TD*%
M02*
