%TF.GenerationSoftware,KiCad,Pcbnew,9.0.5*%
%TF.CreationDate,2026-04-29T00:30:59-05:00*%
%TF.ProjectId,baloon,62616c6f-6f6e-42e6-9b69-6361645f7063,rev?*%
%TF.SameCoordinates,Original*%
%TF.FileFunction,Copper,L2,Bot*%
%TF.FilePolarity,Positive*%
%FSLAX46Y46*%
G04 Gerber Fmt 4.6, Leading zero omitted, Abs format (unit mm)*
G04 Created by KiCad (PCBNEW 9.0.5) date 2026-04-29 00:30:59*
%MOMM*%
%LPD*%
G01*
G04 APERTURE LIST*
%TA.AperFunction,ComponentPad*%
%ADD10R,1.700000X1.700000*%
%TD*%
%TA.AperFunction,ComponentPad*%
%ADD11C,1.700000*%
%TD*%
%TA.AperFunction,HeatsinkPad*%
%ADD12O,2.100000X1.000000*%
%TD*%
%TA.AperFunction,HeatsinkPad*%
%ADD13O,1.600000X1.000000*%
%TD*%
%TA.AperFunction,ViaPad*%
%ADD14C,0.600000*%
%TD*%
%TA.AperFunction,Conductor*%
%ADD15C,0.200000*%
%TD*%
G04 APERTURE END LIST*
D10*
%TO.P,J5,1,Pin_1*%
%TO.N,VBUS*%
X146355322Y-79000000D03*
D11*
%TO.P,J5,2,Pin_2*%
%TO.N,GND*%
X143815322Y-79000000D03*
%TD*%
D12*
%TO.P,J4,S1,SHIELD*%
%TO.N,GND*%
X197025322Y-47830000D03*
D13*
X201205322Y-47830000D03*
D12*
X197025322Y-39190000D03*
D13*
X201205322Y-39190000D03*
%TD*%
D10*
%TO.P,J2,1,Pin_1*%
%TO.N,+3.3V*%
X156875322Y-79200000D03*
D11*
%TO.P,J2,2,Pin_2*%
%TO.N,/UART0_RX*%
X159415322Y-79200000D03*
%TO.P,J2,3,Pin_3*%
%TO.N,/UART0_TX*%
X161955322Y-79200000D03*
%TO.P,J2,4,Pin_4*%
%TO.N,GND*%
X164495322Y-79200000D03*
%TD*%
D10*
%TO.P,J1,1,Pin_1*%
%TO.N,+3.3V*%
X185895322Y-79400000D03*
D11*
%TO.P,J1,2,Pin_2*%
%TO.N,/SWDIO*%
X183355322Y-79400000D03*
%TO.P,J1,3,Pin_3*%
%TO.N,/SWCLK*%
X180815322Y-79400000D03*
%TO.P,J1,4,Pin_4*%
%TO.N,/RST*%
X178275322Y-79400000D03*
%TO.P,J1,5,Pin_5*%
%TO.N,GND*%
X175735322Y-79400000D03*
%TD*%
D14*
%TO.N,/MOSI*%
X160959722Y-57054000D03*
X161949022Y-52143700D03*
%TO.N,/MISO*%
X165305522Y-52549400D03*
X162468872Y-58113550D03*
%TO.N,/UART0_RX*%
X161746922Y-59427400D03*
%TO.N,/UART0_TX*%
X164897422Y-57850600D03*
%TO.N,/SWCLK*%
X179478522Y-61784700D03*
%TO.N,/SWDIO*%
X172867322Y-53909100D03*
%TO.N,/RST*%
X178905822Y-62560100D03*
X177998622Y-59344000D03*
%TO.N,VBUS*%
X146355322Y-71021600D03*
X193705322Y-45788400D03*
X193554622Y-41999700D03*
X190805322Y-71020000D03*
%TO.N,GND*%
X146854822Y-68437500D03*
X193211122Y-53740000D03*
X193025722Y-62759500D03*
%TO.N,+3.3V*%
X185005322Y-75670000D03*
X182213522Y-62001900D03*
%TD*%
D15*
%TO.N,/MISO*%
X165305522Y-53224800D02*
X165305522Y-52549400D01*
X163102322Y-55428000D02*
X165305522Y-53224800D01*
X163102322Y-57480100D02*
X163102322Y-55428000D01*
X162468872Y-58113550D02*
X163102322Y-57480100D01*
X162468872Y-58113550D02*
X162444522Y-58137900D01*
X162444522Y-58137900D02*
X163102322Y-57480100D01*
%TO.N,/MOSI*%
X160959722Y-53133000D02*
X161949022Y-52143700D01*
X160959722Y-57054000D02*
X160959722Y-53133000D01*
X160959722Y-57054000D02*
X160813722Y-57200000D01*
X160813722Y-57200000D02*
X160959722Y-57054000D01*
%TO.N,/UART0_RX*%
X159415322Y-61759000D02*
X159415322Y-79200000D01*
X161746922Y-59427400D02*
X159415322Y-61759000D01*
%TO.N,/UART0_TX*%
X161955322Y-60792700D02*
X164897422Y-57850600D01*
X161955322Y-79200000D02*
X161955322Y-60792700D01*
%TO.N,/SWCLK*%
X180815322Y-63121500D02*
X180815322Y-79400000D01*
X179478522Y-61784700D02*
X180815322Y-63121500D01*
%TO.N,/SWDIO*%
X173414622Y-53909100D02*
X172867322Y-53909100D01*
X178600322Y-59094800D02*
X173414622Y-53909100D01*
X178600322Y-59642100D02*
X178600322Y-59094800D01*
X183355322Y-64397100D02*
X178600322Y-59642100D01*
X183355322Y-79400000D02*
X183355322Y-64397100D01*
%TO.N,/RST*%
X178275322Y-63190600D02*
X178905822Y-62560100D01*
X178275322Y-79400000D02*
X178275322Y-63190600D01*
X177998622Y-61652900D02*
X178905822Y-62560100D01*
X177998622Y-59344000D02*
X177998622Y-61652900D01*
%TO.N,VBUS*%
X146355322Y-79000000D02*
X146355322Y-71021600D01*
X193705322Y-42150400D02*
X193554622Y-41999700D01*
X193705322Y-45788400D02*
X193705322Y-42150400D01*
X190805322Y-48688400D02*
X193705322Y-45788400D01*
X190805322Y-71020000D02*
X190805322Y-48688400D01*
%TO.N,GND*%
X200103622Y-39190000D02*
X200103622Y-47830000D01*
X201205322Y-39190000D02*
X200103622Y-39190000D01*
X201205322Y-47830000D02*
X200103622Y-47830000D01*
X143815322Y-71477000D02*
X146854822Y-68437500D01*
X143815322Y-79000000D02*
X143815322Y-71477000D01*
X195673622Y-51277500D02*
X193211122Y-53740000D01*
X195673622Y-47830000D02*
X195673622Y-51277500D01*
X197025322Y-47830000D02*
X195673622Y-47830000D01*
X193025722Y-53925400D02*
X193025722Y-62759500D01*
X193211122Y-53740000D02*
X193025722Y-53925400D01*
%TO.N,+3.3V*%
X185895322Y-76560000D02*
X185895322Y-79400000D01*
X185005322Y-75670000D02*
X185895322Y-76560000D01*
X185005322Y-64793700D02*
X182213522Y-62001900D01*
X185005322Y-75670000D02*
X185005322Y-64793700D01*
%TD*%
M02*
