%TF.GenerationSoftware,KiCad,Pcbnew,9.0.5*%
%TF.CreationDate,2026-04-29T00:30:59-05:00*%
%TF.ProjectId,baloon,62616c6f-6f6e-42e6-9b69-6361645f7063,rev?*%
%TF.SameCoordinates,Original*%
%TF.FileFunction,AssemblyDrawing,Top*%
%FSLAX46Y46*%
G04 Gerber Fmt 4.6, Leading zero omitted, Abs format (unit mm)*
G04 Created by KiCad (PCBNEW 9.0.5) date 2026-04-29 00:30:59*
%MOMM*%
%LPD*%
G01*
G04 APERTURE LIST*
%ADD10C,0.150000*%
%ADD11C,0.120000*%
%ADD12C,0.110000*%
%ADD13C,0.100000*%
G04 APERTURE END LIST*
D10*
X143341036Y-45154819D02*
X143007703Y-44678628D01*
X142769608Y-45154819D02*
X142769608Y-44154819D01*
X142769608Y-44154819D02*
X143150560Y-44154819D01*
X143150560Y-44154819D02*
X143245798Y-44202438D01*
X143245798Y-44202438D02*
X143293417Y-44250057D01*
X143293417Y-44250057D02*
X143341036Y-44345295D01*
X143341036Y-44345295D02*
X143341036Y-44488152D01*
X143341036Y-44488152D02*
X143293417Y-44583390D01*
X143293417Y-44583390D02*
X143245798Y-44631009D01*
X143245798Y-44631009D02*
X143150560Y-44678628D01*
X143150560Y-44678628D02*
X142769608Y-44678628D01*
X144102941Y-44631009D02*
X143769608Y-44631009D01*
X143769608Y-45154819D02*
X143769608Y-44154819D01*
X143769608Y-44154819D02*
X144245798Y-44154819D01*
X144626751Y-45154819D02*
X144626751Y-44154819D01*
X144626751Y-44154819D02*
X144960084Y-44869104D01*
X144960084Y-44869104D02*
X145293417Y-44154819D01*
X145293417Y-44154819D02*
X145293417Y-45154819D01*
X145817227Y-45154819D02*
X146007703Y-45154819D01*
X146007703Y-45154819D02*
X146102941Y-45107200D01*
X146102941Y-45107200D02*
X146150560Y-45059580D01*
X146150560Y-45059580D02*
X146245798Y-44916723D01*
X146245798Y-44916723D02*
X146293417Y-44726247D01*
X146293417Y-44726247D02*
X146293417Y-44345295D01*
X146293417Y-44345295D02*
X146245798Y-44250057D01*
X146245798Y-44250057D02*
X146198179Y-44202438D01*
X146198179Y-44202438D02*
X146102941Y-44154819D01*
X146102941Y-44154819D02*
X145912465Y-44154819D01*
X145912465Y-44154819D02*
X145817227Y-44202438D01*
X145817227Y-44202438D02*
X145769608Y-44250057D01*
X145769608Y-44250057D02*
X145721989Y-44345295D01*
X145721989Y-44345295D02*
X145721989Y-44583390D01*
X145721989Y-44583390D02*
X145769608Y-44678628D01*
X145769608Y-44678628D02*
X145817227Y-44726247D01*
X145817227Y-44726247D02*
X145912465Y-44773866D01*
X145912465Y-44773866D02*
X146102941Y-44773866D01*
X146102941Y-44773866D02*
X146198179Y-44726247D01*
X146198179Y-44726247D02*
X146245798Y-44678628D01*
X146245798Y-44678628D02*
X146293417Y-44583390D01*
X147198179Y-44154819D02*
X146721989Y-44154819D01*
X146721989Y-44154819D02*
X146674370Y-44631009D01*
X146674370Y-44631009D02*
X146721989Y-44583390D01*
X146721989Y-44583390D02*
X146817227Y-44535771D01*
X146817227Y-44535771D02*
X147055322Y-44535771D01*
X147055322Y-44535771D02*
X147150560Y-44583390D01*
X147150560Y-44583390D02*
X147198179Y-44631009D01*
X147198179Y-44631009D02*
X147245798Y-44726247D01*
X147245798Y-44726247D02*
X147245798Y-44964342D01*
X147245798Y-44964342D02*
X147198179Y-45059580D01*
X147198179Y-45059580D02*
X147150560Y-45107200D01*
X147150560Y-45107200D02*
X147055322Y-45154819D01*
X147055322Y-45154819D02*
X146817227Y-45154819D01*
X146817227Y-45154819D02*
X146721989Y-45107200D01*
X146721989Y-45107200D02*
X146674370Y-45059580D01*
X147579132Y-44154819D02*
X147817227Y-45154819D01*
X147817227Y-45154819D02*
X148007703Y-44440533D01*
X148007703Y-44440533D02*
X148198179Y-45154819D01*
X148198179Y-45154819D02*
X148436275Y-44154819D01*
X148817227Y-44773866D02*
X149579132Y-44773866D01*
X150102941Y-45154819D02*
X150293417Y-45154819D01*
X150293417Y-45154819D02*
X150388655Y-45107200D01*
X150388655Y-45107200D02*
X150436274Y-45059580D01*
X150436274Y-45059580D02*
X150531512Y-44916723D01*
X150531512Y-44916723D02*
X150579131Y-44726247D01*
X150579131Y-44726247D02*
X150579131Y-44345295D01*
X150579131Y-44345295D02*
X150531512Y-44250057D01*
X150531512Y-44250057D02*
X150483893Y-44202438D01*
X150483893Y-44202438D02*
X150388655Y-44154819D01*
X150388655Y-44154819D02*
X150198179Y-44154819D01*
X150198179Y-44154819D02*
X150102941Y-44202438D01*
X150102941Y-44202438D02*
X150055322Y-44250057D01*
X150055322Y-44250057D02*
X150007703Y-44345295D01*
X150007703Y-44345295D02*
X150007703Y-44583390D01*
X150007703Y-44583390D02*
X150055322Y-44678628D01*
X150055322Y-44678628D02*
X150102941Y-44726247D01*
X150102941Y-44726247D02*
X150198179Y-44773866D01*
X150198179Y-44773866D02*
X150388655Y-44773866D01*
X150388655Y-44773866D02*
X150483893Y-44726247D01*
X150483893Y-44726247D02*
X150531512Y-44678628D01*
X150531512Y-44678628D02*
X150579131Y-44583390D01*
X151531512Y-45154819D02*
X150960084Y-45154819D01*
X151245798Y-45154819D02*
X151245798Y-44154819D01*
X151245798Y-44154819D02*
X151150560Y-44297676D01*
X151150560Y-44297676D02*
X151055322Y-44392914D01*
X151055322Y-44392914D02*
X150960084Y-44440533D01*
X152436274Y-44154819D02*
X151960084Y-44154819D01*
X151960084Y-44154819D02*
X151912465Y-44631009D01*
X151912465Y-44631009D02*
X151960084Y-44583390D01*
X151960084Y-44583390D02*
X152055322Y-44535771D01*
X152055322Y-44535771D02*
X152293417Y-44535771D01*
X152293417Y-44535771D02*
X152388655Y-44583390D01*
X152388655Y-44583390D02*
X152436274Y-44631009D01*
X152436274Y-44631009D02*
X152483893Y-44726247D01*
X152483893Y-44726247D02*
X152483893Y-44964342D01*
X152483893Y-44964342D02*
X152436274Y-45059580D01*
X152436274Y-45059580D02*
X152388655Y-45107200D01*
X152388655Y-45107200D02*
X152293417Y-45154819D01*
X152293417Y-45154819D02*
X152055322Y-45154819D01*
X152055322Y-45154819D02*
X151960084Y-45107200D01*
X151960084Y-45107200D02*
X151912465Y-45059580D01*
X152864846Y-45107200D02*
X153007703Y-45154819D01*
X153007703Y-45154819D02*
X153245798Y-45154819D01*
X153245798Y-45154819D02*
X153341036Y-45107200D01*
X153341036Y-45107200D02*
X153388655Y-45059580D01*
X153388655Y-45059580D02*
X153436274Y-44964342D01*
X153436274Y-44964342D02*
X153436274Y-44869104D01*
X153436274Y-44869104D02*
X153388655Y-44773866D01*
X153388655Y-44773866D02*
X153341036Y-44726247D01*
X153341036Y-44726247D02*
X153245798Y-44678628D01*
X153245798Y-44678628D02*
X153055322Y-44631009D01*
X153055322Y-44631009D02*
X152960084Y-44583390D01*
X152960084Y-44583390D02*
X152912465Y-44535771D01*
X152912465Y-44535771D02*
X152864846Y-44440533D01*
X152864846Y-44440533D02*
X152864846Y-44345295D01*
X152864846Y-44345295D02*
X152912465Y-44250057D01*
X152912465Y-44250057D02*
X152960084Y-44202438D01*
X152960084Y-44202438D02*
X153055322Y-44154819D01*
X153055322Y-44154819D02*
X153293417Y-44154819D01*
X153293417Y-44154819D02*
X153436274Y-44202438D01*
X153817227Y-44250057D02*
X153864846Y-44202438D01*
X153864846Y-44202438D02*
X153960084Y-44154819D01*
X153960084Y-44154819D02*
X154198179Y-44154819D01*
X154198179Y-44154819D02*
X154293417Y-44202438D01*
X154293417Y-44202438D02*
X154341036Y-44250057D01*
X154341036Y-44250057D02*
X154388655Y-44345295D01*
X154388655Y-44345295D02*
X154388655Y-44440533D01*
X154388655Y-44440533D02*
X154341036Y-44583390D01*
X154341036Y-44583390D02*
X153769608Y-45154819D01*
X153769608Y-45154819D02*
X154388655Y-45154819D01*
X147793417Y-53654819D02*
X147793417Y-54464342D01*
X147793417Y-54464342D02*
X147841036Y-54559580D01*
X147841036Y-54559580D02*
X147888655Y-54607200D01*
X147888655Y-54607200D02*
X147983893Y-54654819D01*
X147983893Y-54654819D02*
X148174369Y-54654819D01*
X148174369Y-54654819D02*
X148269607Y-54607200D01*
X148269607Y-54607200D02*
X148317226Y-54559580D01*
X148317226Y-54559580D02*
X148364845Y-54464342D01*
X148364845Y-54464342D02*
X148364845Y-53654819D01*
X148745798Y-53654819D02*
X149364845Y-53654819D01*
X149364845Y-53654819D02*
X149031512Y-54035771D01*
X149031512Y-54035771D02*
X149174369Y-54035771D01*
X149174369Y-54035771D02*
X149269607Y-54083390D01*
X149269607Y-54083390D02*
X149317226Y-54131009D01*
X149317226Y-54131009D02*
X149364845Y-54226247D01*
X149364845Y-54226247D02*
X149364845Y-54464342D01*
X149364845Y-54464342D02*
X149317226Y-54559580D01*
X149317226Y-54559580D02*
X149269607Y-54607200D01*
X149269607Y-54607200D02*
X149174369Y-54654819D01*
X149174369Y-54654819D02*
X148888655Y-54654819D01*
X148888655Y-54654819D02*
X148793417Y-54607200D01*
X148793417Y-54607200D02*
X148745798Y-54559580D01*
X187389902Y-54835715D02*
X187437522Y-54883334D01*
X187437522Y-54883334D02*
X187485141Y-55026191D01*
X187485141Y-55026191D02*
X187485141Y-55121429D01*
X187485141Y-55121429D02*
X187437522Y-55264286D01*
X187437522Y-55264286D02*
X187342283Y-55359524D01*
X187342283Y-55359524D02*
X187247045Y-55407143D01*
X187247045Y-55407143D02*
X187056569Y-55454762D01*
X187056569Y-55454762D02*
X186913712Y-55454762D01*
X186913712Y-55454762D02*
X186723236Y-55407143D01*
X186723236Y-55407143D02*
X186627998Y-55359524D01*
X186627998Y-55359524D02*
X186532760Y-55264286D01*
X186532760Y-55264286D02*
X186485141Y-55121429D01*
X186485141Y-55121429D02*
X186485141Y-55026191D01*
X186485141Y-55026191D02*
X186532760Y-54883334D01*
X186532760Y-54883334D02*
X186580379Y-54835715D01*
X187485141Y-54407143D02*
X186818474Y-54407143D01*
X187008950Y-54407143D02*
X186913712Y-54359524D01*
X186913712Y-54359524D02*
X186866093Y-54311905D01*
X186866093Y-54311905D02*
X186818474Y-54216667D01*
X186818474Y-54216667D02*
X186818474Y-54121429D01*
X186818474Y-53883333D02*
X187485141Y-53645238D01*
X186818474Y-53407143D02*
X187485141Y-53645238D01*
X187485141Y-53645238D02*
X187723236Y-53740476D01*
X187723236Y-53740476D02*
X187770855Y-53788095D01*
X187770855Y-53788095D02*
X187818474Y-53883333D01*
X187437522Y-53073809D02*
X187485141Y-52978571D01*
X187485141Y-52978571D02*
X187485141Y-52788095D01*
X187485141Y-52788095D02*
X187437522Y-52692857D01*
X187437522Y-52692857D02*
X187342283Y-52645238D01*
X187342283Y-52645238D02*
X187294664Y-52645238D01*
X187294664Y-52645238D02*
X187199426Y-52692857D01*
X187199426Y-52692857D02*
X187151807Y-52788095D01*
X187151807Y-52788095D02*
X187151807Y-52930952D01*
X187151807Y-52930952D02*
X187104188Y-53026190D01*
X187104188Y-53026190D02*
X187008950Y-53073809D01*
X187008950Y-53073809D02*
X186961331Y-53073809D01*
X186961331Y-53073809D02*
X186866093Y-53026190D01*
X186866093Y-53026190D02*
X186818474Y-52930952D01*
X186818474Y-52930952D02*
X186818474Y-52788095D01*
X186818474Y-52788095D02*
X186866093Y-52692857D01*
X186818474Y-52359523D02*
X186818474Y-51978571D01*
X186485141Y-52216666D02*
X187342283Y-52216666D01*
X187342283Y-52216666D02*
X187437522Y-52169047D01*
X187437522Y-52169047D02*
X187485141Y-52073809D01*
X187485141Y-52073809D02*
X187485141Y-51978571D01*
X187485141Y-51216666D02*
X186961331Y-51216666D01*
X186961331Y-51216666D02*
X186866093Y-51264285D01*
X186866093Y-51264285D02*
X186818474Y-51359523D01*
X186818474Y-51359523D02*
X186818474Y-51549999D01*
X186818474Y-51549999D02*
X186866093Y-51645237D01*
X187437522Y-51216666D02*
X187485141Y-51311904D01*
X187485141Y-51311904D02*
X187485141Y-51549999D01*
X187485141Y-51549999D02*
X187437522Y-51645237D01*
X187437522Y-51645237D02*
X187342283Y-51692856D01*
X187342283Y-51692856D02*
X187247045Y-51692856D01*
X187247045Y-51692856D02*
X187151807Y-51645237D01*
X187151807Y-51645237D02*
X187104188Y-51549999D01*
X187104188Y-51549999D02*
X187104188Y-51311904D01*
X187104188Y-51311904D02*
X187056569Y-51216666D01*
X187485141Y-50597618D02*
X187437522Y-50692856D01*
X187437522Y-50692856D02*
X187342283Y-50740475D01*
X187342283Y-50740475D02*
X186485141Y-50740475D01*
D11*
X179163224Y-52930951D02*
X179544177Y-52930951D01*
X178744177Y-53197618D02*
X179163224Y-52930951D01*
X179163224Y-52930951D02*
X178744177Y-52664285D01*
X179544177Y-51978571D02*
X179544177Y-52435714D01*
X179544177Y-52207142D02*
X178744177Y-52207142D01*
X178744177Y-52207142D02*
X178858462Y-52283333D01*
X178858462Y-52283333D02*
X178934653Y-52359523D01*
X178934653Y-52359523D02*
X178972748Y-52435714D01*
D12*
X143500187Y-71098571D02*
X144083044Y-71098571D01*
X144083044Y-71098571D02*
X144151616Y-71064285D01*
X144151616Y-71064285D02*
X144185902Y-71030000D01*
X144185902Y-71030000D02*
X144220187Y-70961428D01*
X144220187Y-70961428D02*
X144220187Y-70824285D01*
X144220187Y-70824285D02*
X144185902Y-70755714D01*
X144185902Y-70755714D02*
X144151616Y-70721428D01*
X144151616Y-70721428D02*
X144083044Y-70687142D01*
X144083044Y-70687142D02*
X143500187Y-70687142D01*
X143740187Y-70035714D02*
X144220187Y-70035714D01*
X143465902Y-70207142D02*
X143980187Y-70378571D01*
X143980187Y-70378571D02*
X143980187Y-69932856D01*
D10*
X162545798Y-60854819D02*
X162545798Y-59854819D01*
X162545798Y-59854819D02*
X162879131Y-60569104D01*
X162879131Y-60569104D02*
X163212464Y-59854819D01*
X163212464Y-59854819D02*
X163212464Y-60854819D01*
X163641036Y-60807200D02*
X163783893Y-60854819D01*
X163783893Y-60854819D02*
X164021988Y-60854819D01*
X164021988Y-60854819D02*
X164117226Y-60807200D01*
X164117226Y-60807200D02*
X164164845Y-60759580D01*
X164164845Y-60759580D02*
X164212464Y-60664342D01*
X164212464Y-60664342D02*
X164212464Y-60569104D01*
X164212464Y-60569104D02*
X164164845Y-60473866D01*
X164164845Y-60473866D02*
X164117226Y-60426247D01*
X164117226Y-60426247D02*
X164021988Y-60378628D01*
X164021988Y-60378628D02*
X163831512Y-60331009D01*
X163831512Y-60331009D02*
X163736274Y-60283390D01*
X163736274Y-60283390D02*
X163688655Y-60235771D01*
X163688655Y-60235771D02*
X163641036Y-60140533D01*
X163641036Y-60140533D02*
X163641036Y-60045295D01*
X163641036Y-60045295D02*
X163688655Y-59950057D01*
X163688655Y-59950057D02*
X163736274Y-59902438D01*
X163736274Y-59902438D02*
X163831512Y-59854819D01*
X163831512Y-59854819D02*
X164069607Y-59854819D01*
X164069607Y-59854819D02*
X164212464Y-59902438D01*
X164641036Y-60854819D02*
X164641036Y-59854819D01*
X164641036Y-59854819D02*
X165021988Y-59854819D01*
X165021988Y-59854819D02*
X165117226Y-59902438D01*
X165117226Y-59902438D02*
X165164845Y-59950057D01*
X165164845Y-59950057D02*
X165212464Y-60045295D01*
X165212464Y-60045295D02*
X165212464Y-60188152D01*
X165212464Y-60188152D02*
X165164845Y-60283390D01*
X165164845Y-60283390D02*
X165117226Y-60331009D01*
X165117226Y-60331009D02*
X165021988Y-60378628D01*
X165021988Y-60378628D02*
X164641036Y-60378628D01*
X165641036Y-60854819D02*
X165641036Y-59854819D01*
X165641036Y-59854819D02*
X165974369Y-60569104D01*
X165974369Y-60569104D02*
X166307702Y-59854819D01*
X166307702Y-59854819D02*
X166307702Y-60854819D01*
X166974369Y-59854819D02*
X167069607Y-59854819D01*
X167069607Y-59854819D02*
X167164845Y-59902438D01*
X167164845Y-59902438D02*
X167212464Y-59950057D01*
X167212464Y-59950057D02*
X167260083Y-60045295D01*
X167260083Y-60045295D02*
X167307702Y-60235771D01*
X167307702Y-60235771D02*
X167307702Y-60473866D01*
X167307702Y-60473866D02*
X167260083Y-60664342D01*
X167260083Y-60664342D02*
X167212464Y-60759580D01*
X167212464Y-60759580D02*
X167164845Y-60807200D01*
X167164845Y-60807200D02*
X167069607Y-60854819D01*
X167069607Y-60854819D02*
X166974369Y-60854819D01*
X166974369Y-60854819D02*
X166879131Y-60807200D01*
X166879131Y-60807200D02*
X166831512Y-60759580D01*
X166831512Y-60759580D02*
X166783893Y-60664342D01*
X166783893Y-60664342D02*
X166736274Y-60473866D01*
X166736274Y-60473866D02*
X166736274Y-60235771D01*
X166736274Y-60235771D02*
X166783893Y-60045295D01*
X166783893Y-60045295D02*
X166831512Y-59950057D01*
X166831512Y-59950057D02*
X166879131Y-59902438D01*
X166879131Y-59902438D02*
X166974369Y-59854819D01*
X168260083Y-59902438D02*
X168164845Y-59854819D01*
X168164845Y-59854819D02*
X168021988Y-59854819D01*
X168021988Y-59854819D02*
X167879131Y-59902438D01*
X167879131Y-59902438D02*
X167783893Y-59997676D01*
X167783893Y-59997676D02*
X167736274Y-60092914D01*
X167736274Y-60092914D02*
X167688655Y-60283390D01*
X167688655Y-60283390D02*
X167688655Y-60426247D01*
X167688655Y-60426247D02*
X167736274Y-60616723D01*
X167736274Y-60616723D02*
X167783893Y-60711961D01*
X167783893Y-60711961D02*
X167879131Y-60807200D01*
X167879131Y-60807200D02*
X168021988Y-60854819D01*
X168021988Y-60854819D02*
X168117226Y-60854819D01*
X168117226Y-60854819D02*
X168260083Y-60807200D01*
X168260083Y-60807200D02*
X168307702Y-60759580D01*
X168307702Y-60759580D02*
X168307702Y-60426247D01*
X168307702Y-60426247D02*
X168117226Y-60426247D01*
X168641036Y-59854819D02*
X169260083Y-59854819D01*
X169260083Y-59854819D02*
X168926750Y-60235771D01*
X168926750Y-60235771D02*
X169069607Y-60235771D01*
X169069607Y-60235771D02*
X169164845Y-60283390D01*
X169164845Y-60283390D02*
X169212464Y-60331009D01*
X169212464Y-60331009D02*
X169260083Y-60426247D01*
X169260083Y-60426247D02*
X169260083Y-60664342D01*
X169260083Y-60664342D02*
X169212464Y-60759580D01*
X169212464Y-60759580D02*
X169164845Y-60807200D01*
X169164845Y-60807200D02*
X169069607Y-60854819D01*
X169069607Y-60854819D02*
X168783893Y-60854819D01*
X168783893Y-60854819D02*
X168688655Y-60807200D01*
X168688655Y-60807200D02*
X168641036Y-60759580D01*
X170164845Y-59854819D02*
X169688655Y-59854819D01*
X169688655Y-59854819D02*
X169641036Y-60331009D01*
X169641036Y-60331009D02*
X169688655Y-60283390D01*
X169688655Y-60283390D02*
X169783893Y-60235771D01*
X169783893Y-60235771D02*
X170021988Y-60235771D01*
X170021988Y-60235771D02*
X170117226Y-60283390D01*
X170117226Y-60283390D02*
X170164845Y-60331009D01*
X170164845Y-60331009D02*
X170212464Y-60426247D01*
X170212464Y-60426247D02*
X170212464Y-60664342D01*
X170212464Y-60664342D02*
X170164845Y-60759580D01*
X170164845Y-60759580D02*
X170117226Y-60807200D01*
X170117226Y-60807200D02*
X170021988Y-60854819D01*
X170021988Y-60854819D02*
X169783893Y-60854819D01*
X169783893Y-60854819D02*
X169688655Y-60807200D01*
X169688655Y-60807200D02*
X169641036Y-60759580D01*
X170831512Y-59854819D02*
X170926750Y-59854819D01*
X170926750Y-59854819D02*
X171021988Y-59902438D01*
X171021988Y-59902438D02*
X171069607Y-59950057D01*
X171069607Y-59950057D02*
X171117226Y-60045295D01*
X171117226Y-60045295D02*
X171164845Y-60235771D01*
X171164845Y-60235771D02*
X171164845Y-60473866D01*
X171164845Y-60473866D02*
X171117226Y-60664342D01*
X171117226Y-60664342D02*
X171069607Y-60759580D01*
X171069607Y-60759580D02*
X171021988Y-60807200D01*
X171021988Y-60807200D02*
X170926750Y-60854819D01*
X170926750Y-60854819D02*
X170831512Y-60854819D01*
X170831512Y-60854819D02*
X170736274Y-60807200D01*
X170736274Y-60807200D02*
X170688655Y-60759580D01*
X170688655Y-60759580D02*
X170641036Y-60664342D01*
X170641036Y-60664342D02*
X170593417Y-60473866D01*
X170593417Y-60473866D02*
X170593417Y-60235771D01*
X170593417Y-60235771D02*
X170641036Y-60045295D01*
X170641036Y-60045295D02*
X170688655Y-59950057D01*
X170688655Y-59950057D02*
X170736274Y-59902438D01*
X170736274Y-59902438D02*
X170831512Y-59854819D01*
X171498179Y-59854819D02*
X172164845Y-59854819D01*
X172164845Y-59854819D02*
X171736274Y-60854819D01*
X172498179Y-60807200D02*
X172641036Y-60854819D01*
X172641036Y-60854819D02*
X172879131Y-60854819D01*
X172879131Y-60854819D02*
X172974369Y-60807200D01*
X172974369Y-60807200D02*
X173021988Y-60759580D01*
X173021988Y-60759580D02*
X173069607Y-60664342D01*
X173069607Y-60664342D02*
X173069607Y-60569104D01*
X173069607Y-60569104D02*
X173021988Y-60473866D01*
X173021988Y-60473866D02*
X172974369Y-60426247D01*
X172974369Y-60426247D02*
X172879131Y-60378628D01*
X172879131Y-60378628D02*
X172688655Y-60331009D01*
X172688655Y-60331009D02*
X172593417Y-60283390D01*
X172593417Y-60283390D02*
X172545798Y-60235771D01*
X172545798Y-60235771D02*
X172498179Y-60140533D01*
X172498179Y-60140533D02*
X172498179Y-60045295D01*
X172498179Y-60045295D02*
X172545798Y-59950057D01*
X172545798Y-59950057D02*
X172593417Y-59902438D01*
X172593417Y-59902438D02*
X172688655Y-59854819D01*
X172688655Y-59854819D02*
X172926750Y-59854819D01*
X172926750Y-59854819D02*
X173069607Y-59902438D01*
X173498179Y-60854819D02*
X173498179Y-59854819D01*
X173498179Y-59854819D02*
X173879131Y-59854819D01*
X173879131Y-59854819D02*
X173974369Y-59902438D01*
X173974369Y-59902438D02*
X174021988Y-59950057D01*
X174021988Y-59950057D02*
X174069607Y-60045295D01*
X174069607Y-60045295D02*
X174069607Y-60188152D01*
X174069607Y-60188152D02*
X174021988Y-60283390D01*
X174021988Y-60283390D02*
X173974369Y-60331009D01*
X173974369Y-60331009D02*
X173879131Y-60378628D01*
X173879131Y-60378628D02*
X173498179Y-60378628D01*
X174498179Y-60854819D02*
X174498179Y-59854819D01*
X174498179Y-59854819D02*
X174831512Y-60569104D01*
X174831512Y-60569104D02*
X175164845Y-59854819D01*
X175164845Y-59854819D02*
X175164845Y-60854819D01*
X176212464Y-60854819D02*
X175879131Y-60378628D01*
X175641036Y-60854819D02*
X175641036Y-59854819D01*
X175641036Y-59854819D02*
X176021988Y-59854819D01*
X176021988Y-59854819D02*
X176117226Y-59902438D01*
X176117226Y-59902438D02*
X176164845Y-59950057D01*
X176164845Y-59950057D02*
X176212464Y-60045295D01*
X176212464Y-60045295D02*
X176212464Y-60188152D01*
X176212464Y-60188152D02*
X176164845Y-60283390D01*
X176164845Y-60283390D02*
X176117226Y-60331009D01*
X176117226Y-60331009D02*
X176021988Y-60378628D01*
X176021988Y-60378628D02*
X175641036Y-60378628D01*
X168593417Y-52454819D02*
X168593417Y-53264342D01*
X168593417Y-53264342D02*
X168641036Y-53359580D01*
X168641036Y-53359580D02*
X168688655Y-53407200D01*
X168688655Y-53407200D02*
X168783893Y-53454819D01*
X168783893Y-53454819D02*
X168974369Y-53454819D01*
X168974369Y-53454819D02*
X169069607Y-53407200D01*
X169069607Y-53407200D02*
X169117226Y-53359580D01*
X169117226Y-53359580D02*
X169164845Y-53264342D01*
X169164845Y-53264342D02*
X169164845Y-52454819D01*
X169593417Y-52550057D02*
X169641036Y-52502438D01*
X169641036Y-52502438D02*
X169736274Y-52454819D01*
X169736274Y-52454819D02*
X169974369Y-52454819D01*
X169974369Y-52454819D02*
X170069607Y-52502438D01*
X170069607Y-52502438D02*
X170117226Y-52550057D01*
X170117226Y-52550057D02*
X170164845Y-52645295D01*
X170164845Y-52645295D02*
X170164845Y-52740533D01*
X170164845Y-52740533D02*
X170117226Y-52883390D01*
X170117226Y-52883390D02*
X169545798Y-53454819D01*
X169545798Y-53454819D02*
X170164845Y-53454819D01*
D12*
X195783893Y-58791244D02*
X195783893Y-59398387D01*
X195783893Y-59398387D02*
X195819607Y-59469815D01*
X195819607Y-59469815D02*
X195855322Y-59505530D01*
X195855322Y-59505530D02*
X195926750Y-59541244D01*
X195926750Y-59541244D02*
X196069607Y-59541244D01*
X196069607Y-59541244D02*
X196141036Y-59505530D01*
X196141036Y-59505530D02*
X196176750Y-59469815D01*
X196176750Y-59469815D02*
X196212464Y-59398387D01*
X196212464Y-59398387D02*
X196212464Y-58791244D01*
X196962464Y-59541244D02*
X196533893Y-59541244D01*
X196748178Y-59541244D02*
X196748178Y-58791244D01*
X196748178Y-58791244D02*
X196676750Y-58898387D01*
X196676750Y-58898387D02*
X196605321Y-58969815D01*
X196605321Y-58969815D02*
X196533893Y-59005530D01*
D10*
X126421988Y-44454819D02*
X126993416Y-44454819D01*
X126707702Y-45454819D02*
X126707702Y-44454819D01*
X127707702Y-45407200D02*
X127612464Y-45454819D01*
X127612464Y-45454819D02*
X127421988Y-45454819D01*
X127421988Y-45454819D02*
X127326750Y-45407200D01*
X127326750Y-45407200D02*
X127279131Y-45311961D01*
X127279131Y-45311961D02*
X127279131Y-44931009D01*
X127279131Y-44931009D02*
X127326750Y-44835771D01*
X127326750Y-44835771D02*
X127421988Y-44788152D01*
X127421988Y-44788152D02*
X127612464Y-44788152D01*
X127612464Y-44788152D02*
X127707702Y-44835771D01*
X127707702Y-44835771D02*
X127755321Y-44931009D01*
X127755321Y-44931009D02*
X127755321Y-45026247D01*
X127755321Y-45026247D02*
X127279131Y-45121485D01*
X128136274Y-45407200D02*
X128231512Y-45454819D01*
X128231512Y-45454819D02*
X128421988Y-45454819D01*
X128421988Y-45454819D02*
X128517226Y-45407200D01*
X128517226Y-45407200D02*
X128564845Y-45311961D01*
X128564845Y-45311961D02*
X128564845Y-45264342D01*
X128564845Y-45264342D02*
X128517226Y-45169104D01*
X128517226Y-45169104D02*
X128421988Y-45121485D01*
X128421988Y-45121485D02*
X128279131Y-45121485D01*
X128279131Y-45121485D02*
X128183893Y-45073866D01*
X128183893Y-45073866D02*
X128136274Y-44978628D01*
X128136274Y-44978628D02*
X128136274Y-44931009D01*
X128136274Y-44931009D02*
X128183893Y-44835771D01*
X128183893Y-44835771D02*
X128279131Y-44788152D01*
X128279131Y-44788152D02*
X128421988Y-44788152D01*
X128421988Y-44788152D02*
X128517226Y-44835771D01*
X128850560Y-44788152D02*
X129231512Y-44788152D01*
X128993417Y-44454819D02*
X128993417Y-45311961D01*
X128993417Y-45311961D02*
X129041036Y-45407200D01*
X129041036Y-45407200D02*
X129136274Y-45454819D01*
X129136274Y-45454819D02*
X129231512Y-45454819D01*
X129564846Y-45454819D02*
X129564846Y-44454819D01*
X129564846Y-44454819D02*
X129945798Y-44454819D01*
X129945798Y-44454819D02*
X130041036Y-44502438D01*
X130041036Y-44502438D02*
X130088655Y-44550057D01*
X130088655Y-44550057D02*
X130136274Y-44645295D01*
X130136274Y-44645295D02*
X130136274Y-44788152D01*
X130136274Y-44788152D02*
X130088655Y-44883390D01*
X130088655Y-44883390D02*
X130041036Y-44931009D01*
X130041036Y-44931009D02*
X129945798Y-44978628D01*
X129945798Y-44978628D02*
X129564846Y-44978628D01*
X130707703Y-45454819D02*
X130612465Y-45407200D01*
X130612465Y-45407200D02*
X130564846Y-45359580D01*
X130564846Y-45359580D02*
X130517227Y-45264342D01*
X130517227Y-45264342D02*
X130517227Y-44978628D01*
X130517227Y-44978628D02*
X130564846Y-44883390D01*
X130564846Y-44883390D02*
X130612465Y-44835771D01*
X130612465Y-44835771D02*
X130707703Y-44788152D01*
X130707703Y-44788152D02*
X130850560Y-44788152D01*
X130850560Y-44788152D02*
X130945798Y-44835771D01*
X130945798Y-44835771D02*
X130993417Y-44883390D01*
X130993417Y-44883390D02*
X131041036Y-44978628D01*
X131041036Y-44978628D02*
X131041036Y-45264342D01*
X131041036Y-45264342D02*
X130993417Y-45359580D01*
X130993417Y-45359580D02*
X130945798Y-45407200D01*
X130945798Y-45407200D02*
X130850560Y-45454819D01*
X130850560Y-45454819D02*
X130707703Y-45454819D01*
X131469608Y-45454819D02*
X131469608Y-44788152D01*
X131469608Y-44454819D02*
X131421989Y-44502438D01*
X131421989Y-44502438D02*
X131469608Y-44550057D01*
X131469608Y-44550057D02*
X131517227Y-44502438D01*
X131517227Y-44502438D02*
X131469608Y-44454819D01*
X131469608Y-44454819D02*
X131469608Y-44550057D01*
X131945798Y-44788152D02*
X131945798Y-45454819D01*
X131945798Y-44883390D02*
X131993417Y-44835771D01*
X131993417Y-44835771D02*
X132088655Y-44788152D01*
X132088655Y-44788152D02*
X132231512Y-44788152D01*
X132231512Y-44788152D02*
X132326750Y-44835771D01*
X132326750Y-44835771D02*
X132374369Y-44931009D01*
X132374369Y-44931009D02*
X132374369Y-45454819D01*
X132707703Y-44788152D02*
X133088655Y-44788152D01*
X132850560Y-44454819D02*
X132850560Y-45311961D01*
X132850560Y-45311961D02*
X132898179Y-45407200D01*
X132898179Y-45407200D02*
X132993417Y-45454819D01*
X132993417Y-45454819D02*
X133088655Y-45454819D01*
X135693417Y-44654819D02*
X136264845Y-44654819D01*
X135979131Y-45654819D02*
X135979131Y-44654819D01*
X136598179Y-45654819D02*
X136598179Y-44654819D01*
X136598179Y-44654819D02*
X136979131Y-44654819D01*
X136979131Y-44654819D02*
X137074369Y-44702438D01*
X137074369Y-44702438D02*
X137121988Y-44750057D01*
X137121988Y-44750057D02*
X137169607Y-44845295D01*
X137169607Y-44845295D02*
X137169607Y-44988152D01*
X137169607Y-44988152D02*
X137121988Y-45083390D01*
X137121988Y-45083390D02*
X137074369Y-45131009D01*
X137074369Y-45131009D02*
X136979131Y-45178628D01*
X136979131Y-45178628D02*
X136598179Y-45178628D01*
X138121988Y-45654819D02*
X137550560Y-45654819D01*
X137836274Y-45654819D02*
X137836274Y-44654819D01*
X137836274Y-44654819D02*
X137741036Y-44797676D01*
X137741036Y-44797676D02*
X137645798Y-44892914D01*
X137645798Y-44892914D02*
X137550560Y-44940533D01*
X194307701Y-82204819D02*
X193974368Y-81728628D01*
X193736273Y-82204819D02*
X193736273Y-81204819D01*
X193736273Y-81204819D02*
X194117225Y-81204819D01*
X194117225Y-81204819D02*
X194212463Y-81252438D01*
X194212463Y-81252438D02*
X194260082Y-81300057D01*
X194260082Y-81300057D02*
X194307701Y-81395295D01*
X194307701Y-81395295D02*
X194307701Y-81538152D01*
X194307701Y-81538152D02*
X194260082Y-81633390D01*
X194260082Y-81633390D02*
X194212463Y-81681009D01*
X194212463Y-81681009D02*
X194117225Y-81728628D01*
X194117225Y-81728628D02*
X193736273Y-81728628D01*
X195117225Y-82157200D02*
X195021987Y-82204819D01*
X195021987Y-82204819D02*
X194831511Y-82204819D01*
X194831511Y-82204819D02*
X194736273Y-82157200D01*
X194736273Y-82157200D02*
X194688654Y-82061961D01*
X194688654Y-82061961D02*
X194688654Y-81681009D01*
X194688654Y-81681009D02*
X194736273Y-81585771D01*
X194736273Y-81585771D02*
X194831511Y-81538152D01*
X194831511Y-81538152D02*
X195021987Y-81538152D01*
X195021987Y-81538152D02*
X195117225Y-81585771D01*
X195117225Y-81585771D02*
X195164844Y-81681009D01*
X195164844Y-81681009D02*
X195164844Y-81776247D01*
X195164844Y-81776247D02*
X194688654Y-81871485D01*
X195545797Y-82157200D02*
X195641035Y-82204819D01*
X195641035Y-82204819D02*
X195831511Y-82204819D01*
X195831511Y-82204819D02*
X195926749Y-82157200D01*
X195926749Y-82157200D02*
X195974368Y-82061961D01*
X195974368Y-82061961D02*
X195974368Y-82014342D01*
X195974368Y-82014342D02*
X195926749Y-81919104D01*
X195926749Y-81919104D02*
X195831511Y-81871485D01*
X195831511Y-81871485D02*
X195688654Y-81871485D01*
X195688654Y-81871485D02*
X195593416Y-81823866D01*
X195593416Y-81823866D02*
X195545797Y-81728628D01*
X195545797Y-81728628D02*
X195545797Y-81681009D01*
X195545797Y-81681009D02*
X195593416Y-81585771D01*
X195593416Y-81585771D02*
X195688654Y-81538152D01*
X195688654Y-81538152D02*
X195831511Y-81538152D01*
X195831511Y-81538152D02*
X195926749Y-81585771D01*
X196783892Y-82157200D02*
X196688654Y-82204819D01*
X196688654Y-82204819D02*
X196498178Y-82204819D01*
X196498178Y-82204819D02*
X196402940Y-82157200D01*
X196402940Y-82157200D02*
X196355321Y-82061961D01*
X196355321Y-82061961D02*
X196355321Y-81681009D01*
X196355321Y-81681009D02*
X196402940Y-81585771D01*
X196402940Y-81585771D02*
X196498178Y-81538152D01*
X196498178Y-81538152D02*
X196688654Y-81538152D01*
X196688654Y-81538152D02*
X196783892Y-81585771D01*
X196783892Y-81585771D02*
X196831511Y-81681009D01*
X196831511Y-81681009D02*
X196831511Y-81776247D01*
X196831511Y-81776247D02*
X196355321Y-81871485D01*
X197117226Y-81538152D02*
X197498178Y-81538152D01*
X197260083Y-81204819D02*
X197260083Y-82061961D01*
X197260083Y-82061961D02*
X197307702Y-82157200D01*
X197307702Y-82157200D02*
X197402940Y-82204819D01*
X197402940Y-82204819D02*
X197498178Y-82204819D01*
X198926750Y-81681009D02*
X199069607Y-81728628D01*
X199069607Y-81728628D02*
X199117226Y-81776247D01*
X199117226Y-81776247D02*
X199164845Y-81871485D01*
X199164845Y-81871485D02*
X199164845Y-82014342D01*
X199164845Y-82014342D02*
X199117226Y-82109580D01*
X199117226Y-82109580D02*
X199069607Y-82157200D01*
X199069607Y-82157200D02*
X198974369Y-82204819D01*
X198974369Y-82204819D02*
X198593417Y-82204819D01*
X198593417Y-82204819D02*
X198593417Y-81204819D01*
X198593417Y-81204819D02*
X198926750Y-81204819D01*
X198926750Y-81204819D02*
X199021988Y-81252438D01*
X199021988Y-81252438D02*
X199069607Y-81300057D01*
X199069607Y-81300057D02*
X199117226Y-81395295D01*
X199117226Y-81395295D02*
X199117226Y-81490533D01*
X199117226Y-81490533D02*
X199069607Y-81585771D01*
X199069607Y-81585771D02*
X199021988Y-81633390D01*
X199021988Y-81633390D02*
X198926750Y-81681009D01*
X198926750Y-81681009D02*
X198593417Y-81681009D01*
X200021988Y-81538152D02*
X200021988Y-82204819D01*
X199593417Y-81538152D02*
X199593417Y-82061961D01*
X199593417Y-82061961D02*
X199641036Y-82157200D01*
X199641036Y-82157200D02*
X199736274Y-82204819D01*
X199736274Y-82204819D02*
X199879131Y-82204819D01*
X199879131Y-82204819D02*
X199974369Y-82157200D01*
X199974369Y-82157200D02*
X200021988Y-82109580D01*
X200355322Y-81538152D02*
X200736274Y-81538152D01*
X200498179Y-81204819D02*
X200498179Y-82061961D01*
X200498179Y-82061961D02*
X200545798Y-82157200D01*
X200545798Y-82157200D02*
X200641036Y-82204819D01*
X200641036Y-82204819D02*
X200736274Y-82204819D01*
X200926751Y-81538152D02*
X201307703Y-81538152D01*
X201069608Y-81204819D02*
X201069608Y-82061961D01*
X201069608Y-82061961D02*
X201117227Y-82157200D01*
X201117227Y-82157200D02*
X201212465Y-82204819D01*
X201212465Y-82204819D02*
X201307703Y-82204819D01*
X201783894Y-82204819D02*
X201688656Y-82157200D01*
X201688656Y-82157200D02*
X201641037Y-82109580D01*
X201641037Y-82109580D02*
X201593418Y-82014342D01*
X201593418Y-82014342D02*
X201593418Y-81728628D01*
X201593418Y-81728628D02*
X201641037Y-81633390D01*
X201641037Y-81633390D02*
X201688656Y-81585771D01*
X201688656Y-81585771D02*
X201783894Y-81538152D01*
X201783894Y-81538152D02*
X201926751Y-81538152D01*
X201926751Y-81538152D02*
X202021989Y-81585771D01*
X202021989Y-81585771D02*
X202069608Y-81633390D01*
X202069608Y-81633390D02*
X202117227Y-81728628D01*
X202117227Y-81728628D02*
X202117227Y-82014342D01*
X202117227Y-82014342D02*
X202069608Y-82109580D01*
X202069608Y-82109580D02*
X202021989Y-82157200D01*
X202021989Y-82157200D02*
X201926751Y-82204819D01*
X201926751Y-82204819D02*
X201783894Y-82204819D01*
X202545799Y-81538152D02*
X202545799Y-82204819D01*
X202545799Y-81633390D02*
X202593418Y-81585771D01*
X202593418Y-81585771D02*
X202688656Y-81538152D01*
X202688656Y-81538152D02*
X202831513Y-81538152D01*
X202831513Y-81538152D02*
X202926751Y-81585771D01*
X202926751Y-81585771D02*
X202974370Y-81681009D01*
X202974370Y-81681009D02*
X202974370Y-82204819D01*
X189339131Y-44594819D02*
X188862941Y-44594819D01*
X188862941Y-44594819D02*
X188815322Y-45071009D01*
X188815322Y-45071009D02*
X188862941Y-45023390D01*
X188862941Y-45023390D02*
X188958179Y-44975771D01*
X188958179Y-44975771D02*
X189196274Y-44975771D01*
X189196274Y-44975771D02*
X189291512Y-45023390D01*
X189291512Y-45023390D02*
X189339131Y-45071009D01*
X189339131Y-45071009D02*
X189386750Y-45166247D01*
X189386750Y-45166247D02*
X189386750Y-45404342D01*
X189386750Y-45404342D02*
X189339131Y-45499580D01*
X189339131Y-45499580D02*
X189291512Y-45547200D01*
X189291512Y-45547200D02*
X189196274Y-45594819D01*
X189196274Y-45594819D02*
X188958179Y-45594819D01*
X188958179Y-45594819D02*
X188862941Y-45547200D01*
X188862941Y-45547200D02*
X188815322Y-45499580D01*
X189815322Y-45499580D02*
X189862941Y-45547200D01*
X189862941Y-45547200D02*
X189815322Y-45594819D01*
X189815322Y-45594819D02*
X189767703Y-45547200D01*
X189767703Y-45547200D02*
X189815322Y-45499580D01*
X189815322Y-45499580D02*
X189815322Y-45594819D01*
X190815321Y-45594819D02*
X190243893Y-45594819D01*
X190529607Y-45594819D02*
X190529607Y-44594819D01*
X190529607Y-44594819D02*
X190434369Y-44737676D01*
X190434369Y-44737676D02*
X190339131Y-44832914D01*
X190339131Y-44832914D02*
X190243893Y-44880533D01*
X191243893Y-45594819D02*
X191243893Y-44594819D01*
X191815321Y-45594819D02*
X191386750Y-45023390D01*
X191815321Y-44594819D02*
X191243893Y-45166247D01*
D11*
X190181989Y-43673855D02*
X189915322Y-43292902D01*
X189724846Y-43673855D02*
X189724846Y-42873855D01*
X189724846Y-42873855D02*
X190029608Y-42873855D01*
X190029608Y-42873855D02*
X190105798Y-42911950D01*
X190105798Y-42911950D02*
X190143893Y-42950045D01*
X190143893Y-42950045D02*
X190181989Y-43026236D01*
X190181989Y-43026236D02*
X190181989Y-43140521D01*
X190181989Y-43140521D02*
X190143893Y-43216712D01*
X190143893Y-43216712D02*
X190105798Y-43254807D01*
X190105798Y-43254807D02*
X190029608Y-43292902D01*
X190029608Y-43292902D02*
X189724846Y-43292902D01*
X190562941Y-43673855D02*
X190715322Y-43673855D01*
X190715322Y-43673855D02*
X190791512Y-43635760D01*
X190791512Y-43635760D02*
X190829608Y-43597664D01*
X190829608Y-43597664D02*
X190905798Y-43483379D01*
X190905798Y-43483379D02*
X190943893Y-43330998D01*
X190943893Y-43330998D02*
X190943893Y-43026236D01*
X190943893Y-43026236D02*
X190905798Y-42950045D01*
X190905798Y-42950045D02*
X190867703Y-42911950D01*
X190867703Y-42911950D02*
X190791512Y-42873855D01*
X190791512Y-42873855D02*
X190639131Y-42873855D01*
X190639131Y-42873855D02*
X190562941Y-42911950D01*
X190562941Y-42911950D02*
X190524846Y-42950045D01*
X190524846Y-42950045D02*
X190486750Y-43026236D01*
X190486750Y-43026236D02*
X190486750Y-43216712D01*
X190486750Y-43216712D02*
X190524846Y-43292902D01*
X190524846Y-43292902D02*
X190562941Y-43330998D01*
X190562941Y-43330998D02*
X190639131Y-43369093D01*
X190639131Y-43369093D02*
X190791512Y-43369093D01*
X190791512Y-43369093D02*
X190867703Y-43330998D01*
X190867703Y-43330998D02*
X190905798Y-43292902D01*
X190905798Y-43292902D02*
X190943893Y-43216712D01*
D10*
X189389131Y-41994819D02*
X188912941Y-41994819D01*
X188912941Y-41994819D02*
X188865322Y-42471009D01*
X188865322Y-42471009D02*
X188912941Y-42423390D01*
X188912941Y-42423390D02*
X189008179Y-42375771D01*
X189008179Y-42375771D02*
X189246274Y-42375771D01*
X189246274Y-42375771D02*
X189341512Y-42423390D01*
X189341512Y-42423390D02*
X189389131Y-42471009D01*
X189389131Y-42471009D02*
X189436750Y-42566247D01*
X189436750Y-42566247D02*
X189436750Y-42804342D01*
X189436750Y-42804342D02*
X189389131Y-42899580D01*
X189389131Y-42899580D02*
X189341512Y-42947200D01*
X189341512Y-42947200D02*
X189246274Y-42994819D01*
X189246274Y-42994819D02*
X189008179Y-42994819D01*
X189008179Y-42994819D02*
X188912941Y-42947200D01*
X188912941Y-42947200D02*
X188865322Y-42899580D01*
X189865322Y-42899580D02*
X189912941Y-42947200D01*
X189912941Y-42947200D02*
X189865322Y-42994819D01*
X189865322Y-42994819D02*
X189817703Y-42947200D01*
X189817703Y-42947200D02*
X189865322Y-42899580D01*
X189865322Y-42899580D02*
X189865322Y-42994819D01*
X190865321Y-42994819D02*
X190293893Y-42994819D01*
X190579607Y-42994819D02*
X190579607Y-41994819D01*
X190579607Y-41994819D02*
X190484369Y-42137676D01*
X190484369Y-42137676D02*
X190389131Y-42232914D01*
X190389131Y-42232914D02*
X190293893Y-42280533D01*
X191293893Y-42994819D02*
X191293893Y-41994819D01*
X191865321Y-42994819D02*
X191436750Y-42423390D01*
X191865321Y-41994819D02*
X191293893Y-42566247D01*
D11*
X190231989Y-41073855D02*
X189965322Y-40692902D01*
X189774846Y-41073855D02*
X189774846Y-40273855D01*
X189774846Y-40273855D02*
X190079608Y-40273855D01*
X190079608Y-40273855D02*
X190155798Y-40311950D01*
X190155798Y-40311950D02*
X190193893Y-40350045D01*
X190193893Y-40350045D02*
X190231989Y-40426236D01*
X190231989Y-40426236D02*
X190231989Y-40540521D01*
X190231989Y-40540521D02*
X190193893Y-40616712D01*
X190193893Y-40616712D02*
X190155798Y-40654807D01*
X190155798Y-40654807D02*
X190079608Y-40692902D01*
X190079608Y-40692902D02*
X189774846Y-40692902D01*
X190917703Y-40273855D02*
X190765322Y-40273855D01*
X190765322Y-40273855D02*
X190689131Y-40311950D01*
X190689131Y-40311950D02*
X190651036Y-40350045D01*
X190651036Y-40350045D02*
X190574846Y-40464331D01*
X190574846Y-40464331D02*
X190536750Y-40616712D01*
X190536750Y-40616712D02*
X190536750Y-40921474D01*
X190536750Y-40921474D02*
X190574846Y-40997664D01*
X190574846Y-40997664D02*
X190612941Y-41035760D01*
X190612941Y-41035760D02*
X190689131Y-41073855D01*
X190689131Y-41073855D02*
X190841512Y-41073855D01*
X190841512Y-41073855D02*
X190917703Y-41035760D01*
X190917703Y-41035760D02*
X190955798Y-40997664D01*
X190955798Y-40997664D02*
X190993893Y-40921474D01*
X190993893Y-40921474D02*
X190993893Y-40730998D01*
X190993893Y-40730998D02*
X190955798Y-40654807D01*
X190955798Y-40654807D02*
X190917703Y-40616712D01*
X190917703Y-40616712D02*
X190841512Y-40578617D01*
X190841512Y-40578617D02*
X190689131Y-40578617D01*
X190689131Y-40578617D02*
X190612941Y-40616712D01*
X190612941Y-40616712D02*
X190574846Y-40654807D01*
X190574846Y-40654807D02*
X190536750Y-40730998D01*
D10*
X178108893Y-46904819D02*
X177537465Y-46904819D01*
X177823179Y-46904819D02*
X177823179Y-45904819D01*
X177823179Y-45904819D02*
X177727941Y-46047676D01*
X177727941Y-46047676D02*
X177632703Y-46142914D01*
X177632703Y-46142914D02*
X177537465Y-46190533D01*
X178727941Y-45904819D02*
X178823179Y-45904819D01*
X178823179Y-45904819D02*
X178918417Y-45952438D01*
X178918417Y-45952438D02*
X178966036Y-46000057D01*
X178966036Y-46000057D02*
X179013655Y-46095295D01*
X179013655Y-46095295D02*
X179061274Y-46285771D01*
X179061274Y-46285771D02*
X179061274Y-46523866D01*
X179061274Y-46523866D02*
X179013655Y-46714342D01*
X179013655Y-46714342D02*
X178966036Y-46809580D01*
X178966036Y-46809580D02*
X178918417Y-46857200D01*
X178918417Y-46857200D02*
X178823179Y-46904819D01*
X178823179Y-46904819D02*
X178727941Y-46904819D01*
X178727941Y-46904819D02*
X178632703Y-46857200D01*
X178632703Y-46857200D02*
X178585084Y-46809580D01*
X178585084Y-46809580D02*
X178537465Y-46714342D01*
X178537465Y-46714342D02*
X178489846Y-46523866D01*
X178489846Y-46523866D02*
X178489846Y-46285771D01*
X178489846Y-46285771D02*
X178537465Y-46095295D01*
X178537465Y-46095295D02*
X178585084Y-46000057D01*
X178585084Y-46000057D02*
X178632703Y-45952438D01*
X178632703Y-45952438D02*
X178727941Y-45904819D01*
X179680322Y-45904819D02*
X179775560Y-45904819D01*
X179775560Y-45904819D02*
X179870798Y-45952438D01*
X179870798Y-45952438D02*
X179918417Y-46000057D01*
X179918417Y-46000057D02*
X179966036Y-46095295D01*
X179966036Y-46095295D02*
X180013655Y-46285771D01*
X180013655Y-46285771D02*
X180013655Y-46523866D01*
X180013655Y-46523866D02*
X179966036Y-46714342D01*
X179966036Y-46714342D02*
X179918417Y-46809580D01*
X179918417Y-46809580D02*
X179870798Y-46857200D01*
X179870798Y-46857200D02*
X179775560Y-46904819D01*
X179775560Y-46904819D02*
X179680322Y-46904819D01*
X179680322Y-46904819D02*
X179585084Y-46857200D01*
X179585084Y-46857200D02*
X179537465Y-46809580D01*
X179537465Y-46809580D02*
X179489846Y-46714342D01*
X179489846Y-46714342D02*
X179442227Y-46523866D01*
X179442227Y-46523866D02*
X179442227Y-46285771D01*
X179442227Y-46285771D02*
X179489846Y-46095295D01*
X179489846Y-46095295D02*
X179537465Y-46000057D01*
X179537465Y-46000057D02*
X179585084Y-45952438D01*
X179585084Y-45952438D02*
X179680322Y-45904819D01*
X180442227Y-46904819D02*
X180442227Y-45904819D01*
X180537465Y-46523866D02*
X180823179Y-46904819D01*
X180823179Y-46238152D02*
X180442227Y-46619104D01*
D11*
X178896989Y-48813855D02*
X178630322Y-48432902D01*
X178439846Y-48813855D02*
X178439846Y-48013855D01*
X178439846Y-48013855D02*
X178744608Y-48013855D01*
X178744608Y-48013855D02*
X178820798Y-48051950D01*
X178820798Y-48051950D02*
X178858893Y-48090045D01*
X178858893Y-48090045D02*
X178896989Y-48166236D01*
X178896989Y-48166236D02*
X178896989Y-48280521D01*
X178896989Y-48280521D02*
X178858893Y-48356712D01*
X178858893Y-48356712D02*
X178820798Y-48394807D01*
X178820798Y-48394807D02*
X178744608Y-48432902D01*
X178744608Y-48432902D02*
X178439846Y-48432902D01*
X179582703Y-48280521D02*
X179582703Y-48813855D01*
X179392227Y-47975760D02*
X179201750Y-48547188D01*
X179201750Y-48547188D02*
X179696989Y-48547188D01*
D10*
X178464845Y-64018152D02*
X178464845Y-64684819D01*
X178226750Y-63637200D02*
X177988655Y-64351485D01*
X177988655Y-64351485D02*
X178607702Y-64351485D01*
X178893417Y-63684819D02*
X179560083Y-63684819D01*
X179560083Y-63684819D02*
X179131512Y-64684819D01*
X179941036Y-64684819D02*
X179941036Y-63684819D01*
X180036274Y-64303866D02*
X180321988Y-64684819D01*
X180321988Y-64018152D02*
X179941036Y-64399104D01*
D11*
X178971989Y-62763855D02*
X178705322Y-62382902D01*
X178514846Y-62763855D02*
X178514846Y-61963855D01*
X178514846Y-61963855D02*
X178819608Y-61963855D01*
X178819608Y-61963855D02*
X178895798Y-62001950D01*
X178895798Y-62001950D02*
X178933893Y-62040045D01*
X178933893Y-62040045D02*
X178971989Y-62116236D01*
X178971989Y-62116236D02*
X178971989Y-62230521D01*
X178971989Y-62230521D02*
X178933893Y-62306712D01*
X178933893Y-62306712D02*
X178895798Y-62344807D01*
X178895798Y-62344807D02*
X178819608Y-62382902D01*
X178819608Y-62382902D02*
X178514846Y-62382902D01*
X179238655Y-61963855D02*
X179733893Y-61963855D01*
X179733893Y-61963855D02*
X179467227Y-62268617D01*
X179467227Y-62268617D02*
X179581512Y-62268617D01*
X179581512Y-62268617D02*
X179657703Y-62306712D01*
X179657703Y-62306712D02*
X179695798Y-62344807D01*
X179695798Y-62344807D02*
X179733893Y-62420998D01*
X179733893Y-62420998D02*
X179733893Y-62611474D01*
X179733893Y-62611474D02*
X179695798Y-62687664D01*
X179695798Y-62687664D02*
X179657703Y-62725760D01*
X179657703Y-62725760D02*
X179581512Y-62763855D01*
X179581512Y-62763855D02*
X179352941Y-62763855D01*
X179352941Y-62763855D02*
X179276750Y-62725760D01*
X179276750Y-62725760D02*
X179238655Y-62687664D01*
D10*
X189713474Y-59941071D02*
X190380141Y-59941071D01*
X189332522Y-60179166D02*
X190046807Y-60417261D01*
X190046807Y-60417261D02*
X190046807Y-59798214D01*
X190284902Y-59417261D02*
X190332522Y-59369642D01*
X190332522Y-59369642D02*
X190380141Y-59417261D01*
X190380141Y-59417261D02*
X190332522Y-59464880D01*
X190332522Y-59464880D02*
X190284902Y-59417261D01*
X190284902Y-59417261D02*
X190380141Y-59417261D01*
X189380141Y-59036309D02*
X189380141Y-58369643D01*
X189380141Y-58369643D02*
X190380141Y-58798214D01*
X190380141Y-57988690D02*
X189380141Y-57988690D01*
X189999188Y-57893452D02*
X190380141Y-57607738D01*
X189713474Y-57607738D02*
X190094426Y-57988690D01*
D11*
X192119177Y-59145832D02*
X191738224Y-59412499D01*
X192119177Y-59602975D02*
X191319177Y-59602975D01*
X191319177Y-59602975D02*
X191319177Y-59298213D01*
X191319177Y-59298213D02*
X191357272Y-59222023D01*
X191357272Y-59222023D02*
X191395367Y-59183928D01*
X191395367Y-59183928D02*
X191471558Y-59145832D01*
X191471558Y-59145832D02*
X191585843Y-59145832D01*
X191585843Y-59145832D02*
X191662034Y-59183928D01*
X191662034Y-59183928D02*
X191700129Y-59222023D01*
X191700129Y-59222023D02*
X191738224Y-59298213D01*
X191738224Y-59298213D02*
X191738224Y-59602975D01*
X191395367Y-58841071D02*
X191357272Y-58802975D01*
X191357272Y-58802975D02*
X191319177Y-58726785D01*
X191319177Y-58726785D02*
X191319177Y-58536309D01*
X191319177Y-58536309D02*
X191357272Y-58460118D01*
X191357272Y-58460118D02*
X191395367Y-58422023D01*
X191395367Y-58422023D02*
X191471558Y-58383928D01*
X191471558Y-58383928D02*
X191547748Y-58383928D01*
X191547748Y-58383928D02*
X191662034Y-58422023D01*
X191662034Y-58422023D02*
X192119177Y-58879166D01*
X192119177Y-58879166D02*
X192119177Y-58383928D01*
D10*
X199713474Y-59741071D02*
X200380141Y-59741071D01*
X199332522Y-59979166D02*
X200046807Y-60217261D01*
X200046807Y-60217261D02*
X200046807Y-59598214D01*
X200284902Y-59217261D02*
X200332522Y-59169642D01*
X200332522Y-59169642D02*
X200380141Y-59217261D01*
X200380141Y-59217261D02*
X200332522Y-59264880D01*
X200332522Y-59264880D02*
X200284902Y-59217261D01*
X200284902Y-59217261D02*
X200380141Y-59217261D01*
X199380141Y-58836309D02*
X199380141Y-58169643D01*
X199380141Y-58169643D02*
X200380141Y-58598214D01*
X200380141Y-57788690D02*
X199380141Y-57788690D01*
X199999188Y-57693452D02*
X200380141Y-57407738D01*
X199713474Y-57407738D02*
X200094426Y-57788690D01*
D11*
X202119177Y-58945832D02*
X201738224Y-59212499D01*
X202119177Y-59402975D02*
X201319177Y-59402975D01*
X201319177Y-59402975D02*
X201319177Y-59098213D01*
X201319177Y-59098213D02*
X201357272Y-59022023D01*
X201357272Y-59022023D02*
X201395367Y-58983928D01*
X201395367Y-58983928D02*
X201471558Y-58945832D01*
X201471558Y-58945832D02*
X201585843Y-58945832D01*
X201585843Y-58945832D02*
X201662034Y-58983928D01*
X201662034Y-58983928D02*
X201700129Y-59022023D01*
X201700129Y-59022023D02*
X201738224Y-59098213D01*
X201738224Y-59098213D02*
X201738224Y-59402975D01*
X202119177Y-58183928D02*
X202119177Y-58641071D01*
X202119177Y-58412499D02*
X201319177Y-58412499D01*
X201319177Y-58412499D02*
X201433462Y-58488690D01*
X201433462Y-58488690D02*
X201509653Y-58564880D01*
X201509653Y-58564880D02*
X201547748Y-58641071D01*
D10*
X141366331Y-81071429D02*
X141413950Y-80928572D01*
X141413950Y-80928572D02*
X141461569Y-80880953D01*
X141461569Y-80880953D02*
X141556807Y-80833334D01*
X141556807Y-80833334D02*
X141699664Y-80833334D01*
X141699664Y-80833334D02*
X141794902Y-80880953D01*
X141794902Y-80880953D02*
X141842522Y-80928572D01*
X141842522Y-80928572D02*
X141890141Y-81023810D01*
X141890141Y-81023810D02*
X141890141Y-81404762D01*
X141890141Y-81404762D02*
X140890141Y-81404762D01*
X140890141Y-81404762D02*
X140890141Y-81071429D01*
X140890141Y-81071429D02*
X140937760Y-80976191D01*
X140937760Y-80976191D02*
X140985379Y-80928572D01*
X140985379Y-80928572D02*
X141080617Y-80880953D01*
X141080617Y-80880953D02*
X141175855Y-80880953D01*
X141175855Y-80880953D02*
X141271093Y-80928572D01*
X141271093Y-80928572D02*
X141318712Y-80976191D01*
X141318712Y-80976191D02*
X141366331Y-81071429D01*
X141366331Y-81071429D02*
X141366331Y-81404762D01*
X141890141Y-79976191D02*
X141366331Y-79976191D01*
X141366331Y-79976191D02*
X141271093Y-80023810D01*
X141271093Y-80023810D02*
X141223474Y-80119048D01*
X141223474Y-80119048D02*
X141223474Y-80309524D01*
X141223474Y-80309524D02*
X141271093Y-80404762D01*
X141842522Y-79976191D02*
X141890141Y-80071429D01*
X141890141Y-80071429D02*
X141890141Y-80309524D01*
X141890141Y-80309524D02*
X141842522Y-80404762D01*
X141842522Y-80404762D02*
X141747283Y-80452381D01*
X141747283Y-80452381D02*
X141652045Y-80452381D01*
X141652045Y-80452381D02*
X141556807Y-80404762D01*
X141556807Y-80404762D02*
X141509188Y-80309524D01*
X141509188Y-80309524D02*
X141509188Y-80071429D01*
X141509188Y-80071429D02*
X141461569Y-79976191D01*
X141223474Y-79642857D02*
X141223474Y-79261905D01*
X140890141Y-79500000D02*
X141747283Y-79500000D01*
X141747283Y-79500000D02*
X141842522Y-79452381D01*
X141842522Y-79452381D02*
X141890141Y-79357143D01*
X141890141Y-79357143D02*
X141890141Y-79261905D01*
X141223474Y-79071428D02*
X141223474Y-78690476D01*
X140890141Y-78928571D02*
X141747283Y-78928571D01*
X141747283Y-78928571D02*
X141842522Y-78880952D01*
X141842522Y-78880952D02*
X141890141Y-78785714D01*
X141890141Y-78785714D02*
X141890141Y-78690476D01*
X141842522Y-77976190D02*
X141890141Y-78071428D01*
X141890141Y-78071428D02*
X141890141Y-78261904D01*
X141890141Y-78261904D02*
X141842522Y-78357142D01*
X141842522Y-78357142D02*
X141747283Y-78404761D01*
X141747283Y-78404761D02*
X141366331Y-78404761D01*
X141366331Y-78404761D02*
X141271093Y-78357142D01*
X141271093Y-78357142D02*
X141223474Y-78261904D01*
X141223474Y-78261904D02*
X141223474Y-78071428D01*
X141223474Y-78071428D02*
X141271093Y-77976190D01*
X141271093Y-77976190D02*
X141366331Y-77928571D01*
X141366331Y-77928571D02*
X141461569Y-77928571D01*
X141461569Y-77928571D02*
X141556807Y-78404761D01*
X141890141Y-77499999D02*
X141223474Y-77499999D01*
X141413950Y-77499999D02*
X141318712Y-77452380D01*
X141318712Y-77452380D02*
X141271093Y-77404761D01*
X141271093Y-77404761D02*
X141223474Y-77309523D01*
X141223474Y-77309523D02*
X141223474Y-77214285D01*
X141223474Y-76976189D02*
X141890141Y-76738094D01*
X141223474Y-76499999D02*
X141890141Y-76738094D01*
X141890141Y-76738094D02*
X142128236Y-76833332D01*
X142128236Y-76833332D02*
X142175855Y-76880951D01*
X142175855Y-76880951D02*
X142223474Y-76976189D01*
X144751988Y-78454819D02*
X144751988Y-79169104D01*
X144751988Y-79169104D02*
X144704369Y-79311961D01*
X144704369Y-79311961D02*
X144609131Y-79407200D01*
X144609131Y-79407200D02*
X144466274Y-79454819D01*
X144466274Y-79454819D02*
X144371036Y-79454819D01*
X145704369Y-78454819D02*
X145228179Y-78454819D01*
X145228179Y-78454819D02*
X145180560Y-78931009D01*
X145180560Y-78931009D02*
X145228179Y-78883390D01*
X145228179Y-78883390D02*
X145323417Y-78835771D01*
X145323417Y-78835771D02*
X145561512Y-78835771D01*
X145561512Y-78835771D02*
X145656750Y-78883390D01*
X145656750Y-78883390D02*
X145704369Y-78931009D01*
X145704369Y-78931009D02*
X145751988Y-79026247D01*
X145751988Y-79026247D02*
X145751988Y-79264342D01*
X145751988Y-79264342D02*
X145704369Y-79359580D01*
X145704369Y-79359580D02*
X145656750Y-79407200D01*
X145656750Y-79407200D02*
X145561512Y-79454819D01*
X145561512Y-79454819D02*
X145323417Y-79454819D01*
X145323417Y-79454819D02*
X145228179Y-79407200D01*
X145228179Y-79407200D02*
X145180560Y-79359580D01*
X204710141Y-55033810D02*
X205519664Y-55033810D01*
X205519664Y-55033810D02*
X205614902Y-54986191D01*
X205614902Y-54986191D02*
X205662522Y-54938572D01*
X205662522Y-54938572D02*
X205710141Y-54843334D01*
X205710141Y-54843334D02*
X205710141Y-54652858D01*
X205710141Y-54652858D02*
X205662522Y-54557620D01*
X205662522Y-54557620D02*
X205614902Y-54510001D01*
X205614902Y-54510001D02*
X205519664Y-54462382D01*
X205519664Y-54462382D02*
X204710141Y-54462382D01*
X205662522Y-54033810D02*
X205710141Y-53890953D01*
X205710141Y-53890953D02*
X205710141Y-53652858D01*
X205710141Y-53652858D02*
X205662522Y-53557620D01*
X205662522Y-53557620D02*
X205614902Y-53510001D01*
X205614902Y-53510001D02*
X205519664Y-53462382D01*
X205519664Y-53462382D02*
X205424426Y-53462382D01*
X205424426Y-53462382D02*
X205329188Y-53510001D01*
X205329188Y-53510001D02*
X205281569Y-53557620D01*
X205281569Y-53557620D02*
X205233950Y-53652858D01*
X205233950Y-53652858D02*
X205186331Y-53843334D01*
X205186331Y-53843334D02*
X205138712Y-53938572D01*
X205138712Y-53938572D02*
X205091093Y-53986191D01*
X205091093Y-53986191D02*
X204995855Y-54033810D01*
X204995855Y-54033810D02*
X204900617Y-54033810D01*
X204900617Y-54033810D02*
X204805379Y-53986191D01*
X204805379Y-53986191D02*
X204757760Y-53938572D01*
X204757760Y-53938572D02*
X204710141Y-53843334D01*
X204710141Y-53843334D02*
X204710141Y-53605239D01*
X204710141Y-53605239D02*
X204757760Y-53462382D01*
X205186331Y-52700477D02*
X205233950Y-52557620D01*
X205233950Y-52557620D02*
X205281569Y-52510001D01*
X205281569Y-52510001D02*
X205376807Y-52462382D01*
X205376807Y-52462382D02*
X205519664Y-52462382D01*
X205519664Y-52462382D02*
X205614902Y-52510001D01*
X205614902Y-52510001D02*
X205662522Y-52557620D01*
X205662522Y-52557620D02*
X205710141Y-52652858D01*
X205710141Y-52652858D02*
X205710141Y-53033810D01*
X205710141Y-53033810D02*
X204710141Y-53033810D01*
X204710141Y-53033810D02*
X204710141Y-52700477D01*
X204710141Y-52700477D02*
X204757760Y-52605239D01*
X204757760Y-52605239D02*
X204805379Y-52557620D01*
X204805379Y-52557620D02*
X204900617Y-52510001D01*
X204900617Y-52510001D02*
X204995855Y-52510001D01*
X204995855Y-52510001D02*
X205091093Y-52557620D01*
X205091093Y-52557620D02*
X205138712Y-52605239D01*
X205138712Y-52605239D02*
X205186331Y-52700477D01*
X205186331Y-52700477D02*
X205186331Y-53033810D01*
X205805379Y-52271906D02*
X205805379Y-51510001D01*
X205614902Y-50700477D02*
X205662522Y-50748096D01*
X205662522Y-50748096D02*
X205710141Y-50890953D01*
X205710141Y-50890953D02*
X205710141Y-50986191D01*
X205710141Y-50986191D02*
X205662522Y-51129048D01*
X205662522Y-51129048D02*
X205567283Y-51224286D01*
X205567283Y-51224286D02*
X205472045Y-51271905D01*
X205472045Y-51271905D02*
X205281569Y-51319524D01*
X205281569Y-51319524D02*
X205138712Y-51319524D01*
X205138712Y-51319524D02*
X204948236Y-51271905D01*
X204948236Y-51271905D02*
X204852998Y-51224286D01*
X204852998Y-51224286D02*
X204757760Y-51129048D01*
X204757760Y-51129048D02*
X204710141Y-50986191D01*
X204710141Y-50986191D02*
X204710141Y-50890953D01*
X204710141Y-50890953D02*
X204757760Y-50748096D01*
X204757760Y-50748096D02*
X204805379Y-50700477D01*
X205805379Y-50510001D02*
X205805379Y-49748096D01*
X205710141Y-48938572D02*
X205233950Y-49271905D01*
X205710141Y-49510000D02*
X204710141Y-49510000D01*
X204710141Y-49510000D02*
X204710141Y-49129048D01*
X204710141Y-49129048D02*
X204757760Y-49033810D01*
X204757760Y-49033810D02*
X204805379Y-48986191D01*
X204805379Y-48986191D02*
X204900617Y-48938572D01*
X204900617Y-48938572D02*
X205043474Y-48938572D01*
X205043474Y-48938572D02*
X205138712Y-48986191D01*
X205138712Y-48986191D02*
X205186331Y-49033810D01*
X205186331Y-49033810D02*
X205233950Y-49129048D01*
X205233950Y-49129048D02*
X205233950Y-49510000D01*
X205662522Y-48129048D02*
X205710141Y-48224286D01*
X205710141Y-48224286D02*
X205710141Y-48414762D01*
X205710141Y-48414762D02*
X205662522Y-48510000D01*
X205662522Y-48510000D02*
X205567283Y-48557619D01*
X205567283Y-48557619D02*
X205186331Y-48557619D01*
X205186331Y-48557619D02*
X205091093Y-48510000D01*
X205091093Y-48510000D02*
X205043474Y-48414762D01*
X205043474Y-48414762D02*
X205043474Y-48224286D01*
X205043474Y-48224286D02*
X205091093Y-48129048D01*
X205091093Y-48129048D02*
X205186331Y-48081429D01*
X205186331Y-48081429D02*
X205281569Y-48081429D01*
X205281569Y-48081429D02*
X205376807Y-48557619D01*
X205662522Y-47224286D02*
X205710141Y-47319524D01*
X205710141Y-47319524D02*
X205710141Y-47510000D01*
X205710141Y-47510000D02*
X205662522Y-47605238D01*
X205662522Y-47605238D02*
X205614902Y-47652857D01*
X205614902Y-47652857D02*
X205519664Y-47700476D01*
X205519664Y-47700476D02*
X205233950Y-47700476D01*
X205233950Y-47700476D02*
X205138712Y-47652857D01*
X205138712Y-47652857D02*
X205091093Y-47605238D01*
X205091093Y-47605238D02*
X205043474Y-47510000D01*
X205043474Y-47510000D02*
X205043474Y-47319524D01*
X205043474Y-47319524D02*
X205091093Y-47224286D01*
X205662522Y-46414762D02*
X205710141Y-46510000D01*
X205710141Y-46510000D02*
X205710141Y-46700476D01*
X205710141Y-46700476D02*
X205662522Y-46795714D01*
X205662522Y-46795714D02*
X205567283Y-46843333D01*
X205567283Y-46843333D02*
X205186331Y-46843333D01*
X205186331Y-46843333D02*
X205091093Y-46795714D01*
X205091093Y-46795714D02*
X205043474Y-46700476D01*
X205043474Y-46700476D02*
X205043474Y-46510000D01*
X205043474Y-46510000D02*
X205091093Y-46414762D01*
X205091093Y-46414762D02*
X205186331Y-46367143D01*
X205186331Y-46367143D02*
X205281569Y-46367143D01*
X205281569Y-46367143D02*
X205376807Y-46843333D01*
X205043474Y-45938571D02*
X206043474Y-45938571D01*
X205091093Y-45938571D02*
X205043474Y-45843333D01*
X205043474Y-45843333D02*
X205043474Y-45652857D01*
X205043474Y-45652857D02*
X205091093Y-45557619D01*
X205091093Y-45557619D02*
X205138712Y-45510000D01*
X205138712Y-45510000D02*
X205233950Y-45462381D01*
X205233950Y-45462381D02*
X205519664Y-45462381D01*
X205519664Y-45462381D02*
X205614902Y-45510000D01*
X205614902Y-45510000D02*
X205662522Y-45557619D01*
X205662522Y-45557619D02*
X205710141Y-45652857D01*
X205710141Y-45652857D02*
X205710141Y-45843333D01*
X205710141Y-45843333D02*
X205662522Y-45938571D01*
X205043474Y-45176666D02*
X205043474Y-44795714D01*
X204710141Y-45033809D02*
X205567283Y-45033809D01*
X205567283Y-45033809D02*
X205662522Y-44986190D01*
X205662522Y-44986190D02*
X205710141Y-44890952D01*
X205710141Y-44890952D02*
X205710141Y-44795714D01*
X205710141Y-44033809D02*
X205186331Y-44033809D01*
X205186331Y-44033809D02*
X205091093Y-44081428D01*
X205091093Y-44081428D02*
X205043474Y-44176666D01*
X205043474Y-44176666D02*
X205043474Y-44367142D01*
X205043474Y-44367142D02*
X205091093Y-44462380D01*
X205662522Y-44033809D02*
X205710141Y-44129047D01*
X205710141Y-44129047D02*
X205710141Y-44367142D01*
X205710141Y-44367142D02*
X205662522Y-44462380D01*
X205662522Y-44462380D02*
X205567283Y-44509999D01*
X205567283Y-44509999D02*
X205472045Y-44509999D01*
X205472045Y-44509999D02*
X205376807Y-44462380D01*
X205376807Y-44462380D02*
X205329188Y-44367142D01*
X205329188Y-44367142D02*
X205329188Y-44129047D01*
X205329188Y-44129047D02*
X205281569Y-44033809D01*
X205662522Y-43129047D02*
X205710141Y-43224285D01*
X205710141Y-43224285D02*
X205710141Y-43414761D01*
X205710141Y-43414761D02*
X205662522Y-43509999D01*
X205662522Y-43509999D02*
X205614902Y-43557618D01*
X205614902Y-43557618D02*
X205519664Y-43605237D01*
X205519664Y-43605237D02*
X205233950Y-43605237D01*
X205233950Y-43605237D02*
X205138712Y-43557618D01*
X205138712Y-43557618D02*
X205091093Y-43509999D01*
X205091093Y-43509999D02*
X205043474Y-43414761D01*
X205043474Y-43414761D02*
X205043474Y-43224285D01*
X205043474Y-43224285D02*
X205091093Y-43129047D01*
X205710141Y-42557618D02*
X205662522Y-42652856D01*
X205662522Y-42652856D02*
X205567283Y-42700475D01*
X205567283Y-42700475D02*
X204710141Y-42700475D01*
X205662522Y-41795713D02*
X205710141Y-41890951D01*
X205710141Y-41890951D02*
X205710141Y-42081427D01*
X205710141Y-42081427D02*
X205662522Y-42176665D01*
X205662522Y-42176665D02*
X205567283Y-42224284D01*
X205567283Y-42224284D02*
X205186331Y-42224284D01*
X205186331Y-42224284D02*
X205091093Y-42176665D01*
X205091093Y-42176665D02*
X205043474Y-42081427D01*
X205043474Y-42081427D02*
X205043474Y-41890951D01*
X205043474Y-41890951D02*
X205091093Y-41795713D01*
X205091093Y-41795713D02*
X205186331Y-41748094D01*
X205186331Y-41748094D02*
X205281569Y-41748094D01*
X205281569Y-41748094D02*
X205376807Y-42224284D01*
X205805379Y-41557618D02*
X205805379Y-40795713D01*
X204710141Y-40557617D02*
X205519664Y-40557617D01*
X205519664Y-40557617D02*
X205614902Y-40509998D01*
X205614902Y-40509998D02*
X205662522Y-40462379D01*
X205662522Y-40462379D02*
X205710141Y-40367141D01*
X205710141Y-40367141D02*
X205710141Y-40176665D01*
X205710141Y-40176665D02*
X205662522Y-40081427D01*
X205662522Y-40081427D02*
X205614902Y-40033808D01*
X205614902Y-40033808D02*
X205519664Y-39986189D01*
X205519664Y-39986189D02*
X204710141Y-39986189D01*
X205662522Y-39557617D02*
X205710141Y-39414760D01*
X205710141Y-39414760D02*
X205710141Y-39176665D01*
X205710141Y-39176665D02*
X205662522Y-39081427D01*
X205662522Y-39081427D02*
X205614902Y-39033808D01*
X205614902Y-39033808D02*
X205519664Y-38986189D01*
X205519664Y-38986189D02*
X205424426Y-38986189D01*
X205424426Y-38986189D02*
X205329188Y-39033808D01*
X205329188Y-39033808D02*
X205281569Y-39081427D01*
X205281569Y-39081427D02*
X205233950Y-39176665D01*
X205233950Y-39176665D02*
X205186331Y-39367141D01*
X205186331Y-39367141D02*
X205138712Y-39462379D01*
X205138712Y-39462379D02*
X205091093Y-39509998D01*
X205091093Y-39509998D02*
X204995855Y-39557617D01*
X204995855Y-39557617D02*
X204900617Y-39557617D01*
X204900617Y-39557617D02*
X204805379Y-39509998D01*
X204805379Y-39509998D02*
X204757760Y-39462379D01*
X204757760Y-39462379D02*
X204710141Y-39367141D01*
X204710141Y-39367141D02*
X204710141Y-39129046D01*
X204710141Y-39129046D02*
X204757760Y-38986189D01*
X205186331Y-38224284D02*
X205233950Y-38081427D01*
X205233950Y-38081427D02*
X205281569Y-38033808D01*
X205281569Y-38033808D02*
X205376807Y-37986189D01*
X205376807Y-37986189D02*
X205519664Y-37986189D01*
X205519664Y-37986189D02*
X205614902Y-38033808D01*
X205614902Y-38033808D02*
X205662522Y-38081427D01*
X205662522Y-38081427D02*
X205710141Y-38176665D01*
X205710141Y-38176665D02*
X205710141Y-38557617D01*
X205710141Y-38557617D02*
X204710141Y-38557617D01*
X204710141Y-38557617D02*
X204710141Y-38224284D01*
X204710141Y-38224284D02*
X204757760Y-38129046D01*
X204757760Y-38129046D02*
X204805379Y-38081427D01*
X204805379Y-38081427D02*
X204900617Y-38033808D01*
X204900617Y-38033808D02*
X204995855Y-38033808D01*
X204995855Y-38033808D02*
X205091093Y-38081427D01*
X205091093Y-38081427D02*
X205138712Y-38129046D01*
X205138712Y-38129046D02*
X205186331Y-38224284D01*
X205186331Y-38224284D02*
X205186331Y-38557617D01*
X204805379Y-37605236D02*
X204757760Y-37557617D01*
X204757760Y-37557617D02*
X204710141Y-37462379D01*
X204710141Y-37462379D02*
X204710141Y-37224284D01*
X204710141Y-37224284D02*
X204757760Y-37129046D01*
X204757760Y-37129046D02*
X204805379Y-37081427D01*
X204805379Y-37081427D02*
X204900617Y-37033808D01*
X204900617Y-37033808D02*
X204995855Y-37033808D01*
X204995855Y-37033808D02*
X205138712Y-37081427D01*
X205138712Y-37081427D02*
X205710141Y-37652855D01*
X205710141Y-37652855D02*
X205710141Y-37033808D01*
X205614902Y-36605236D02*
X205662522Y-36557617D01*
X205662522Y-36557617D02*
X205710141Y-36605236D01*
X205710141Y-36605236D02*
X205662522Y-36652855D01*
X205662522Y-36652855D02*
X205614902Y-36605236D01*
X205614902Y-36605236D02*
X205710141Y-36605236D01*
X204710141Y-35938570D02*
X204710141Y-35843332D01*
X204710141Y-35843332D02*
X204757760Y-35748094D01*
X204757760Y-35748094D02*
X204805379Y-35700475D01*
X204805379Y-35700475D02*
X204900617Y-35652856D01*
X204900617Y-35652856D02*
X205091093Y-35605237D01*
X205091093Y-35605237D02*
X205329188Y-35605237D01*
X205329188Y-35605237D02*
X205519664Y-35652856D01*
X205519664Y-35652856D02*
X205614902Y-35700475D01*
X205614902Y-35700475D02*
X205662522Y-35748094D01*
X205662522Y-35748094D02*
X205710141Y-35843332D01*
X205710141Y-35843332D02*
X205710141Y-35938570D01*
X205710141Y-35938570D02*
X205662522Y-36033808D01*
X205662522Y-36033808D02*
X205614902Y-36081427D01*
X205614902Y-36081427D02*
X205519664Y-36129046D01*
X205519664Y-36129046D02*
X205329188Y-36176665D01*
X205329188Y-36176665D02*
X205091093Y-36176665D01*
X205091093Y-36176665D02*
X204900617Y-36129046D01*
X204900617Y-36129046D02*
X204805379Y-36081427D01*
X204805379Y-36081427D02*
X204757760Y-36033808D01*
X204757760Y-36033808D02*
X204710141Y-35938570D01*
X205805379Y-35414761D02*
X205805379Y-34652856D01*
X205710141Y-33890951D02*
X205710141Y-34462379D01*
X205710141Y-34176665D02*
X204710141Y-34176665D01*
X204710141Y-34176665D02*
X204852998Y-34271903D01*
X204852998Y-34271903D02*
X204948236Y-34367141D01*
X204948236Y-34367141D02*
X204995855Y-34462379D01*
X204710141Y-33033808D02*
X204710141Y-33224284D01*
X204710141Y-33224284D02*
X204757760Y-33319522D01*
X204757760Y-33319522D02*
X204805379Y-33367141D01*
X204805379Y-33367141D02*
X204948236Y-33462379D01*
X204948236Y-33462379D02*
X205138712Y-33509998D01*
X205138712Y-33509998D02*
X205519664Y-33509998D01*
X205519664Y-33509998D02*
X205614902Y-33462379D01*
X205614902Y-33462379D02*
X205662522Y-33414760D01*
X205662522Y-33414760D02*
X205710141Y-33319522D01*
X205710141Y-33319522D02*
X205710141Y-33129046D01*
X205710141Y-33129046D02*
X205662522Y-33033808D01*
X205662522Y-33033808D02*
X205614902Y-32986189D01*
X205614902Y-32986189D02*
X205519664Y-32938570D01*
X205519664Y-32938570D02*
X205281569Y-32938570D01*
X205281569Y-32938570D02*
X205186331Y-32986189D01*
X205186331Y-32986189D02*
X205138712Y-33033808D01*
X205138712Y-33033808D02*
X205091093Y-33129046D01*
X205091093Y-33129046D02*
X205091093Y-33319522D01*
X205091093Y-33319522D02*
X205138712Y-33414760D01*
X205138712Y-33414760D02*
X205186331Y-33462379D01*
X205186331Y-33462379D02*
X205281569Y-33509998D01*
X205710141Y-32509998D02*
X204710141Y-32509998D01*
X204710141Y-32509998D02*
X204710141Y-32129046D01*
X204710141Y-32129046D02*
X204757760Y-32033808D01*
X204757760Y-32033808D02*
X204805379Y-31986189D01*
X204805379Y-31986189D02*
X204900617Y-31938570D01*
X204900617Y-31938570D02*
X205043474Y-31938570D01*
X205043474Y-31938570D02*
X205138712Y-31986189D01*
X205138712Y-31986189D02*
X205186331Y-32033808D01*
X205186331Y-32033808D02*
X205233950Y-32129046D01*
X205233950Y-32129046D02*
X205233950Y-32509998D01*
X199610141Y-43843333D02*
X200324426Y-43843333D01*
X200324426Y-43843333D02*
X200467283Y-43890952D01*
X200467283Y-43890952D02*
X200562522Y-43986190D01*
X200562522Y-43986190D02*
X200610141Y-44129047D01*
X200610141Y-44129047D02*
X200610141Y-44224285D01*
X199943474Y-42938571D02*
X200610141Y-42938571D01*
X199562522Y-43176666D02*
X200276807Y-43414761D01*
X200276807Y-43414761D02*
X200276807Y-42795714D01*
X166377760Y-79914285D02*
X166330141Y-80009523D01*
X166330141Y-80009523D02*
X166330141Y-80152380D01*
X166330141Y-80152380D02*
X166377760Y-80295237D01*
X166377760Y-80295237D02*
X166472998Y-80390475D01*
X166472998Y-80390475D02*
X166568236Y-80438094D01*
X166568236Y-80438094D02*
X166758712Y-80485713D01*
X166758712Y-80485713D02*
X166901569Y-80485713D01*
X166901569Y-80485713D02*
X167092045Y-80438094D01*
X167092045Y-80438094D02*
X167187283Y-80390475D01*
X167187283Y-80390475D02*
X167282522Y-80295237D01*
X167282522Y-80295237D02*
X167330141Y-80152380D01*
X167330141Y-80152380D02*
X167330141Y-80057142D01*
X167330141Y-80057142D02*
X167282522Y-79914285D01*
X167282522Y-79914285D02*
X167234902Y-79866666D01*
X167234902Y-79866666D02*
X166901569Y-79866666D01*
X166901569Y-79866666D02*
X166901569Y-80057142D01*
X167330141Y-79438094D02*
X166330141Y-79438094D01*
X166330141Y-79438094D02*
X166330141Y-79057142D01*
X166330141Y-79057142D02*
X166377760Y-78961904D01*
X166377760Y-78961904D02*
X166425379Y-78914285D01*
X166425379Y-78914285D02*
X166520617Y-78866666D01*
X166520617Y-78866666D02*
X166663474Y-78866666D01*
X166663474Y-78866666D02*
X166758712Y-78914285D01*
X166758712Y-78914285D02*
X166806331Y-78961904D01*
X166806331Y-78961904D02*
X166853950Y-79057142D01*
X166853950Y-79057142D02*
X166853950Y-79438094D01*
X167282522Y-78485713D02*
X167330141Y-78342856D01*
X167330141Y-78342856D02*
X167330141Y-78104761D01*
X167330141Y-78104761D02*
X167282522Y-78009523D01*
X167282522Y-78009523D02*
X167234902Y-77961904D01*
X167234902Y-77961904D02*
X167139664Y-77914285D01*
X167139664Y-77914285D02*
X167044426Y-77914285D01*
X167044426Y-77914285D02*
X166949188Y-77961904D01*
X166949188Y-77961904D02*
X166901569Y-78009523D01*
X166901569Y-78009523D02*
X166853950Y-78104761D01*
X166853950Y-78104761D02*
X166806331Y-78295237D01*
X166806331Y-78295237D02*
X166758712Y-78390475D01*
X166758712Y-78390475D02*
X166711093Y-78438094D01*
X166711093Y-78438094D02*
X166615855Y-78485713D01*
X166615855Y-78485713D02*
X166520617Y-78485713D01*
X166520617Y-78485713D02*
X166425379Y-78438094D01*
X166425379Y-78438094D02*
X166377760Y-78390475D01*
X166377760Y-78390475D02*
X166330141Y-78295237D01*
X166330141Y-78295237D02*
X166330141Y-78057142D01*
X166330141Y-78057142D02*
X166377760Y-77914285D01*
X160351988Y-78654819D02*
X160351988Y-79369104D01*
X160351988Y-79369104D02*
X160304369Y-79511961D01*
X160304369Y-79511961D02*
X160209131Y-79607200D01*
X160209131Y-79607200D02*
X160066274Y-79654819D01*
X160066274Y-79654819D02*
X159971036Y-79654819D01*
X160780560Y-78750057D02*
X160828179Y-78702438D01*
X160828179Y-78702438D02*
X160923417Y-78654819D01*
X160923417Y-78654819D02*
X161161512Y-78654819D01*
X161161512Y-78654819D02*
X161256750Y-78702438D01*
X161256750Y-78702438D02*
X161304369Y-78750057D01*
X161304369Y-78750057D02*
X161351988Y-78845295D01*
X161351988Y-78845295D02*
X161351988Y-78940533D01*
X161351988Y-78940533D02*
X161304369Y-79083390D01*
X161304369Y-79083390D02*
X160732941Y-79654819D01*
X160732941Y-79654819D02*
X161351988Y-79654819D01*
X180481988Y-78854819D02*
X180481988Y-79569104D01*
X180481988Y-79569104D02*
X180434369Y-79711961D01*
X180434369Y-79711961D02*
X180339131Y-79807200D01*
X180339131Y-79807200D02*
X180196274Y-79854819D01*
X180196274Y-79854819D02*
X180101036Y-79854819D01*
X181481988Y-79854819D02*
X180910560Y-79854819D01*
X181196274Y-79854819D02*
X181196274Y-78854819D01*
X181196274Y-78854819D02*
X181101036Y-78997676D01*
X181101036Y-78997676D02*
X181005798Y-79092914D01*
X181005798Y-79092914D02*
X180910560Y-79140533D01*
X186060141Y-61442857D02*
X186060141Y-62014285D01*
X186060141Y-61728571D02*
X185060141Y-61728571D01*
X185060141Y-61728571D02*
X185202998Y-61823809D01*
X185202998Y-61823809D02*
X185298236Y-61919047D01*
X185298236Y-61919047D02*
X185345855Y-62014285D01*
X185060141Y-60823809D02*
X185060141Y-60728571D01*
X185060141Y-60728571D02*
X185107760Y-60633333D01*
X185107760Y-60633333D02*
X185155379Y-60585714D01*
X185155379Y-60585714D02*
X185250617Y-60538095D01*
X185250617Y-60538095D02*
X185441093Y-60490476D01*
X185441093Y-60490476D02*
X185679188Y-60490476D01*
X185679188Y-60490476D02*
X185869664Y-60538095D01*
X185869664Y-60538095D02*
X185964902Y-60585714D01*
X185964902Y-60585714D02*
X186012522Y-60633333D01*
X186012522Y-60633333D02*
X186060141Y-60728571D01*
X186060141Y-60728571D02*
X186060141Y-60823809D01*
X186060141Y-60823809D02*
X186012522Y-60919047D01*
X186012522Y-60919047D02*
X185964902Y-60966666D01*
X185964902Y-60966666D02*
X185869664Y-61014285D01*
X185869664Y-61014285D02*
X185679188Y-61061904D01*
X185679188Y-61061904D02*
X185441093Y-61061904D01*
X185441093Y-61061904D02*
X185250617Y-61014285D01*
X185250617Y-61014285D02*
X185155379Y-60966666D01*
X185155379Y-60966666D02*
X185107760Y-60919047D01*
X185107760Y-60919047D02*
X185060141Y-60823809D01*
X185393474Y-60061904D02*
X186060141Y-60061904D01*
X185488712Y-60061904D02*
X185441093Y-60014285D01*
X185441093Y-60014285D02*
X185393474Y-59919047D01*
X185393474Y-59919047D02*
X185393474Y-59776190D01*
X185393474Y-59776190D02*
X185441093Y-59680952D01*
X185441093Y-59680952D02*
X185536331Y-59633333D01*
X185536331Y-59633333D02*
X186060141Y-59633333D01*
D11*
X184042986Y-61314285D02*
X184081082Y-61352381D01*
X184081082Y-61352381D02*
X184119177Y-61466666D01*
X184119177Y-61466666D02*
X184119177Y-61542857D01*
X184119177Y-61542857D02*
X184081082Y-61657143D01*
X184081082Y-61657143D02*
X184004891Y-61733333D01*
X184004891Y-61733333D02*
X183928701Y-61771428D01*
X183928701Y-61771428D02*
X183776320Y-61809524D01*
X183776320Y-61809524D02*
X183662034Y-61809524D01*
X183662034Y-61809524D02*
X183509653Y-61771428D01*
X183509653Y-61771428D02*
X183433462Y-61733333D01*
X183433462Y-61733333D02*
X183357272Y-61657143D01*
X183357272Y-61657143D02*
X183319177Y-61542857D01*
X183319177Y-61542857D02*
X183319177Y-61466666D01*
X183319177Y-61466666D02*
X183357272Y-61352381D01*
X183357272Y-61352381D02*
X183395367Y-61314285D01*
X184119177Y-60552381D02*
X184119177Y-61009524D01*
X184119177Y-60780952D02*
X183319177Y-60780952D01*
X183319177Y-60780952D02*
X183433462Y-60857143D01*
X183433462Y-60857143D02*
X183509653Y-60933333D01*
X183509653Y-60933333D02*
X183547748Y-61009524D01*
X183395367Y-60247619D02*
X183357272Y-60209523D01*
X183357272Y-60209523D02*
X183319177Y-60133333D01*
X183319177Y-60133333D02*
X183319177Y-59942857D01*
X183319177Y-59942857D02*
X183357272Y-59866666D01*
X183357272Y-59866666D02*
X183395367Y-59828571D01*
X183395367Y-59828571D02*
X183471558Y-59790476D01*
X183471558Y-59790476D02*
X183547748Y-59790476D01*
X183547748Y-59790476D02*
X183662034Y-59828571D01*
X183662034Y-59828571D02*
X184119177Y-60285714D01*
X184119177Y-60285714D02*
X184119177Y-59790476D01*
D10*
X166387464Y-64554819D02*
X165816036Y-64554819D01*
X166101750Y-64554819D02*
X166101750Y-63554819D01*
X166101750Y-63554819D02*
X166006512Y-63697676D01*
X166006512Y-63697676D02*
X165911274Y-63792914D01*
X165911274Y-63792914D02*
X165816036Y-63840533D01*
X167006512Y-63554819D02*
X167101750Y-63554819D01*
X167101750Y-63554819D02*
X167196988Y-63602438D01*
X167196988Y-63602438D02*
X167244607Y-63650057D01*
X167244607Y-63650057D02*
X167292226Y-63745295D01*
X167292226Y-63745295D02*
X167339845Y-63935771D01*
X167339845Y-63935771D02*
X167339845Y-64173866D01*
X167339845Y-64173866D02*
X167292226Y-64364342D01*
X167292226Y-64364342D02*
X167244607Y-64459580D01*
X167244607Y-64459580D02*
X167196988Y-64507200D01*
X167196988Y-64507200D02*
X167101750Y-64554819D01*
X167101750Y-64554819D02*
X167006512Y-64554819D01*
X167006512Y-64554819D02*
X166911274Y-64507200D01*
X166911274Y-64507200D02*
X166863655Y-64459580D01*
X166863655Y-64459580D02*
X166816036Y-64364342D01*
X166816036Y-64364342D02*
X166768417Y-64173866D01*
X166768417Y-64173866D02*
X166768417Y-63935771D01*
X166768417Y-63935771D02*
X166816036Y-63745295D01*
X166816036Y-63745295D02*
X166863655Y-63650057D01*
X166863655Y-63650057D02*
X166911274Y-63602438D01*
X166911274Y-63602438D02*
X167006512Y-63554819D01*
X168196988Y-63888152D02*
X168196988Y-64554819D01*
X167768417Y-63888152D02*
X167768417Y-64411961D01*
X167768417Y-64411961D02*
X167816036Y-64507200D01*
X167816036Y-64507200D02*
X167911274Y-64554819D01*
X167911274Y-64554819D02*
X168054131Y-64554819D01*
X168054131Y-64554819D02*
X168149369Y-64507200D01*
X168149369Y-64507200D02*
X168196988Y-64459580D01*
D11*
X166516036Y-62537664D02*
X166477940Y-62575760D01*
X166477940Y-62575760D02*
X166363655Y-62613855D01*
X166363655Y-62613855D02*
X166287464Y-62613855D01*
X166287464Y-62613855D02*
X166173178Y-62575760D01*
X166173178Y-62575760D02*
X166096988Y-62499569D01*
X166096988Y-62499569D02*
X166058893Y-62423379D01*
X166058893Y-62423379D02*
X166020797Y-62270998D01*
X166020797Y-62270998D02*
X166020797Y-62156712D01*
X166020797Y-62156712D02*
X166058893Y-62004331D01*
X166058893Y-62004331D02*
X166096988Y-61928140D01*
X166096988Y-61928140D02*
X166173178Y-61851950D01*
X166173178Y-61851950D02*
X166287464Y-61813855D01*
X166287464Y-61813855D02*
X166363655Y-61813855D01*
X166363655Y-61813855D02*
X166477940Y-61851950D01*
X166477940Y-61851950D02*
X166516036Y-61890045D01*
X167277940Y-62613855D02*
X166820797Y-62613855D01*
X167049369Y-62613855D02*
X167049369Y-61813855D01*
X167049369Y-61813855D02*
X166973178Y-61928140D01*
X166973178Y-61928140D02*
X166896988Y-62004331D01*
X166896988Y-62004331D02*
X166820797Y-62042426D01*
X168039845Y-62613855D02*
X167582702Y-62613855D01*
X167811274Y-62613855D02*
X167811274Y-61813855D01*
X167811274Y-61813855D02*
X167735083Y-61928140D01*
X167735083Y-61928140D02*
X167658893Y-62004331D01*
X167658893Y-62004331D02*
X167582702Y-62042426D01*
D10*
X170739846Y-63554819D02*
X170835084Y-63554819D01*
X170835084Y-63554819D02*
X170930322Y-63602438D01*
X170930322Y-63602438D02*
X170977941Y-63650057D01*
X170977941Y-63650057D02*
X171025560Y-63745295D01*
X171025560Y-63745295D02*
X171073179Y-63935771D01*
X171073179Y-63935771D02*
X171073179Y-64173866D01*
X171073179Y-64173866D02*
X171025560Y-64364342D01*
X171025560Y-64364342D02*
X170977941Y-64459580D01*
X170977941Y-64459580D02*
X170930322Y-64507200D01*
X170930322Y-64507200D02*
X170835084Y-64554819D01*
X170835084Y-64554819D02*
X170739846Y-64554819D01*
X170739846Y-64554819D02*
X170644608Y-64507200D01*
X170644608Y-64507200D02*
X170596989Y-64459580D01*
X170596989Y-64459580D02*
X170549370Y-64364342D01*
X170549370Y-64364342D02*
X170501751Y-64173866D01*
X170501751Y-64173866D02*
X170501751Y-63935771D01*
X170501751Y-63935771D02*
X170549370Y-63745295D01*
X170549370Y-63745295D02*
X170596989Y-63650057D01*
X170596989Y-63650057D02*
X170644608Y-63602438D01*
X170644608Y-63602438D02*
X170739846Y-63554819D01*
X171501751Y-64459580D02*
X171549370Y-64507200D01*
X171549370Y-64507200D02*
X171501751Y-64554819D01*
X171501751Y-64554819D02*
X171454132Y-64507200D01*
X171454132Y-64507200D02*
X171501751Y-64459580D01*
X171501751Y-64459580D02*
X171501751Y-64554819D01*
X172406512Y-63888152D02*
X172406512Y-64554819D01*
X172168417Y-63507200D02*
X171930322Y-64221485D01*
X171930322Y-64221485D02*
X172549369Y-64221485D01*
X172835084Y-63554819D02*
X173501750Y-63554819D01*
X173501750Y-63554819D02*
X173073179Y-64554819D01*
X174311274Y-63888152D02*
X174311274Y-64554819D01*
X173882703Y-63888152D02*
X173882703Y-64411961D01*
X173882703Y-64411961D02*
X173930322Y-64507200D01*
X173930322Y-64507200D02*
X174025560Y-64554819D01*
X174025560Y-64554819D02*
X174168417Y-64554819D01*
X174168417Y-64554819D02*
X174263655Y-64507200D01*
X174263655Y-64507200D02*
X174311274Y-64459580D01*
D11*
X171916036Y-62537664D02*
X171877940Y-62575760D01*
X171877940Y-62575760D02*
X171763655Y-62613855D01*
X171763655Y-62613855D02*
X171687464Y-62613855D01*
X171687464Y-62613855D02*
X171573178Y-62575760D01*
X171573178Y-62575760D02*
X171496988Y-62499569D01*
X171496988Y-62499569D02*
X171458893Y-62423379D01*
X171458893Y-62423379D02*
X171420797Y-62270998D01*
X171420797Y-62270998D02*
X171420797Y-62156712D01*
X171420797Y-62156712D02*
X171458893Y-62004331D01*
X171458893Y-62004331D02*
X171496988Y-61928140D01*
X171496988Y-61928140D02*
X171573178Y-61851950D01*
X171573178Y-61851950D02*
X171687464Y-61813855D01*
X171687464Y-61813855D02*
X171763655Y-61813855D01*
X171763655Y-61813855D02*
X171877940Y-61851950D01*
X171877940Y-61851950D02*
X171916036Y-61890045D01*
X172677940Y-62613855D02*
X172220797Y-62613855D01*
X172449369Y-62613855D02*
X172449369Y-61813855D01*
X172449369Y-61813855D02*
X172373178Y-61928140D01*
X172373178Y-61928140D02*
X172296988Y-62004331D01*
X172296988Y-62004331D02*
X172220797Y-62042426D01*
X173173179Y-61813855D02*
X173249369Y-61813855D01*
X173249369Y-61813855D02*
X173325560Y-61851950D01*
X173325560Y-61851950D02*
X173363655Y-61890045D01*
X173363655Y-61890045D02*
X173401750Y-61966236D01*
X173401750Y-61966236D02*
X173439845Y-62118617D01*
X173439845Y-62118617D02*
X173439845Y-62309093D01*
X173439845Y-62309093D02*
X173401750Y-62461474D01*
X173401750Y-62461474D02*
X173363655Y-62537664D01*
X173363655Y-62537664D02*
X173325560Y-62575760D01*
X173325560Y-62575760D02*
X173249369Y-62613855D01*
X173249369Y-62613855D02*
X173173179Y-62613855D01*
X173173179Y-62613855D02*
X173096988Y-62575760D01*
X173096988Y-62575760D02*
X173058893Y-62537664D01*
X173058893Y-62537664D02*
X173020798Y-62461474D01*
X173020798Y-62461474D02*
X172982702Y-62309093D01*
X172982702Y-62309093D02*
X172982702Y-62118617D01*
X172982702Y-62118617D02*
X173020798Y-61966236D01*
X173020798Y-61966236D02*
X173058893Y-61890045D01*
X173058893Y-61890045D02*
X173096988Y-61851950D01*
X173096988Y-61851950D02*
X173173179Y-61813855D01*
D10*
X177958893Y-56454819D02*
X177387465Y-56454819D01*
X177673179Y-56454819D02*
X177673179Y-55454819D01*
X177673179Y-55454819D02*
X177577941Y-55597676D01*
X177577941Y-55597676D02*
X177482703Y-55692914D01*
X177482703Y-55692914D02*
X177387465Y-55740533D01*
X178530322Y-55883390D02*
X178435084Y-55835771D01*
X178435084Y-55835771D02*
X178387465Y-55788152D01*
X178387465Y-55788152D02*
X178339846Y-55692914D01*
X178339846Y-55692914D02*
X178339846Y-55645295D01*
X178339846Y-55645295D02*
X178387465Y-55550057D01*
X178387465Y-55550057D02*
X178435084Y-55502438D01*
X178435084Y-55502438D02*
X178530322Y-55454819D01*
X178530322Y-55454819D02*
X178720798Y-55454819D01*
X178720798Y-55454819D02*
X178816036Y-55502438D01*
X178816036Y-55502438D02*
X178863655Y-55550057D01*
X178863655Y-55550057D02*
X178911274Y-55645295D01*
X178911274Y-55645295D02*
X178911274Y-55692914D01*
X178911274Y-55692914D02*
X178863655Y-55788152D01*
X178863655Y-55788152D02*
X178816036Y-55835771D01*
X178816036Y-55835771D02*
X178720798Y-55883390D01*
X178720798Y-55883390D02*
X178530322Y-55883390D01*
X178530322Y-55883390D02*
X178435084Y-55931009D01*
X178435084Y-55931009D02*
X178387465Y-55978628D01*
X178387465Y-55978628D02*
X178339846Y-56073866D01*
X178339846Y-56073866D02*
X178339846Y-56264342D01*
X178339846Y-56264342D02*
X178387465Y-56359580D01*
X178387465Y-56359580D02*
X178435084Y-56407200D01*
X178435084Y-56407200D02*
X178530322Y-56454819D01*
X178530322Y-56454819D02*
X178720798Y-56454819D01*
X178720798Y-56454819D02*
X178816036Y-56407200D01*
X178816036Y-56407200D02*
X178863655Y-56359580D01*
X178863655Y-56359580D02*
X178911274Y-56264342D01*
X178911274Y-56264342D02*
X178911274Y-56073866D01*
X178911274Y-56073866D02*
X178863655Y-55978628D01*
X178863655Y-55978628D02*
X178816036Y-55931009D01*
X178816036Y-55931009D02*
X178720798Y-55883390D01*
X179339846Y-55788152D02*
X179339846Y-56788152D01*
X179339846Y-55835771D02*
X179435084Y-55788152D01*
X179435084Y-55788152D02*
X179625560Y-55788152D01*
X179625560Y-55788152D02*
X179720798Y-55835771D01*
X179720798Y-55835771D02*
X179768417Y-55883390D01*
X179768417Y-55883390D02*
X179816036Y-55978628D01*
X179816036Y-55978628D02*
X179816036Y-56264342D01*
X179816036Y-56264342D02*
X179768417Y-56359580D01*
X179768417Y-56359580D02*
X179720798Y-56407200D01*
X179720798Y-56407200D02*
X179625560Y-56454819D01*
X179625560Y-56454819D02*
X179435084Y-56454819D01*
X179435084Y-56454819D02*
X179339846Y-56407200D01*
X180577941Y-55931009D02*
X180244608Y-55931009D01*
X180244608Y-56454819D02*
X180244608Y-55454819D01*
X180244608Y-55454819D02*
X180720798Y-55454819D01*
D11*
X178896989Y-58137664D02*
X178858893Y-58175760D01*
X178858893Y-58175760D02*
X178744608Y-58213855D01*
X178744608Y-58213855D02*
X178668417Y-58213855D01*
X178668417Y-58213855D02*
X178554131Y-58175760D01*
X178554131Y-58175760D02*
X178477941Y-58099569D01*
X178477941Y-58099569D02*
X178439846Y-58023379D01*
X178439846Y-58023379D02*
X178401750Y-57870998D01*
X178401750Y-57870998D02*
X178401750Y-57756712D01*
X178401750Y-57756712D02*
X178439846Y-57604331D01*
X178439846Y-57604331D02*
X178477941Y-57528140D01*
X178477941Y-57528140D02*
X178554131Y-57451950D01*
X178554131Y-57451950D02*
X178668417Y-57413855D01*
X178668417Y-57413855D02*
X178744608Y-57413855D01*
X178744608Y-57413855D02*
X178858893Y-57451950D01*
X178858893Y-57451950D02*
X178896989Y-57490045D01*
X179354131Y-57756712D02*
X179277941Y-57718617D01*
X179277941Y-57718617D02*
X179239846Y-57680521D01*
X179239846Y-57680521D02*
X179201750Y-57604331D01*
X179201750Y-57604331D02*
X179201750Y-57566236D01*
X179201750Y-57566236D02*
X179239846Y-57490045D01*
X179239846Y-57490045D02*
X179277941Y-57451950D01*
X179277941Y-57451950D02*
X179354131Y-57413855D01*
X179354131Y-57413855D02*
X179506512Y-57413855D01*
X179506512Y-57413855D02*
X179582703Y-57451950D01*
X179582703Y-57451950D02*
X179620798Y-57490045D01*
X179620798Y-57490045D02*
X179658893Y-57566236D01*
X179658893Y-57566236D02*
X179658893Y-57604331D01*
X179658893Y-57604331D02*
X179620798Y-57680521D01*
X179620798Y-57680521D02*
X179582703Y-57718617D01*
X179582703Y-57718617D02*
X179506512Y-57756712D01*
X179506512Y-57756712D02*
X179354131Y-57756712D01*
X179354131Y-57756712D02*
X179277941Y-57794807D01*
X179277941Y-57794807D02*
X179239846Y-57832902D01*
X179239846Y-57832902D02*
X179201750Y-57909093D01*
X179201750Y-57909093D02*
X179201750Y-58061474D01*
X179201750Y-58061474D02*
X179239846Y-58137664D01*
X179239846Y-58137664D02*
X179277941Y-58175760D01*
X179277941Y-58175760D02*
X179354131Y-58213855D01*
X179354131Y-58213855D02*
X179506512Y-58213855D01*
X179506512Y-58213855D02*
X179582703Y-58175760D01*
X179582703Y-58175760D02*
X179620798Y-58137664D01*
X179620798Y-58137664D02*
X179658893Y-58061474D01*
X179658893Y-58061474D02*
X179658893Y-57909093D01*
X179658893Y-57909093D02*
X179620798Y-57832902D01*
X179620798Y-57832902D02*
X179582703Y-57794807D01*
X179582703Y-57794807D02*
X179506512Y-57756712D01*
D10*
X185935141Y-54121428D02*
X185935141Y-54692856D01*
X185935141Y-54407142D02*
X184935141Y-54407142D01*
X184935141Y-54407142D02*
X185077998Y-54502380D01*
X185077998Y-54502380D02*
X185173236Y-54597618D01*
X185173236Y-54597618D02*
X185220855Y-54692856D01*
X185363712Y-53549999D02*
X185316093Y-53645237D01*
X185316093Y-53645237D02*
X185268474Y-53692856D01*
X185268474Y-53692856D02*
X185173236Y-53740475D01*
X185173236Y-53740475D02*
X185125617Y-53740475D01*
X185125617Y-53740475D02*
X185030379Y-53692856D01*
X185030379Y-53692856D02*
X184982760Y-53645237D01*
X184982760Y-53645237D02*
X184935141Y-53549999D01*
X184935141Y-53549999D02*
X184935141Y-53359523D01*
X184935141Y-53359523D02*
X184982760Y-53264285D01*
X184982760Y-53264285D02*
X185030379Y-53216666D01*
X185030379Y-53216666D02*
X185125617Y-53169047D01*
X185125617Y-53169047D02*
X185173236Y-53169047D01*
X185173236Y-53169047D02*
X185268474Y-53216666D01*
X185268474Y-53216666D02*
X185316093Y-53264285D01*
X185316093Y-53264285D02*
X185363712Y-53359523D01*
X185363712Y-53359523D02*
X185363712Y-53549999D01*
X185363712Y-53549999D02*
X185411331Y-53645237D01*
X185411331Y-53645237D02*
X185458950Y-53692856D01*
X185458950Y-53692856D02*
X185554188Y-53740475D01*
X185554188Y-53740475D02*
X185744664Y-53740475D01*
X185744664Y-53740475D02*
X185839902Y-53692856D01*
X185839902Y-53692856D02*
X185887522Y-53645237D01*
X185887522Y-53645237D02*
X185935141Y-53549999D01*
X185935141Y-53549999D02*
X185935141Y-53359523D01*
X185935141Y-53359523D02*
X185887522Y-53264285D01*
X185887522Y-53264285D02*
X185839902Y-53216666D01*
X185839902Y-53216666D02*
X185744664Y-53169047D01*
X185744664Y-53169047D02*
X185554188Y-53169047D01*
X185554188Y-53169047D02*
X185458950Y-53216666D01*
X185458950Y-53216666D02*
X185411331Y-53264285D01*
X185411331Y-53264285D02*
X185363712Y-53359523D01*
X185268474Y-52740475D02*
X186268474Y-52740475D01*
X185316093Y-52740475D02*
X185268474Y-52645237D01*
X185268474Y-52645237D02*
X185268474Y-52454761D01*
X185268474Y-52454761D02*
X185316093Y-52359523D01*
X185316093Y-52359523D02*
X185363712Y-52311904D01*
X185363712Y-52311904D02*
X185458950Y-52264285D01*
X185458950Y-52264285D02*
X185744664Y-52264285D01*
X185744664Y-52264285D02*
X185839902Y-52311904D01*
X185839902Y-52311904D02*
X185887522Y-52359523D01*
X185887522Y-52359523D02*
X185935141Y-52454761D01*
X185935141Y-52454761D02*
X185935141Y-52645237D01*
X185935141Y-52645237D02*
X185887522Y-52740475D01*
X185411331Y-51502380D02*
X185411331Y-51835713D01*
X185935141Y-51835713D02*
X184935141Y-51835713D01*
X184935141Y-51835713D02*
X184935141Y-51359523D01*
D11*
X183917986Y-55583332D02*
X183956082Y-55621428D01*
X183956082Y-55621428D02*
X183994177Y-55735713D01*
X183994177Y-55735713D02*
X183994177Y-55811904D01*
X183994177Y-55811904D02*
X183956082Y-55926190D01*
X183956082Y-55926190D02*
X183879891Y-56002380D01*
X183879891Y-56002380D02*
X183803701Y-56040475D01*
X183803701Y-56040475D02*
X183651320Y-56078571D01*
X183651320Y-56078571D02*
X183537034Y-56078571D01*
X183537034Y-56078571D02*
X183384653Y-56040475D01*
X183384653Y-56040475D02*
X183308462Y-56002380D01*
X183308462Y-56002380D02*
X183232272Y-55926190D01*
X183232272Y-55926190D02*
X183194177Y-55811904D01*
X183194177Y-55811904D02*
X183194177Y-55735713D01*
X183194177Y-55735713D02*
X183232272Y-55621428D01*
X183232272Y-55621428D02*
X183270367Y-55583332D01*
X183194177Y-55316666D02*
X183194177Y-54783332D01*
X183194177Y-54783332D02*
X183994177Y-55126190D01*
D10*
X141060141Y-70166666D02*
X141060141Y-70738094D01*
X141060141Y-70452380D02*
X140060141Y-70452380D01*
X140060141Y-70452380D02*
X140202998Y-70547618D01*
X140202998Y-70547618D02*
X140298236Y-70642856D01*
X140298236Y-70642856D02*
X140345855Y-70738094D01*
X140393474Y-69309523D02*
X141060141Y-69309523D01*
X140393474Y-69738094D02*
X140917283Y-69738094D01*
X140917283Y-69738094D02*
X141012522Y-69690475D01*
X141012522Y-69690475D02*
X141060141Y-69595237D01*
X141060141Y-69595237D02*
X141060141Y-69452380D01*
X141060141Y-69452380D02*
X141012522Y-69357142D01*
X141012522Y-69357142D02*
X140964902Y-69309523D01*
D11*
X139042986Y-70133332D02*
X139081082Y-70171428D01*
X139081082Y-70171428D02*
X139119177Y-70285713D01*
X139119177Y-70285713D02*
X139119177Y-70361904D01*
X139119177Y-70361904D02*
X139081082Y-70476190D01*
X139081082Y-70476190D02*
X139004891Y-70552380D01*
X139004891Y-70552380D02*
X138928701Y-70590475D01*
X138928701Y-70590475D02*
X138776320Y-70628571D01*
X138776320Y-70628571D02*
X138662034Y-70628571D01*
X138662034Y-70628571D02*
X138509653Y-70590475D01*
X138509653Y-70590475D02*
X138433462Y-70552380D01*
X138433462Y-70552380D02*
X138357272Y-70476190D01*
X138357272Y-70476190D02*
X138319177Y-70361904D01*
X138319177Y-70361904D02*
X138319177Y-70285713D01*
X138319177Y-70285713D02*
X138357272Y-70171428D01*
X138357272Y-70171428D02*
X138395367Y-70133332D01*
X138319177Y-69409523D02*
X138319177Y-69790475D01*
X138319177Y-69790475D02*
X138700129Y-69828571D01*
X138700129Y-69828571D02*
X138662034Y-69790475D01*
X138662034Y-69790475D02*
X138623939Y-69714285D01*
X138623939Y-69714285D02*
X138623939Y-69523809D01*
X138623939Y-69523809D02*
X138662034Y-69447618D01*
X138662034Y-69447618D02*
X138700129Y-69409523D01*
X138700129Y-69409523D02*
X138776320Y-69371428D01*
X138776320Y-69371428D02*
X138966796Y-69371428D01*
X138966796Y-69371428D02*
X139042986Y-69409523D01*
X139042986Y-69409523D02*
X139081082Y-69447618D01*
X139081082Y-69447618D02*
X139119177Y-69523809D01*
X139119177Y-69523809D02*
X139119177Y-69714285D01*
X139119177Y-69714285D02*
X139081082Y-69790475D01*
X139081082Y-69790475D02*
X139042986Y-69828571D01*
D10*
X151060141Y-70166666D02*
X151060141Y-70738094D01*
X151060141Y-70452380D02*
X150060141Y-70452380D01*
X150060141Y-70452380D02*
X150202998Y-70547618D01*
X150202998Y-70547618D02*
X150298236Y-70642856D01*
X150298236Y-70642856D02*
X150345855Y-70738094D01*
X150393474Y-69309523D02*
X151060141Y-69309523D01*
X150393474Y-69738094D02*
X150917283Y-69738094D01*
X150917283Y-69738094D02*
X151012522Y-69690475D01*
X151012522Y-69690475D02*
X151060141Y-69595237D01*
X151060141Y-69595237D02*
X151060141Y-69452380D01*
X151060141Y-69452380D02*
X151012522Y-69357142D01*
X151012522Y-69357142D02*
X150964902Y-69309523D01*
D11*
X149042986Y-70133332D02*
X149081082Y-70171428D01*
X149081082Y-70171428D02*
X149119177Y-70285713D01*
X149119177Y-70285713D02*
X149119177Y-70361904D01*
X149119177Y-70361904D02*
X149081082Y-70476190D01*
X149081082Y-70476190D02*
X149004891Y-70552380D01*
X149004891Y-70552380D02*
X148928701Y-70590475D01*
X148928701Y-70590475D02*
X148776320Y-70628571D01*
X148776320Y-70628571D02*
X148662034Y-70628571D01*
X148662034Y-70628571D02*
X148509653Y-70590475D01*
X148509653Y-70590475D02*
X148433462Y-70552380D01*
X148433462Y-70552380D02*
X148357272Y-70476190D01*
X148357272Y-70476190D02*
X148319177Y-70361904D01*
X148319177Y-70361904D02*
X148319177Y-70285713D01*
X148319177Y-70285713D02*
X148357272Y-70171428D01*
X148357272Y-70171428D02*
X148395367Y-70133332D01*
X148585843Y-69447618D02*
X149119177Y-69447618D01*
X148281082Y-69638094D02*
X148852510Y-69828571D01*
X148852510Y-69828571D02*
X148852510Y-69333332D01*
D10*
X195178536Y-51217319D02*
X195273774Y-51217319D01*
X195273774Y-51217319D02*
X195369012Y-51264938D01*
X195369012Y-51264938D02*
X195416631Y-51312557D01*
X195416631Y-51312557D02*
X195464250Y-51407795D01*
X195464250Y-51407795D02*
X195511869Y-51598271D01*
X195511869Y-51598271D02*
X195511869Y-51836366D01*
X195511869Y-51836366D02*
X195464250Y-52026842D01*
X195464250Y-52026842D02*
X195416631Y-52122080D01*
X195416631Y-52122080D02*
X195369012Y-52169700D01*
X195369012Y-52169700D02*
X195273774Y-52217319D01*
X195273774Y-52217319D02*
X195178536Y-52217319D01*
X195178536Y-52217319D02*
X195083298Y-52169700D01*
X195083298Y-52169700D02*
X195035679Y-52122080D01*
X195035679Y-52122080D02*
X194988060Y-52026842D01*
X194988060Y-52026842D02*
X194940441Y-51836366D01*
X194940441Y-51836366D02*
X194940441Y-51598271D01*
X194940441Y-51598271D02*
X194988060Y-51407795D01*
X194988060Y-51407795D02*
X195035679Y-51312557D01*
X195035679Y-51312557D02*
X195083298Y-51264938D01*
X195083298Y-51264938D02*
X195178536Y-51217319D01*
X195940441Y-52122080D02*
X195988060Y-52169700D01*
X195988060Y-52169700D02*
X195940441Y-52217319D01*
X195940441Y-52217319D02*
X195892822Y-52169700D01*
X195892822Y-52169700D02*
X195940441Y-52122080D01*
X195940441Y-52122080D02*
X195940441Y-52217319D01*
X196940440Y-52217319D02*
X196369012Y-52217319D01*
X196654726Y-52217319D02*
X196654726Y-51217319D01*
X196654726Y-51217319D02*
X196559488Y-51360176D01*
X196559488Y-51360176D02*
X196464250Y-51455414D01*
X196464250Y-51455414D02*
X196369012Y-51503033D01*
X197797583Y-51550652D02*
X197797583Y-52217319D01*
X197369012Y-51550652D02*
X197369012Y-52074461D01*
X197369012Y-52074461D02*
X197416631Y-52169700D01*
X197416631Y-52169700D02*
X197511869Y-52217319D01*
X197511869Y-52217319D02*
X197654726Y-52217319D01*
X197654726Y-52217319D02*
X197749964Y-52169700D01*
X197749964Y-52169700D02*
X197797583Y-52122080D01*
D11*
X196259489Y-53900164D02*
X196221393Y-53938260D01*
X196221393Y-53938260D02*
X196107108Y-53976355D01*
X196107108Y-53976355D02*
X196030917Y-53976355D01*
X196030917Y-53976355D02*
X195916631Y-53938260D01*
X195916631Y-53938260D02*
X195840441Y-53862069D01*
X195840441Y-53862069D02*
X195802346Y-53785879D01*
X195802346Y-53785879D02*
X195764250Y-53633498D01*
X195764250Y-53633498D02*
X195764250Y-53519212D01*
X195764250Y-53519212D02*
X195802346Y-53366831D01*
X195802346Y-53366831D02*
X195840441Y-53290640D01*
X195840441Y-53290640D02*
X195916631Y-53214450D01*
X195916631Y-53214450D02*
X196030917Y-53176355D01*
X196030917Y-53176355D02*
X196107108Y-53176355D01*
X196107108Y-53176355D02*
X196221393Y-53214450D01*
X196221393Y-53214450D02*
X196259489Y-53252545D01*
X196526155Y-53176355D02*
X197021393Y-53176355D01*
X197021393Y-53176355D02*
X196754727Y-53481117D01*
X196754727Y-53481117D02*
X196869012Y-53481117D01*
X196869012Y-53481117D02*
X196945203Y-53519212D01*
X196945203Y-53519212D02*
X196983298Y-53557307D01*
X196983298Y-53557307D02*
X197021393Y-53633498D01*
X197021393Y-53633498D02*
X197021393Y-53823974D01*
X197021393Y-53823974D02*
X196983298Y-53900164D01*
X196983298Y-53900164D02*
X196945203Y-53938260D01*
X196945203Y-53938260D02*
X196869012Y-53976355D01*
X196869012Y-53976355D02*
X196640441Y-53976355D01*
X196640441Y-53976355D02*
X196564250Y-53938260D01*
X196564250Y-53938260D02*
X196526155Y-53900164D01*
D10*
X195341036Y-64717319D02*
X195436274Y-64717319D01*
X195436274Y-64717319D02*
X195531512Y-64764938D01*
X195531512Y-64764938D02*
X195579131Y-64812557D01*
X195579131Y-64812557D02*
X195626750Y-64907795D01*
X195626750Y-64907795D02*
X195674369Y-65098271D01*
X195674369Y-65098271D02*
X195674369Y-65336366D01*
X195674369Y-65336366D02*
X195626750Y-65526842D01*
X195626750Y-65526842D02*
X195579131Y-65622080D01*
X195579131Y-65622080D02*
X195531512Y-65669700D01*
X195531512Y-65669700D02*
X195436274Y-65717319D01*
X195436274Y-65717319D02*
X195341036Y-65717319D01*
X195341036Y-65717319D02*
X195245798Y-65669700D01*
X195245798Y-65669700D02*
X195198179Y-65622080D01*
X195198179Y-65622080D02*
X195150560Y-65526842D01*
X195150560Y-65526842D02*
X195102941Y-65336366D01*
X195102941Y-65336366D02*
X195102941Y-65098271D01*
X195102941Y-65098271D02*
X195150560Y-64907795D01*
X195150560Y-64907795D02*
X195198179Y-64812557D01*
X195198179Y-64812557D02*
X195245798Y-64764938D01*
X195245798Y-64764938D02*
X195341036Y-64717319D01*
X196102941Y-65622080D02*
X196150560Y-65669700D01*
X196150560Y-65669700D02*
X196102941Y-65717319D01*
X196102941Y-65717319D02*
X196055322Y-65669700D01*
X196055322Y-65669700D02*
X196102941Y-65622080D01*
X196102941Y-65622080D02*
X196102941Y-65717319D01*
X197102940Y-65717319D02*
X196531512Y-65717319D01*
X196817226Y-65717319D02*
X196817226Y-64717319D01*
X196817226Y-64717319D02*
X196721988Y-64860176D01*
X196721988Y-64860176D02*
X196626750Y-64955414D01*
X196626750Y-64955414D02*
X196531512Y-65003033D01*
X197960083Y-65050652D02*
X197960083Y-65717319D01*
X197531512Y-65050652D02*
X197531512Y-65574461D01*
X197531512Y-65574461D02*
X197579131Y-65669700D01*
X197579131Y-65669700D02*
X197674369Y-65717319D01*
X197674369Y-65717319D02*
X197817226Y-65717319D01*
X197817226Y-65717319D02*
X197912464Y-65669700D01*
X197912464Y-65669700D02*
X197960083Y-65622080D01*
D11*
X196421989Y-63700164D02*
X196383893Y-63738260D01*
X196383893Y-63738260D02*
X196269608Y-63776355D01*
X196269608Y-63776355D02*
X196193417Y-63776355D01*
X196193417Y-63776355D02*
X196079131Y-63738260D01*
X196079131Y-63738260D02*
X196002941Y-63662069D01*
X196002941Y-63662069D02*
X195964846Y-63585879D01*
X195964846Y-63585879D02*
X195926750Y-63433498D01*
X195926750Y-63433498D02*
X195926750Y-63319212D01*
X195926750Y-63319212D02*
X195964846Y-63166831D01*
X195964846Y-63166831D02*
X196002941Y-63090640D01*
X196002941Y-63090640D02*
X196079131Y-63014450D01*
X196079131Y-63014450D02*
X196193417Y-62976355D01*
X196193417Y-62976355D02*
X196269608Y-62976355D01*
X196269608Y-62976355D02*
X196383893Y-63014450D01*
X196383893Y-63014450D02*
X196421989Y-63052545D01*
X196726750Y-63052545D02*
X196764846Y-63014450D01*
X196764846Y-63014450D02*
X196841036Y-62976355D01*
X196841036Y-62976355D02*
X197031512Y-62976355D01*
X197031512Y-62976355D02*
X197107703Y-63014450D01*
X197107703Y-63014450D02*
X197145798Y-63052545D01*
X197145798Y-63052545D02*
X197183893Y-63128736D01*
X197183893Y-63128736D02*
X197183893Y-63204926D01*
X197183893Y-63204926D02*
X197145798Y-63319212D01*
X197145798Y-63319212D02*
X196688655Y-63776355D01*
X196688655Y-63776355D02*
X197183893Y-63776355D01*
D10*
X135335141Y-53719047D02*
X135335141Y-54290475D01*
X135335141Y-54004761D02*
X134335141Y-54004761D01*
X134335141Y-54004761D02*
X134477998Y-54099999D01*
X134477998Y-54099999D02*
X134573236Y-54195237D01*
X134573236Y-54195237D02*
X134620855Y-54290475D01*
X134335141Y-53099999D02*
X134335141Y-53004761D01*
X134335141Y-53004761D02*
X134382760Y-52909523D01*
X134382760Y-52909523D02*
X134430379Y-52861904D01*
X134430379Y-52861904D02*
X134525617Y-52814285D01*
X134525617Y-52814285D02*
X134716093Y-52766666D01*
X134716093Y-52766666D02*
X134954188Y-52766666D01*
X134954188Y-52766666D02*
X135144664Y-52814285D01*
X135144664Y-52814285D02*
X135239902Y-52861904D01*
X135239902Y-52861904D02*
X135287522Y-52909523D01*
X135287522Y-52909523D02*
X135335141Y-53004761D01*
X135335141Y-53004761D02*
X135335141Y-53099999D01*
X135335141Y-53099999D02*
X135287522Y-53195237D01*
X135287522Y-53195237D02*
X135239902Y-53242856D01*
X135239902Y-53242856D02*
X135144664Y-53290475D01*
X135144664Y-53290475D02*
X134954188Y-53338094D01*
X134954188Y-53338094D02*
X134716093Y-53338094D01*
X134716093Y-53338094D02*
X134525617Y-53290475D01*
X134525617Y-53290475D02*
X134430379Y-53242856D01*
X134430379Y-53242856D02*
X134382760Y-53195237D01*
X134382760Y-53195237D02*
X134335141Y-53099999D01*
X134335141Y-52147618D02*
X134335141Y-52052380D01*
X134335141Y-52052380D02*
X134382760Y-51957142D01*
X134382760Y-51957142D02*
X134430379Y-51909523D01*
X134430379Y-51909523D02*
X134525617Y-51861904D01*
X134525617Y-51861904D02*
X134716093Y-51814285D01*
X134716093Y-51814285D02*
X134954188Y-51814285D01*
X134954188Y-51814285D02*
X135144664Y-51861904D01*
X135144664Y-51861904D02*
X135239902Y-51909523D01*
X135239902Y-51909523D02*
X135287522Y-51957142D01*
X135287522Y-51957142D02*
X135335141Y-52052380D01*
X135335141Y-52052380D02*
X135335141Y-52147618D01*
X135335141Y-52147618D02*
X135287522Y-52242856D01*
X135287522Y-52242856D02*
X135239902Y-52290475D01*
X135239902Y-52290475D02*
X135144664Y-52338094D01*
X135144664Y-52338094D02*
X134954188Y-52385713D01*
X134954188Y-52385713D02*
X134716093Y-52385713D01*
X134716093Y-52385713D02*
X134525617Y-52338094D01*
X134525617Y-52338094D02*
X134430379Y-52290475D01*
X134430379Y-52290475D02*
X134382760Y-52242856D01*
X134382760Y-52242856D02*
X134335141Y-52147618D01*
X134668474Y-51385713D02*
X135335141Y-51385713D01*
X134763712Y-51385713D02*
X134716093Y-51338094D01*
X134716093Y-51338094D02*
X134668474Y-51242856D01*
X134668474Y-51242856D02*
X134668474Y-51099999D01*
X134668474Y-51099999D02*
X134716093Y-51004761D01*
X134716093Y-51004761D02*
X134811331Y-50957142D01*
X134811331Y-50957142D02*
X135335141Y-50957142D01*
D11*
X137167986Y-52533332D02*
X137206082Y-52571428D01*
X137206082Y-52571428D02*
X137244177Y-52685713D01*
X137244177Y-52685713D02*
X137244177Y-52761904D01*
X137244177Y-52761904D02*
X137206082Y-52876190D01*
X137206082Y-52876190D02*
X137129891Y-52952380D01*
X137129891Y-52952380D02*
X137053701Y-52990475D01*
X137053701Y-52990475D02*
X136901320Y-53028571D01*
X136901320Y-53028571D02*
X136787034Y-53028571D01*
X136787034Y-53028571D02*
X136634653Y-52990475D01*
X136634653Y-52990475D02*
X136558462Y-52952380D01*
X136558462Y-52952380D02*
X136482272Y-52876190D01*
X136482272Y-52876190D02*
X136444177Y-52761904D01*
X136444177Y-52761904D02*
X136444177Y-52685713D01*
X136444177Y-52685713D02*
X136482272Y-52571428D01*
X136482272Y-52571428D02*
X136520367Y-52533332D01*
X137244177Y-51771428D02*
X137244177Y-52228571D01*
X137244177Y-51999999D02*
X136444177Y-51999999D01*
X136444177Y-51999999D02*
X136558462Y-52076190D01*
X136558462Y-52076190D02*
X136634653Y-52152380D01*
X136634653Y-52152380D02*
X136672748Y-52228571D01*
D13*
%TO.C,U3*%
X140555322Y-46200000D02*
X140555322Y-62200000D01*
X155555322Y-62200000D02*
X140555322Y-62200000D01*
X155555322Y-62200000D02*
X156555322Y-61200000D01*
X156555322Y-46200000D02*
X140555322Y-46200000D01*
X156555322Y-46200000D02*
X156555322Y-61200000D01*
%TO.C,Y1*%
X180430322Y-54150000D02*
X177930322Y-54150000D01*
X177930322Y-51575000D01*
X178555322Y-50950000D01*
X180430322Y-50950000D01*
X180430322Y-54150000D01*
%TO.C,U4*%
X144692822Y-72000000D02*
X143092822Y-72000000D01*
X143092822Y-69500000D01*
X143492822Y-69100000D01*
X144692822Y-69100000D01*
X144692822Y-72000000D01*
%TO.C,U2*%
X174355322Y-58000000D02*
X164355322Y-58000000D01*
X164355322Y-49000000D01*
X165355322Y-48000000D01*
X174355322Y-48000000D01*
X174355322Y-58000000D01*
%TO.C,U1*%
X197855322Y-60700000D02*
X194855322Y-60700000D01*
X194855322Y-58450000D01*
X195605322Y-57700000D01*
X197855322Y-57700000D01*
X197855322Y-60700000D01*
%TO.C,SW1*%
X195155322Y-75900000D02*
X195155322Y-76400000D01*
X195155322Y-76400000D02*
X196155322Y-76400000D01*
X195155322Y-79600000D02*
X196155322Y-79600000D01*
X195155322Y-80100000D02*
X195155322Y-79600000D01*
X195655322Y-75900000D02*
X195655322Y-76400000D01*
X195655322Y-80100000D02*
X195655322Y-79600000D01*
X195755322Y-76800000D02*
X195755322Y-79200000D01*
X195755322Y-79200000D02*
X197155322Y-80600000D01*
X196355322Y-77000000D02*
X197355322Y-76000000D01*
X196355322Y-79000000D02*
X196355322Y-77000000D01*
X196655322Y-75900000D02*
X195155322Y-75900000D01*
X196655322Y-80100000D02*
X195155322Y-80100000D01*
X197155322Y-75400000D02*
X195755322Y-76800000D01*
X197155322Y-80600000D02*
X199555322Y-80600000D01*
X197355322Y-76000000D02*
X199355322Y-76000000D01*
X197355322Y-80000000D02*
X196355322Y-79000000D01*
X199355322Y-76000000D02*
X200355322Y-77000000D01*
X199355322Y-80000000D02*
X197355322Y-80000000D01*
X199555322Y-75400000D02*
X197155322Y-75400000D01*
X199555322Y-80600000D02*
X200955322Y-79200000D01*
X200055322Y-75900000D02*
X201555322Y-75900000D01*
X200055322Y-80100000D02*
X201555322Y-80100000D01*
X200355322Y-77000000D02*
X200355322Y-79000000D01*
X200355322Y-79000000D02*
X199355322Y-80000000D01*
X200955322Y-76800000D02*
X199555322Y-75400000D01*
X200955322Y-79200000D02*
X200955322Y-76800000D01*
X201055322Y-75900000D02*
X201055322Y-76400000D01*
X201055322Y-80100000D02*
X201055322Y-79600000D01*
X201555322Y-75900000D02*
X201555322Y-76400000D01*
X201555322Y-76400000D02*
X200555322Y-76400000D01*
X201555322Y-79600000D02*
X200555322Y-79600000D01*
X201555322Y-80100000D02*
X201555322Y-79600000D01*
X199355322Y-78000000D02*
G75*
G02*
X197355322Y-78000000I-1000000J0D01*
G01*
X197355322Y-78000000D02*
G75*
G02*
X199355322Y-78000000I1000000J0D01*
G01*
%TO.C,R9*%
X188715322Y-42510000D02*
X191915322Y-42510000D01*
X188715322Y-44110000D02*
X188715322Y-42510000D01*
X191915322Y-42510000D02*
X191915322Y-44110000D01*
X191915322Y-44110000D02*
X188715322Y-44110000D01*
%TO.C,R6*%
X188765322Y-39910000D02*
X191965322Y-39910000D01*
X188765322Y-41510000D02*
X188765322Y-39910000D01*
X191965322Y-39910000D02*
X191965322Y-41510000D01*
X191965322Y-41510000D02*
X188765322Y-41510000D01*
%TO.C,R4*%
X177430322Y-47650000D02*
X180630322Y-47650000D01*
X177430322Y-49250000D02*
X177430322Y-47650000D01*
X180630322Y-47650000D02*
X180630322Y-49250000D01*
X180630322Y-49250000D02*
X177430322Y-49250000D01*
%TO.C,R3*%
X177555322Y-61600000D02*
X180755322Y-61600000D01*
X177555322Y-63200000D02*
X177555322Y-61600000D01*
X180755322Y-61600000D02*
X180755322Y-63200000D01*
X180755322Y-63200000D02*
X177555322Y-63200000D01*
%TO.C,R2*%
X192555322Y-57412500D02*
X192555322Y-60612500D01*
X190955322Y-57412500D02*
X192555322Y-57412500D01*
X192555322Y-60612500D02*
X190955322Y-60612500D01*
X190955322Y-60612500D02*
X190955322Y-57412500D01*
%TO.C,R1*%
X202555322Y-57212500D02*
X202555322Y-60412500D01*
X200955322Y-57212500D02*
X202555322Y-57212500D01*
X202555322Y-60412500D02*
X200955322Y-60412500D01*
X200955322Y-60412500D02*
X200955322Y-57212500D01*
%TO.C,J5*%
X146990322Y-77730000D02*
X147625322Y-78365000D01*
X142545322Y-77730000D02*
X146990322Y-77730000D01*
X147625322Y-78365000D02*
X147625322Y-80270000D01*
X147625322Y-80270000D02*
X142545322Y-80270000D01*
X142545322Y-80270000D02*
X142545322Y-77730000D01*
%TO.C,J4*%
X196505322Y-47980000D02*
X203805322Y-47980000D01*
X196505322Y-47980000D02*
X196505322Y-39040000D01*
X203805322Y-47980000D02*
X203805322Y-39040000D01*
X196505322Y-39040000D02*
X203805322Y-39040000D01*
%TO.C,J2*%
X156240322Y-80470000D02*
X155605322Y-79835000D01*
X165765322Y-80470000D02*
X156240322Y-80470000D01*
X155605322Y-79835000D02*
X155605322Y-77930000D01*
X155605322Y-77930000D02*
X165765322Y-77930000D01*
X165765322Y-77930000D02*
X165765322Y-80470000D01*
%TO.C,J1*%
X186530322Y-78130000D02*
X187165322Y-78765000D01*
X174465322Y-78130000D02*
X186530322Y-78130000D01*
X187165322Y-78765000D02*
X187165322Y-80670000D01*
X187165322Y-80670000D02*
X174465322Y-80670000D01*
X174465322Y-80670000D02*
X174465322Y-78130000D01*
%TO.C,C12*%
X182955322Y-62400000D02*
X182955322Y-59200000D01*
X184555322Y-62400000D02*
X182955322Y-62400000D01*
X182955322Y-59200000D02*
X184555322Y-59200000D01*
X184555322Y-59200000D02*
X184555322Y-62400000D01*
%TO.C,C11*%
X165430322Y-61450000D02*
X168630322Y-61450000D01*
X165430322Y-63050000D02*
X165430322Y-61450000D01*
X168630322Y-61450000D02*
X168630322Y-63050000D01*
X168630322Y-63050000D02*
X165430322Y-63050000D01*
%TO.C,C10*%
X170830322Y-61450000D02*
X174030322Y-61450000D01*
X170830322Y-63050000D02*
X170830322Y-61450000D01*
X174030322Y-61450000D02*
X174030322Y-63050000D01*
X174030322Y-63050000D02*
X170830322Y-63050000D01*
%TO.C,C8*%
X180630322Y-58650000D02*
X177430322Y-58650000D01*
X180630322Y-57050000D02*
X180630322Y-58650000D01*
X177430322Y-58650000D02*
X177430322Y-57050000D01*
X177430322Y-57050000D02*
X180630322Y-57050000D01*
%TO.C,C7*%
X182830322Y-54650000D02*
X182830322Y-51450000D01*
X184430322Y-54650000D02*
X182830322Y-54650000D01*
X182830322Y-51450000D02*
X184430322Y-51450000D01*
X184430322Y-51450000D02*
X184430322Y-54650000D01*
%TO.C,C5*%
X137955322Y-71600000D02*
X137955322Y-68400000D01*
X139555322Y-71600000D02*
X137955322Y-71600000D01*
X137955322Y-68400000D02*
X139555322Y-68400000D01*
X139555322Y-68400000D02*
X139555322Y-71600000D01*
%TO.C,C4*%
X147955322Y-71600000D02*
X147955322Y-68400000D01*
X149555322Y-71600000D02*
X147955322Y-71600000D01*
X147955322Y-68400000D02*
X149555322Y-68400000D01*
X149555322Y-68400000D02*
X149555322Y-71600000D01*
%TO.C,C3*%
X197992822Y-54412500D02*
X194792822Y-54412500D01*
X197992822Y-52812500D02*
X197992822Y-54412500D01*
X194792822Y-54412500D02*
X194792822Y-52812500D01*
X194792822Y-52812500D02*
X197992822Y-52812500D01*
%TO.C,C2*%
X194955322Y-62612500D02*
X198155322Y-62612500D01*
X194955322Y-64212500D02*
X194955322Y-62612500D01*
X198155322Y-62612500D02*
X198155322Y-64212500D01*
X198155322Y-64212500D02*
X194955322Y-64212500D01*
%TO.C,C1*%
X136080322Y-54000000D02*
X136080322Y-50800000D01*
X137680322Y-54000000D02*
X136080322Y-54000000D01*
X136080322Y-50800000D02*
X137680322Y-50800000D01*
X137680322Y-50800000D02*
X137680322Y-54000000D01*
%TD*%
M02*
