M48
; DRILL file {KiCad 9.0.5} date 2026-04-29T00:31:05-0500
; FORMAT={-:-/ absolute / metric / decimal}
; #@! TF.CreationDate,2026-04-29T00:31:05-05:00
; #@! TF.GenerationSoftware,Kicad,Pcbnew,9.0.5
; #@! TF.FileFunction,Plated,1,2,PTH
FMAT,2
METRIC
; #@! TA.AperFunction,Plated,PTH,ViaDrill
T1C0.300
; #@! TA.AperFunction,Plated,PTH,ComponentDrill
T2C0.600
; #@! TA.AperFunction,Plated,PTH,ComponentDrill
T3C1.000
%
G90
G05
T1
X146.355Y-71.022
X146.855Y-68.438
X160.96Y-57.054
X161.747Y-59.427
X161.949Y-52.144
X162.469Y-58.114
X164.897Y-57.851
X165.306Y-52.549
X172.867Y-53.909
X177.999Y-59.344
X178.906Y-62.56
X179.479Y-61.785
X182.214Y-62.002
X185.005Y-75.67
X190.805Y-71.02
X193.026Y-62.759
X193.211Y-53.74
X193.555Y-42.0
X193.705Y-45.788
T3
X143.815Y-79.0
X146.355Y-79.0
X156.875Y-79.2
X159.415Y-79.2
X161.955Y-79.2
X164.495Y-79.2
X175.735Y-79.4
X178.275Y-79.4
X180.815Y-79.4
X183.355Y-79.4
X185.895Y-79.4
T2
G00X196.475Y-39.19
M15
G01X197.575Y-39.19
M16
G05
G00X196.475Y-47.83
M15
G01X197.575Y-47.83
M16
G05
G00X200.905Y-39.19
M15
G01X201.505Y-39.19
M16
G05
G00X200.905Y-47.83
M15
G01X201.505Y-47.83
M16
G05
M30
