%TF.GenerationSoftware,KiCad,Pcbnew,10.0.0*%
%TF.CreationDate,2026-04-09T17:29:59-05:00*%
%TF.ProjectId,328,3332382e-6b69-4636-9164-5f7063625858,rev?*%
%TF.SameCoordinates,Original*%
%TF.FileFunction,Paste,Top*%
%TF.FilePolarity,Positive*%
%FSLAX46Y46*%
G04 Gerber Fmt 4.6, Leading zero omitted, Abs format (unit mm)*
G04 Created by KiCad (PCBNEW 10.0.0) date 2026-04-09 17:29:59*
%MOMM*%
%LPD*%
G01*
G04 APERTURE LIST*
G04 Aperture macros list*
%AMRoundRect*
0 Rectangle with rounded corners*
0 $1 Rounding radius*
0 $2 $3 $4 $5 $6 $7 $8 $9 X,Y pos of 4 corners*
0 Add a 4 corners polygon primitive as box body*
4,1,4,$2,$3,$4,$5,$6,$7,$8,$9,$2,$3,0*
0 Add four circle primitives for the rounded corners*
1,1,$1+$1,$2,$3*
1,1,$1+$1,$4,$5*
1,1,$1+$1,$6,$7*
1,1,$1+$1,$8,$9*
0 Add four rect primitives between the rounded corners*
20,1,$1+$1,$2,$3,$4,$5,0*
20,1,$1+$1,$4,$5,$6,$7,0*
20,1,$1+$1,$6,$7,$8,$9,0*
20,1,$1+$1,$8,$9,$2,$3,0*%
G04 Aperture macros list end*
%ADD10C,0.000000*%
%ADD11RoundRect,0.140000X-0.140000X-0.170000X0.140000X-0.170000X0.140000X0.170000X-0.140000X0.170000X0*%
%ADD12RoundRect,0.135000X-0.135000X-0.185000X0.135000X-0.185000X0.135000X0.185000X-0.135000X0.185000X0*%
%ADD13R,0.239283X1.009637*%
%ADD14R,1.009637X0.239283*%
%ADD15RoundRect,0.147500X0.172500X-0.147500X0.172500X0.147500X-0.172500X0.147500X-0.172500X-0.147500X0*%
%ADD16RoundRect,0.140000X0.140000X0.170000X-0.140000X0.170000X-0.140000X-0.170000X0.140000X-0.170000X0*%
%ADD17RoundRect,0.147500X-0.147500X-0.172500X0.147500X-0.172500X0.147500X0.172500X-0.147500X0.172500X0*%
%ADD18R,1.200000X0.700000*%
%ADD19R,0.800000X1.000000*%
%ADD20R,1.200000X1.000000*%
%ADD21R,2.800000X1.000000*%
%ADD22R,1.900000X1.300000*%
%ADD23RoundRect,0.150000X0.150000X-0.512500X0.150000X0.512500X-0.150000X0.512500X-0.150000X-0.512500X0*%
%ADD24RoundRect,0.317500X-1.157500X-0.317500X1.157500X-0.317500X1.157500X0.317500X-1.157500X0.317500X0*%
%ADD25R,1.700000X1.000000*%
%ADD26RoundRect,0.125000X-0.125000X-0.137500X0.125000X-0.137500X0.125000X0.137500X-0.125000X0.137500X0*%
%ADD27RoundRect,0.135000X0.135000X0.185000X-0.135000X0.185000X-0.135000X-0.185000X0.135000X-0.185000X0*%
%ADD28R,0.540000X0.540000*%
%ADD29R,0.300000X0.300000*%
%ADD30R,0.300000X0.900000*%
%ADD31R,0.900000X0.300000*%
%ADD32R,1.450000X0.600000*%
%ADD33R,1.450000X0.300000*%
%ADD34RoundRect,0.250000X-0.450000X-0.350000X0.450000X-0.350000X0.450000X0.350000X-0.450000X0.350000X0*%
G04 APERTURE END LIST*
D10*
%TO.C,U1*%
G36*
X152878400Y-63478398D02*
G01*
X151218206Y-63478398D01*
X151218206Y-61818203D01*
X152878400Y-61818203D01*
X152878400Y-63478398D01*
G37*
G36*
X152878400Y-65781794D02*
G01*
X151218206Y-65781794D01*
X151218206Y-64121600D01*
X152878400Y-64121600D01*
X152878400Y-65781794D01*
G37*
G36*
X155181797Y-63478398D02*
G01*
X153521602Y-63478398D01*
X153521602Y-61818203D01*
X155181797Y-61818203D01*
X155181797Y-63478398D01*
G37*
G36*
X155181797Y-65781794D02*
G01*
X153521602Y-65781794D01*
X153521602Y-64121600D01*
X155181797Y-64121600D01*
X155181797Y-65781794D01*
G37*
%TD*%
D11*
%TO.C,C7*%
X137800000Y-75000000D03*
X138760000Y-75000000D03*
%TD*%
D12*
%TO.C,R4*%
X149690000Y-46400000D03*
X150710000Y-46400000D03*
%TD*%
D13*
%TO.C,U1*%
X155950000Y-60348755D03*
X155450001Y-60348755D03*
X154949999Y-60348755D03*
X154450000Y-60348755D03*
X153949998Y-60348755D03*
X153450000Y-60348755D03*
X152950000Y-60348755D03*
X152449999Y-60348755D03*
X151950000Y-60348755D03*
X151449998Y-60348755D03*
X150949999Y-60348755D03*
X150450000Y-60348755D03*
D14*
X149748752Y-61050000D03*
X149748752Y-61549999D03*
X149748752Y-62050001D03*
X149748752Y-62550000D03*
X149748752Y-63050002D03*
X149748752Y-63550000D03*
X149748752Y-64050000D03*
X149748752Y-64550001D03*
X149748752Y-65050000D03*
X149748752Y-65550002D03*
X149748752Y-66050001D03*
X149748752Y-66550000D03*
D13*
X150450000Y-67251248D03*
X150949999Y-67251248D03*
X151449998Y-67251248D03*
X151950000Y-67251248D03*
X152449999Y-67251248D03*
X152950000Y-67251248D03*
X153450000Y-67251248D03*
X153949998Y-67251248D03*
X154450000Y-67251248D03*
X154949999Y-67251248D03*
X155450001Y-67251248D03*
X155950000Y-67251248D03*
D14*
X156651245Y-66550000D03*
X156651245Y-66050001D03*
X156651245Y-65550002D03*
X156651245Y-65050000D03*
X156651245Y-64550001D03*
X156651245Y-64050000D03*
X156651245Y-63550000D03*
X156651245Y-63050002D03*
X156651245Y-62550000D03*
X156651245Y-62050001D03*
X156651245Y-61549999D03*
X156651245Y-61050000D03*
%TD*%
D15*
%TO.C,L1*%
X152200000Y-47370000D03*
X152200000Y-46400000D03*
%TD*%
D16*
%TO.C,C9*%
X145880000Y-46400000D03*
X144920000Y-46400000D03*
%TD*%
D17*
%TO.C,D2*%
X140030000Y-64200000D03*
X141000000Y-64200000D03*
%TD*%
D18*
%TO.C,J6*%
X172900000Y-40200000D03*
X172900000Y-41300000D03*
X172900000Y-42400000D03*
X172900000Y-43500000D03*
X172900000Y-44600000D03*
X172900000Y-45700000D03*
X172900000Y-46800000D03*
X172900000Y-47900000D03*
X172900000Y-48850000D03*
D19*
X183400000Y-49800000D03*
D20*
X177200000Y-49800000D03*
D21*
X187550000Y-49800000D03*
D20*
X172900000Y-38650000D03*
D22*
X188000000Y-36300000D03*
%TD*%
D23*
%TO.C,U3*%
X129450000Y-54937500D03*
X131350000Y-54937500D03*
X130400000Y-52662500D03*
%TD*%
D16*
%TO.C,C11*%
X152280000Y-49200000D03*
X151320000Y-49200000D03*
%TD*%
D24*
%TO.C,U4*%
X172875000Y-60600000D03*
X172875000Y-62600000D03*
X172875000Y-64600000D03*
X172875000Y-66600000D03*
X172875000Y-68600000D03*
X172875000Y-70600000D03*
X172875000Y-72600000D03*
X172875000Y-74600000D03*
X187925000Y-74600000D03*
X187925000Y-72600000D03*
X187925000Y-70600000D03*
X187925000Y-68600000D03*
X187925000Y-66600000D03*
X187925000Y-64600000D03*
X187925000Y-62600000D03*
X187925000Y-60600000D03*
%TD*%
D25*
%TO.C,SW1*%
X181850000Y-53900000D03*
X188150000Y-53900000D03*
X181850000Y-57700000D03*
X188150000Y-57700000D03*
%TD*%
D26*
%TO.C,U5*%
X146412500Y-47812500D03*
X147212500Y-47812500D03*
X148012500Y-47812500D03*
X148812500Y-47812500D03*
X148812500Y-50187500D03*
X148012500Y-50187500D03*
X147212500Y-50187500D03*
X146412500Y-50187500D03*
%TD*%
D17*
%TO.C,D3*%
X143030000Y-53800000D03*
X144000000Y-53800000D03*
%TD*%
D12*
%TO.C,R6*%
X126450000Y-57200000D03*
X127470000Y-57200000D03*
%TD*%
D27*
%TO.C,R8*%
X127400000Y-58800000D03*
X126380000Y-58800000D03*
%TD*%
D11*
%TO.C,C8*%
X127600000Y-73200000D03*
X128560000Y-73200000D03*
%TD*%
D28*
%TO.C,U2*%
X140850000Y-66950000D03*
X139950000Y-66950000D03*
X140850000Y-67850000D03*
X139950000Y-67850000D03*
D29*
X141650000Y-66150000D03*
D30*
X141150000Y-65850000D03*
X140650000Y-65850000D03*
X140150000Y-65850000D03*
X139650000Y-65850000D03*
D29*
X139150000Y-66150000D03*
D31*
X138850000Y-66650000D03*
X138850000Y-67150000D03*
X138850000Y-67650000D03*
X138850000Y-68150000D03*
D29*
X139150000Y-68650000D03*
D30*
X139650000Y-68950000D03*
X140150000Y-68950000D03*
X140650000Y-68950000D03*
X141150000Y-68950000D03*
D29*
X141650000Y-68650000D03*
D31*
X141950000Y-68150000D03*
X141950000Y-67650000D03*
X141950000Y-67150000D03*
X141950000Y-66650000D03*
%TD*%
D27*
%TO.C,R7*%
X126110000Y-73200000D03*
X125090000Y-73200000D03*
%TD*%
D17*
%TO.C,D1*%
X143030000Y-58800000D03*
X144000000Y-58800000D03*
%TD*%
D32*
%TO.C,J1*%
X128485000Y-62350000D03*
X128485000Y-63150000D03*
D33*
X128485000Y-64350000D03*
X128485000Y-65350000D03*
X128485000Y-65850000D03*
X128485000Y-66850000D03*
D32*
X128485000Y-68050000D03*
X128485000Y-68850000D03*
X128485000Y-68850000D03*
X128485000Y-68050000D03*
D33*
X128485000Y-67350000D03*
X128485000Y-66350000D03*
X128485000Y-64850000D03*
X128485000Y-63850000D03*
D32*
X128485000Y-63150000D03*
X128485000Y-62350000D03*
%TD*%
D34*
%TO.C,Y1*%
X156700000Y-50850000D03*
X158900000Y-50850000D03*
X158900000Y-49150000D03*
X156700000Y-49150000D03*
%TD*%
D12*
%TO.C,R5*%
X147200000Y-46400000D03*
X148220000Y-46400000D03*
%TD*%
M02*
