%TF.GenerationSoftware,KiCad,Pcbnew,10.0.0*%
%TF.CreationDate,2026-04-09T17:29:59-05:00*%
%TF.ProjectId,328,3332382e-6b69-4636-9164-5f7063625858,rev?*%
%TF.SameCoordinates,Original*%
%TF.FileFunction,Copper,L1,Top*%
%TF.FilePolarity,Positive*%
%FSLAX46Y46*%
G04 Gerber Fmt 4.6, Leading zero omitted, Abs format (unit mm)*
G04 Created by KiCad (PCBNEW 10.0.0) date 2026-04-09 17:29:59*
%MOMM*%
%LPD*%
G01*
G04 APERTURE LIST*
G04 Aperture macros list*
%AMRoundRect*
0 Rectangle with rounded corners*
0 $1 Rounding radius*
0 $2 $3 $4 $5 $6 $7 $8 $9 X,Y pos of 4 corners*
0 Add a 4 corners polygon primitive as box body*
4,1,4,$2,$3,$4,$5,$6,$7,$8,$9,$2,$3,0*
0 Add four circle primitives for the rounded corners*
1,1,$1+$1,$2,$3*
1,1,$1+$1,$4,$5*
1,1,$1+$1,$6,$7*
1,1,$1+$1,$8,$9*
0 Add four rect primitives between the rounded corners*
20,1,$1+$1,$2,$3,$4,$5,0*
20,1,$1+$1,$4,$5,$6,$7,0*
20,1,$1+$1,$6,$7,$8,$9,0*
20,1,$1+$1,$8,$9,$2,$3,0*%
G04 Aperture macros list end*
%ADD10C,0.300000*%
%TA.AperFunction,NonConductor*%
%ADD11C,0.300000*%
%TD*%
%TA.AperFunction,SMDPad,CuDef*%
%ADD12RoundRect,0.140000X-0.140000X-0.170000X0.140000X-0.170000X0.140000X0.170000X-0.140000X0.170000X0*%
%TD*%
%TA.AperFunction,SMDPad,CuDef*%
%ADD13RoundRect,0.135000X-0.135000X-0.185000X0.135000X-0.185000X0.135000X0.185000X-0.135000X0.185000X0*%
%TD*%
%TA.AperFunction,SMDPad,CuDef*%
%ADD14R,0.239283X1.009637*%
%TD*%
%TA.AperFunction,SMDPad,CuDef*%
%ADD15R,1.009637X0.239283*%
%TD*%
%TA.AperFunction,SMDPad,CuDef*%
%ADD16R,5.250000X5.250000*%
%TD*%
%TA.AperFunction,ComponentPad*%
%ADD17R,1.700000X1.700000*%
%TD*%
%TA.AperFunction,ComponentPad*%
%ADD18C,1.700000*%
%TD*%
%TA.AperFunction,SMDPad,CuDef*%
%ADD19RoundRect,0.147500X0.172500X-0.147500X0.172500X0.147500X-0.172500X0.147500X-0.172500X-0.147500X0*%
%TD*%
%TA.AperFunction,SMDPad,CuDef*%
%ADD20RoundRect,0.140000X0.140000X0.170000X-0.140000X0.170000X-0.140000X-0.170000X0.140000X-0.170000X0*%
%TD*%
%TA.AperFunction,SMDPad,CuDef*%
%ADD21RoundRect,0.147500X-0.147500X-0.172500X0.147500X-0.172500X0.147500X0.172500X-0.147500X0.172500X0*%
%TD*%
%TA.AperFunction,SMDPad,CuDef*%
%ADD22R,1.200000X0.700000*%
%TD*%
%TA.AperFunction,SMDPad,CuDef*%
%ADD23R,0.800000X1.000000*%
%TD*%
%TA.AperFunction,SMDPad,CuDef*%
%ADD24R,1.200000X1.000000*%
%TD*%
%TA.AperFunction,SMDPad,CuDef*%
%ADD25R,2.800000X1.000000*%
%TD*%
%TA.AperFunction,SMDPad,CuDef*%
%ADD26R,1.900000X1.300000*%
%TD*%
%TA.AperFunction,SMDPad,CuDef*%
%ADD27C,1.500000*%
%TD*%
%TA.AperFunction,SMDPad,CuDef*%
%ADD28RoundRect,0.150000X0.150000X-0.512500X0.150000X0.512500X-0.150000X0.512500X-0.150000X-0.512500X0*%
%TD*%
%TA.AperFunction,SMDPad,CuDef*%
%ADD29RoundRect,0.317500X-1.157500X-0.317500X1.157500X-0.317500X1.157500X0.317500X-1.157500X0.317500X0*%
%TD*%
%TA.AperFunction,SMDPad,CuDef*%
%ADD30R,1.700000X1.000000*%
%TD*%
%TA.AperFunction,SMDPad,CuDef*%
%ADD31RoundRect,0.125000X-0.125000X-0.137500X0.125000X-0.137500X0.125000X0.137500X-0.125000X0.137500X0*%
%TD*%
%TA.AperFunction,SMDPad,CuDef*%
%ADD32RoundRect,0.135000X0.135000X0.185000X-0.135000X0.185000X-0.135000X-0.185000X0.135000X-0.185000X0*%
%TD*%
%TA.AperFunction,SMDPad,CuDef*%
%ADD33R,0.300000X0.300000*%
%TD*%
%TA.AperFunction,SMDPad,CuDef*%
%ADD34R,0.300000X0.900000*%
%TD*%
%TA.AperFunction,SMDPad,CuDef*%
%ADD35R,0.900000X0.300000*%
%TD*%
%TA.AperFunction,SMDPad,CuDef*%
%ADD36R,1.800000X1.800000*%
%TD*%
%TA.AperFunction,SMDPad,CuDef*%
%ADD37R,1.450000X0.600000*%
%TD*%
%TA.AperFunction,SMDPad,CuDef*%
%ADD38R,1.450000X0.300000*%
%TD*%
%TA.AperFunction,HeatsinkPad*%
%ADD39O,2.100000X1.000000*%
%TD*%
%TA.AperFunction,HeatsinkPad*%
%ADD40O,1.600000X1.000000*%
%TD*%
%TA.AperFunction,SMDPad,CuDef*%
%ADD41RoundRect,0.250000X-0.450000X-0.350000X0.450000X-0.350000X0.450000X0.350000X-0.450000X0.350000X0*%
%TD*%
%TA.AperFunction,ViaPad*%
%ADD42C,0.600000*%
%TD*%
%TA.AperFunction,Conductor*%
%ADD43C,0.200000*%
%TD*%
G04 APERTURE END LIST*
D10*
D11*
X170883082Y-53329400D02*
X171097368Y-53400828D01*
X171097368Y-53400828D02*
X171454510Y-53400828D01*
X171454510Y-53400828D02*
X171597368Y-53329400D01*
X171597368Y-53329400D02*
X171668796Y-53257971D01*
X171668796Y-53257971D02*
X171740225Y-53115114D01*
X171740225Y-53115114D02*
X171740225Y-52972257D01*
X171740225Y-52972257D02*
X171668796Y-52829400D01*
X171668796Y-52829400D02*
X171597368Y-52757971D01*
X171597368Y-52757971D02*
X171454510Y-52686542D01*
X171454510Y-52686542D02*
X171168796Y-52615114D01*
X171168796Y-52615114D02*
X171025939Y-52543685D01*
X171025939Y-52543685D02*
X170954510Y-52472257D01*
X170954510Y-52472257D02*
X170883082Y-52329400D01*
X170883082Y-52329400D02*
X170883082Y-52186542D01*
X170883082Y-52186542D02*
X170954510Y-52043685D01*
X170954510Y-52043685D02*
X171025939Y-51972257D01*
X171025939Y-51972257D02*
X171168796Y-51900828D01*
X171168796Y-51900828D02*
X171525939Y-51900828D01*
X171525939Y-51900828D02*
X171740225Y-51972257D01*
X172383081Y-53400828D02*
X172383081Y-51900828D01*
X172383081Y-51900828D02*
X172740224Y-51900828D01*
X172740224Y-51900828D02*
X172954510Y-51972257D01*
X172954510Y-51972257D02*
X173097367Y-52115114D01*
X173097367Y-52115114D02*
X173168796Y-52257971D01*
X173168796Y-52257971D02*
X173240224Y-52543685D01*
X173240224Y-52543685D02*
X173240224Y-52757971D01*
X173240224Y-52757971D02*
X173168796Y-53043685D01*
X173168796Y-53043685D02*
X173097367Y-53186542D01*
X173097367Y-53186542D02*
X172954510Y-53329400D01*
X172954510Y-53329400D02*
X172740224Y-53400828D01*
X172740224Y-53400828D02*
X172383081Y-53400828D01*
X175883081Y-53257971D02*
X175811653Y-53329400D01*
X175811653Y-53329400D02*
X175597367Y-53400828D01*
X175597367Y-53400828D02*
X175454510Y-53400828D01*
X175454510Y-53400828D02*
X175240224Y-53329400D01*
X175240224Y-53329400D02*
X175097367Y-53186542D01*
X175097367Y-53186542D02*
X175025938Y-53043685D01*
X175025938Y-53043685D02*
X174954510Y-52757971D01*
X174954510Y-52757971D02*
X174954510Y-52543685D01*
X174954510Y-52543685D02*
X175025938Y-52257971D01*
X175025938Y-52257971D02*
X175097367Y-52115114D01*
X175097367Y-52115114D02*
X175240224Y-51972257D01*
X175240224Y-51972257D02*
X175454510Y-51900828D01*
X175454510Y-51900828D02*
X175597367Y-51900828D01*
X175597367Y-51900828D02*
X175811653Y-51972257D01*
X175811653Y-51972257D02*
X175883081Y-52043685D01*
X176454510Y-52972257D02*
X177168796Y-52972257D01*
X176311653Y-53400828D02*
X176811653Y-51900828D01*
X176811653Y-51900828D02*
X177311653Y-53400828D01*
X178668795Y-53400828D02*
X178168795Y-52686542D01*
X177811652Y-53400828D02*
X177811652Y-51900828D01*
X177811652Y-51900828D02*
X178383081Y-51900828D01*
X178383081Y-51900828D02*
X178525938Y-51972257D01*
X178525938Y-51972257D02*
X178597367Y-52043685D01*
X178597367Y-52043685D02*
X178668795Y-52186542D01*
X178668795Y-52186542D02*
X178668795Y-52400828D01*
X178668795Y-52400828D02*
X178597367Y-52543685D01*
X178597367Y-52543685D02*
X178525938Y-52615114D01*
X178525938Y-52615114D02*
X178383081Y-52686542D01*
X178383081Y-52686542D02*
X177811652Y-52686542D01*
X179311652Y-53400828D02*
X179311652Y-51900828D01*
X179311652Y-51900828D02*
X179668795Y-51900828D01*
X179668795Y-51900828D02*
X179883081Y-51972257D01*
X179883081Y-51972257D02*
X180025938Y-52115114D01*
X180025938Y-52115114D02*
X180097367Y-52257971D01*
X180097367Y-52257971D02*
X180168795Y-52543685D01*
X180168795Y-52543685D02*
X180168795Y-52757971D01*
X180168795Y-52757971D02*
X180097367Y-53043685D01*
X180097367Y-53043685D02*
X180025938Y-53186542D01*
X180025938Y-53186542D02*
X179883081Y-53329400D01*
X179883081Y-53329400D02*
X179668795Y-53400828D01*
X179668795Y-53400828D02*
X179311652Y-53400828D01*
D10*
D11*
X120954510Y-39215114D02*
X121454510Y-39215114D01*
X121668796Y-40000828D02*
X120954510Y-40000828D01*
X120954510Y-40000828D02*
X120954510Y-38500828D01*
X120954510Y-38500828D02*
X121668796Y-38500828D01*
X123025939Y-40000828D02*
X122311653Y-40000828D01*
X122311653Y-40000828D02*
X122311653Y-38500828D01*
X123525939Y-39215114D02*
X124025939Y-39215114D01*
X124240225Y-40000828D02*
X123525939Y-40000828D01*
X123525939Y-40000828D02*
X123525939Y-38500828D01*
X123525939Y-38500828D02*
X124240225Y-38500828D01*
X125740225Y-39857971D02*
X125668797Y-39929400D01*
X125668797Y-39929400D02*
X125454511Y-40000828D01*
X125454511Y-40000828D02*
X125311654Y-40000828D01*
X125311654Y-40000828D02*
X125097368Y-39929400D01*
X125097368Y-39929400D02*
X124954511Y-39786542D01*
X124954511Y-39786542D02*
X124883082Y-39643685D01*
X124883082Y-39643685D02*
X124811654Y-39357971D01*
X124811654Y-39357971D02*
X124811654Y-39143685D01*
X124811654Y-39143685D02*
X124883082Y-38857971D01*
X124883082Y-38857971D02*
X124954511Y-38715114D01*
X124954511Y-38715114D02*
X125097368Y-38572257D01*
X125097368Y-38572257D02*
X125311654Y-38500828D01*
X125311654Y-38500828D02*
X125454511Y-38500828D01*
X125454511Y-38500828D02*
X125668797Y-38572257D01*
X125668797Y-38572257D02*
X125740225Y-38643685D01*
X127383082Y-38500828D02*
X128311654Y-38500828D01*
X128311654Y-38500828D02*
X127811654Y-39072257D01*
X127811654Y-39072257D02*
X128025939Y-39072257D01*
X128025939Y-39072257D02*
X128168797Y-39143685D01*
X128168797Y-39143685D02*
X128240225Y-39215114D01*
X128240225Y-39215114D02*
X128311654Y-39357971D01*
X128311654Y-39357971D02*
X128311654Y-39715114D01*
X128311654Y-39715114D02*
X128240225Y-39857971D01*
X128240225Y-39857971D02*
X128168797Y-39929400D01*
X128168797Y-39929400D02*
X128025939Y-40000828D01*
X128025939Y-40000828D02*
X127597368Y-40000828D01*
X127597368Y-40000828D02*
X127454511Y-39929400D01*
X127454511Y-39929400D02*
X127383082Y-39857971D01*
X128883082Y-38643685D02*
X128954510Y-38572257D01*
X128954510Y-38572257D02*
X129097368Y-38500828D01*
X129097368Y-38500828D02*
X129454510Y-38500828D01*
X129454510Y-38500828D02*
X129597368Y-38572257D01*
X129597368Y-38572257D02*
X129668796Y-38643685D01*
X129668796Y-38643685D02*
X129740225Y-38786542D01*
X129740225Y-38786542D02*
X129740225Y-38929400D01*
X129740225Y-38929400D02*
X129668796Y-39143685D01*
X129668796Y-39143685D02*
X128811653Y-40000828D01*
X128811653Y-40000828D02*
X129740225Y-40000828D01*
X130240224Y-38500828D02*
X131240224Y-38500828D01*
X131240224Y-38500828D02*
X130597367Y-40000828D01*
D10*
D11*
X120883082Y-42129400D02*
X121025939Y-42200828D01*
X121025939Y-42200828D02*
X121311653Y-42200828D01*
X121311653Y-42200828D02*
X121454510Y-42129400D01*
X121454510Y-42129400D02*
X121525939Y-41986542D01*
X121525939Y-41986542D02*
X121525939Y-41915114D01*
X121525939Y-41915114D02*
X121454510Y-41772257D01*
X121454510Y-41772257D02*
X121311653Y-41700828D01*
X121311653Y-41700828D02*
X121097368Y-41700828D01*
X121097368Y-41700828D02*
X120954510Y-41629400D01*
X120954510Y-41629400D02*
X120883082Y-41486542D01*
X120883082Y-41486542D02*
X120883082Y-41415114D01*
X120883082Y-41415114D02*
X120954510Y-41272257D01*
X120954510Y-41272257D02*
X121097368Y-41200828D01*
X121097368Y-41200828D02*
X121311653Y-41200828D01*
X121311653Y-41200828D02*
X121454510Y-41272257D01*
X122811654Y-42200828D02*
X122811654Y-41415114D01*
X122811654Y-41415114D02*
X122740225Y-41272257D01*
X122740225Y-41272257D02*
X122597368Y-41200828D01*
X122597368Y-41200828D02*
X122311654Y-41200828D01*
X122311654Y-41200828D02*
X122168796Y-41272257D01*
X122811654Y-42129400D02*
X122668796Y-42200828D01*
X122668796Y-42200828D02*
X122311654Y-42200828D01*
X122311654Y-42200828D02*
X122168796Y-42129400D01*
X122168796Y-42129400D02*
X122097368Y-41986542D01*
X122097368Y-41986542D02*
X122097368Y-41843685D01*
X122097368Y-41843685D02*
X122168796Y-41700828D01*
X122168796Y-41700828D02*
X122311654Y-41629400D01*
X122311654Y-41629400D02*
X122668796Y-41629400D01*
X122668796Y-41629400D02*
X122811654Y-41557971D01*
X123525939Y-41200828D02*
X123525939Y-42200828D01*
X123525939Y-41343685D02*
X123597368Y-41272257D01*
X123597368Y-41272257D02*
X123740225Y-41200828D01*
X123740225Y-41200828D02*
X123954511Y-41200828D01*
X123954511Y-41200828D02*
X124097368Y-41272257D01*
X124097368Y-41272257D02*
X124168797Y-41415114D01*
X124168797Y-41415114D02*
X124168797Y-42200828D01*
X125525940Y-42200828D02*
X125525940Y-40700828D01*
X125525940Y-42129400D02*
X125383082Y-42200828D01*
X125383082Y-42200828D02*
X125097368Y-42200828D01*
X125097368Y-42200828D02*
X124954511Y-42129400D01*
X124954511Y-42129400D02*
X124883082Y-42057971D01*
X124883082Y-42057971D02*
X124811654Y-41915114D01*
X124811654Y-41915114D02*
X124811654Y-41486542D01*
X124811654Y-41486542D02*
X124883082Y-41343685D01*
X124883082Y-41343685D02*
X124954511Y-41272257D01*
X124954511Y-41272257D02*
X125097368Y-41200828D01*
X125097368Y-41200828D02*
X125383082Y-41200828D01*
X125383082Y-41200828D02*
X125525940Y-41272257D01*
X126811654Y-42129400D02*
X126668797Y-42200828D01*
X126668797Y-42200828D02*
X126383083Y-42200828D01*
X126383083Y-42200828D02*
X126240225Y-42129400D01*
X126240225Y-42129400D02*
X126168797Y-41986542D01*
X126168797Y-41986542D02*
X126168797Y-41415114D01*
X126168797Y-41415114D02*
X126240225Y-41272257D01*
X126240225Y-41272257D02*
X126383083Y-41200828D01*
X126383083Y-41200828D02*
X126668797Y-41200828D01*
X126668797Y-41200828D02*
X126811654Y-41272257D01*
X126811654Y-41272257D02*
X126883083Y-41415114D01*
X126883083Y-41415114D02*
X126883083Y-41557971D01*
X126883083Y-41557971D02*
X126168797Y-41700828D01*
X128097368Y-42129400D02*
X127954511Y-42200828D01*
X127954511Y-42200828D02*
X127668797Y-42200828D01*
X127668797Y-42200828D02*
X127525939Y-42129400D01*
X127525939Y-42129400D02*
X127454511Y-41986542D01*
X127454511Y-41986542D02*
X127454511Y-41415114D01*
X127454511Y-41415114D02*
X127525939Y-41272257D01*
X127525939Y-41272257D02*
X127668797Y-41200828D01*
X127668797Y-41200828D02*
X127954511Y-41200828D01*
X127954511Y-41200828D02*
X128097368Y-41272257D01*
X128097368Y-41272257D02*
X128168797Y-41415114D01*
X128168797Y-41415114D02*
X128168797Y-41557971D01*
X128168797Y-41557971D02*
X127454511Y-41700828D01*
X128811653Y-41200828D02*
X128811653Y-42700828D01*
X128811653Y-41272257D02*
X128954511Y-41200828D01*
X128954511Y-41200828D02*
X129240225Y-41200828D01*
X129240225Y-41200828D02*
X129383082Y-41272257D01*
X129383082Y-41272257D02*
X129454511Y-41343685D01*
X129454511Y-41343685D02*
X129525939Y-41486542D01*
X129525939Y-41486542D02*
X129525939Y-41915114D01*
X129525939Y-41915114D02*
X129454511Y-42057971D01*
X129454511Y-42057971D02*
X129383082Y-42129400D01*
X129383082Y-42129400D02*
X129240225Y-42200828D01*
X129240225Y-42200828D02*
X128954511Y-42200828D01*
X128954511Y-42200828D02*
X128811653Y-42129400D01*
X130240225Y-42129400D02*
X130240225Y-42200828D01*
X130240225Y-42200828D02*
X130168796Y-42343685D01*
X130168796Y-42343685D02*
X130097368Y-42415114D01*
X131883082Y-41200828D02*
X132668797Y-41200828D01*
X132668797Y-41200828D02*
X131883082Y-42200828D01*
X131883082Y-42200828D02*
X132668797Y-42200828D01*
X133883083Y-42200828D02*
X133883083Y-41415114D01*
X133883083Y-41415114D02*
X133811654Y-41272257D01*
X133811654Y-41272257D02*
X133668797Y-41200828D01*
X133668797Y-41200828D02*
X133383083Y-41200828D01*
X133383083Y-41200828D02*
X133240225Y-41272257D01*
X133883083Y-42129400D02*
X133740225Y-42200828D01*
X133740225Y-42200828D02*
X133383083Y-42200828D01*
X133383083Y-42200828D02*
X133240225Y-42129400D01*
X133240225Y-42129400D02*
X133168797Y-41986542D01*
X133168797Y-41986542D02*
X133168797Y-41843685D01*
X133168797Y-41843685D02*
X133240225Y-41700828D01*
X133240225Y-41700828D02*
X133383083Y-41629400D01*
X133383083Y-41629400D02*
X133740225Y-41629400D01*
X133740225Y-41629400D02*
X133883083Y-41557971D01*
X134597368Y-41200828D02*
X134597368Y-42200828D01*
X134597368Y-41343685D02*
X134668797Y-41272257D01*
X134668797Y-41272257D02*
X134811654Y-41200828D01*
X134811654Y-41200828D02*
X135025940Y-41200828D01*
X135025940Y-41200828D02*
X135168797Y-41272257D01*
X135168797Y-41272257D02*
X135240226Y-41415114D01*
X135240226Y-41415114D02*
X135240226Y-42200828D01*
X136525940Y-42129400D02*
X136383083Y-42200828D01*
X136383083Y-42200828D02*
X136097369Y-42200828D01*
X136097369Y-42200828D02*
X135954511Y-42129400D01*
X135954511Y-42129400D02*
X135883083Y-41986542D01*
X135883083Y-41986542D02*
X135883083Y-41415114D01*
X135883083Y-41415114D02*
X135954511Y-41272257D01*
X135954511Y-41272257D02*
X136097369Y-41200828D01*
X136097369Y-41200828D02*
X136383083Y-41200828D01*
X136383083Y-41200828D02*
X136525940Y-41272257D01*
X136525940Y-41272257D02*
X136597369Y-41415114D01*
X136597369Y-41415114D02*
X136597369Y-41557971D01*
X136597369Y-41557971D02*
X135883083Y-41700828D01*
X139025940Y-42200828D02*
X139025940Y-41415114D01*
X139025940Y-41415114D02*
X138954511Y-41272257D01*
X138954511Y-41272257D02*
X138811654Y-41200828D01*
X138811654Y-41200828D02*
X138525940Y-41200828D01*
X138525940Y-41200828D02*
X138383082Y-41272257D01*
X139025940Y-42129400D02*
X138883082Y-42200828D01*
X138883082Y-42200828D02*
X138525940Y-42200828D01*
X138525940Y-42200828D02*
X138383082Y-42129400D01*
X138383082Y-42129400D02*
X138311654Y-41986542D01*
X138311654Y-41986542D02*
X138311654Y-41843685D01*
X138311654Y-41843685D02*
X138383082Y-41700828D01*
X138383082Y-41700828D02*
X138525940Y-41629400D01*
X138525940Y-41629400D02*
X138883082Y-41629400D01*
X138883082Y-41629400D02*
X139025940Y-41557971D01*
X139740225Y-41200828D02*
X139740225Y-42200828D01*
X139740225Y-41343685D02*
X139811654Y-41272257D01*
X139811654Y-41272257D02*
X139954511Y-41200828D01*
X139954511Y-41200828D02*
X140168797Y-41200828D01*
X140168797Y-41200828D02*
X140311654Y-41272257D01*
X140311654Y-41272257D02*
X140383083Y-41415114D01*
X140383083Y-41415114D02*
X140383083Y-42200828D01*
X141740226Y-42200828D02*
X141740226Y-40700828D01*
X141740226Y-42129400D02*
X141597368Y-42200828D01*
X141597368Y-42200828D02*
X141311654Y-42200828D01*
X141311654Y-42200828D02*
X141168797Y-42129400D01*
X141168797Y-42129400D02*
X141097368Y-42057971D01*
X141097368Y-42057971D02*
X141025940Y-41915114D01*
X141025940Y-41915114D02*
X141025940Y-41486542D01*
X141025940Y-41486542D02*
X141097368Y-41343685D01*
X141097368Y-41343685D02*
X141168797Y-41272257D01*
X141168797Y-41272257D02*
X141311654Y-41200828D01*
X141311654Y-41200828D02*
X141597368Y-41200828D01*
X141597368Y-41200828D02*
X141740226Y-41272257D01*
X144240226Y-42200828D02*
X144240226Y-41415114D01*
X144240226Y-41415114D02*
X144168797Y-41272257D01*
X144168797Y-41272257D02*
X144025940Y-41200828D01*
X144025940Y-41200828D02*
X143740226Y-41200828D01*
X143740226Y-41200828D02*
X143597368Y-41272257D01*
X144240226Y-42129400D02*
X144097368Y-42200828D01*
X144097368Y-42200828D02*
X143740226Y-42200828D01*
X143740226Y-42200828D02*
X143597368Y-42129400D01*
X143597368Y-42129400D02*
X143525940Y-41986542D01*
X143525940Y-41986542D02*
X143525940Y-41843685D01*
X143525940Y-41843685D02*
X143597368Y-41700828D01*
X143597368Y-41700828D02*
X143740226Y-41629400D01*
X143740226Y-41629400D02*
X144097368Y-41629400D01*
X144097368Y-41629400D02*
X144240226Y-41557971D01*
X144883083Y-42129400D02*
X145025940Y-42200828D01*
X145025940Y-42200828D02*
X145311654Y-42200828D01*
X145311654Y-42200828D02*
X145454511Y-42129400D01*
X145454511Y-42129400D02*
X145525940Y-41986542D01*
X145525940Y-41986542D02*
X145525940Y-41915114D01*
X145525940Y-41915114D02*
X145454511Y-41772257D01*
X145454511Y-41772257D02*
X145311654Y-41700828D01*
X145311654Y-41700828D02*
X145097369Y-41700828D01*
X145097369Y-41700828D02*
X144954511Y-41629400D01*
X144954511Y-41629400D02*
X144883083Y-41486542D01*
X144883083Y-41486542D02*
X144883083Y-41415114D01*
X144883083Y-41415114D02*
X144954511Y-41272257D01*
X144954511Y-41272257D02*
X145097369Y-41200828D01*
X145097369Y-41200828D02*
X145311654Y-41200828D01*
X145311654Y-41200828D02*
X145454511Y-41272257D01*
X146168797Y-42200828D02*
X146168797Y-40700828D01*
X146811655Y-42200828D02*
X146811655Y-41415114D01*
X146811655Y-41415114D02*
X146740226Y-41272257D01*
X146740226Y-41272257D02*
X146597369Y-41200828D01*
X146597369Y-41200828D02*
X146383083Y-41200828D01*
X146383083Y-41200828D02*
X146240226Y-41272257D01*
X146240226Y-41272257D02*
X146168797Y-41343685D01*
X147525940Y-42200828D02*
X147525940Y-41200828D01*
X147525940Y-41343685D02*
X147597369Y-41272257D01*
X147597369Y-41272257D02*
X147740226Y-41200828D01*
X147740226Y-41200828D02*
X147954512Y-41200828D01*
X147954512Y-41200828D02*
X148097369Y-41272257D01*
X148097369Y-41272257D02*
X148168798Y-41415114D01*
X148168798Y-41415114D02*
X148168798Y-42200828D01*
X148168798Y-41415114D02*
X148240226Y-41272257D01*
X148240226Y-41272257D02*
X148383083Y-41200828D01*
X148383083Y-41200828D02*
X148597369Y-41200828D01*
X148597369Y-41200828D02*
X148740226Y-41272257D01*
X148740226Y-41272257D02*
X148811655Y-41415114D01*
X148811655Y-41415114D02*
X148811655Y-42200828D01*
X149525940Y-42200828D02*
X149525940Y-41200828D01*
X149525940Y-40700828D02*
X149454512Y-40772257D01*
X149454512Y-40772257D02*
X149525940Y-40843685D01*
X149525940Y-40843685D02*
X149597369Y-40772257D01*
X149597369Y-40772257D02*
X149525940Y-40700828D01*
X149525940Y-40700828D02*
X149525940Y-40843685D01*
X150025941Y-41200828D02*
X150597369Y-41200828D01*
X150240226Y-40700828D02*
X150240226Y-41986542D01*
X150240226Y-41986542D02*
X150311655Y-42129400D01*
X150311655Y-42129400D02*
X150454512Y-42200828D01*
X150454512Y-42200828D02*
X150597369Y-42200828D01*
X151097369Y-42200828D02*
X151097369Y-40700828D01*
X151740227Y-42200828D02*
X151740227Y-41415114D01*
X151740227Y-41415114D02*
X151668798Y-41272257D01*
X151668798Y-41272257D02*
X151525941Y-41200828D01*
X151525941Y-41200828D02*
X151311655Y-41200828D01*
X151311655Y-41200828D02*
X151168798Y-41272257D01*
X151168798Y-41272257D02*
X151097369Y-41343685D01*
D10*
D11*
X121954510Y-75300828D02*
X121954510Y-76515114D01*
X121954510Y-76515114D02*
X122025939Y-76657971D01*
X122025939Y-76657971D02*
X122097368Y-76729400D01*
X122097368Y-76729400D02*
X122240225Y-76800828D01*
X122240225Y-76800828D02*
X122525939Y-76800828D01*
X122525939Y-76800828D02*
X122668796Y-76729400D01*
X122668796Y-76729400D02*
X122740225Y-76657971D01*
X122740225Y-76657971D02*
X122811653Y-76515114D01*
X122811653Y-76515114D02*
X122811653Y-75300828D01*
X123454511Y-76729400D02*
X123668797Y-76800828D01*
X123668797Y-76800828D02*
X124025939Y-76800828D01*
X124025939Y-76800828D02*
X124168797Y-76729400D01*
X124168797Y-76729400D02*
X124240225Y-76657971D01*
X124240225Y-76657971D02*
X124311654Y-76515114D01*
X124311654Y-76515114D02*
X124311654Y-76372257D01*
X124311654Y-76372257D02*
X124240225Y-76229400D01*
X124240225Y-76229400D02*
X124168797Y-76157971D01*
X124168797Y-76157971D02*
X124025939Y-76086542D01*
X124025939Y-76086542D02*
X123740225Y-76015114D01*
X123740225Y-76015114D02*
X123597368Y-75943685D01*
X123597368Y-75943685D02*
X123525939Y-75872257D01*
X123525939Y-75872257D02*
X123454511Y-75729400D01*
X123454511Y-75729400D02*
X123454511Y-75586542D01*
X123454511Y-75586542D02*
X123525939Y-75443685D01*
X123525939Y-75443685D02*
X123597368Y-75372257D01*
X123597368Y-75372257D02*
X123740225Y-75300828D01*
X123740225Y-75300828D02*
X124097368Y-75300828D01*
X124097368Y-75300828D02*
X124311654Y-75372257D01*
X125454510Y-76015114D02*
X125668796Y-76086542D01*
X125668796Y-76086542D02*
X125740225Y-76157971D01*
X125740225Y-76157971D02*
X125811653Y-76300828D01*
X125811653Y-76300828D02*
X125811653Y-76515114D01*
X125811653Y-76515114D02*
X125740225Y-76657971D01*
X125740225Y-76657971D02*
X125668796Y-76729400D01*
X125668796Y-76729400D02*
X125525939Y-76800828D01*
X125525939Y-76800828D02*
X124954510Y-76800828D01*
X124954510Y-76800828D02*
X124954510Y-75300828D01*
X124954510Y-75300828D02*
X125454510Y-75300828D01*
X125454510Y-75300828D02*
X125597368Y-75372257D01*
X125597368Y-75372257D02*
X125668796Y-75443685D01*
X125668796Y-75443685D02*
X125740225Y-75586542D01*
X125740225Y-75586542D02*
X125740225Y-75729400D01*
X125740225Y-75729400D02*
X125668796Y-75872257D01*
X125668796Y-75872257D02*
X125597368Y-75943685D01*
X125597368Y-75943685D02*
X125454510Y-76015114D01*
X125454510Y-76015114D02*
X124954510Y-76015114D01*
D10*
D11*
X120754510Y-37000828D02*
X120754510Y-35500828D01*
X120754510Y-36215114D02*
X121611653Y-36215114D01*
X121611653Y-37000828D02*
X121611653Y-35500828D01*
X122325939Y-37000828D02*
X122325939Y-36000828D01*
X122325939Y-35500828D02*
X122254511Y-35572257D01*
X122254511Y-35572257D02*
X122325939Y-35643685D01*
X122325939Y-35643685D02*
X122397368Y-35572257D01*
X122397368Y-35572257D02*
X122325939Y-35500828D01*
X122325939Y-35500828D02*
X122325939Y-35643685D01*
X123683083Y-36000828D02*
X123683083Y-37215114D01*
X123683083Y-37215114D02*
X123611654Y-37357971D01*
X123611654Y-37357971D02*
X123540225Y-37429400D01*
X123540225Y-37429400D02*
X123397368Y-37500828D01*
X123397368Y-37500828D02*
X123183083Y-37500828D01*
X123183083Y-37500828D02*
X123040225Y-37429400D01*
X123683083Y-36929400D02*
X123540225Y-37000828D01*
X123540225Y-37000828D02*
X123254511Y-37000828D01*
X123254511Y-37000828D02*
X123111654Y-36929400D01*
X123111654Y-36929400D02*
X123040225Y-36857971D01*
X123040225Y-36857971D02*
X122968797Y-36715114D01*
X122968797Y-36715114D02*
X122968797Y-36286542D01*
X122968797Y-36286542D02*
X123040225Y-36143685D01*
X123040225Y-36143685D02*
X123111654Y-36072257D01*
X123111654Y-36072257D02*
X123254511Y-36000828D01*
X123254511Y-36000828D02*
X123540225Y-36000828D01*
X123540225Y-36000828D02*
X123683083Y-36072257D01*
X124397368Y-37000828D02*
X124397368Y-35500828D01*
X125040226Y-37000828D02*
X125040226Y-36215114D01*
X125040226Y-36215114D02*
X124968797Y-36072257D01*
X124968797Y-36072257D02*
X124825940Y-36000828D01*
X124825940Y-36000828D02*
X124611654Y-36000828D01*
X124611654Y-36000828D02*
X124468797Y-36072257D01*
X124468797Y-36072257D02*
X124397368Y-36143685D01*
X126825940Y-36572257D02*
X127540226Y-36572257D01*
X126683083Y-37000828D02*
X127183083Y-35500828D01*
X127183083Y-35500828D02*
X127683083Y-37000828D01*
X128397368Y-37000828D02*
X128254511Y-36929400D01*
X128254511Y-36929400D02*
X128183082Y-36786542D01*
X128183082Y-36786542D02*
X128183082Y-35500828D01*
X128754511Y-36000828D02*
X129325939Y-36000828D01*
X128968796Y-35500828D02*
X128968796Y-36786542D01*
X128968796Y-36786542D02*
X129040225Y-36929400D01*
X129040225Y-36929400D02*
X129183082Y-37000828D01*
X129183082Y-37000828D02*
X129325939Y-37000828D01*
X129825939Y-37000828D02*
X129825939Y-36000828D01*
X129825939Y-35500828D02*
X129754511Y-35572257D01*
X129754511Y-35572257D02*
X129825939Y-35643685D01*
X129825939Y-35643685D02*
X129897368Y-35572257D01*
X129897368Y-35572257D02*
X129825939Y-35500828D01*
X129825939Y-35500828D02*
X129825939Y-35643685D01*
X130325940Y-36000828D02*
X130897368Y-36000828D01*
X130540225Y-35500828D02*
X130540225Y-36786542D01*
X130540225Y-36786542D02*
X130611654Y-36929400D01*
X130611654Y-36929400D02*
X130754511Y-37000828D01*
X130754511Y-37000828D02*
X130897368Y-37000828D01*
X132040226Y-36000828D02*
X132040226Y-37000828D01*
X131397368Y-36000828D02*
X131397368Y-36786542D01*
X131397368Y-36786542D02*
X131468797Y-36929400D01*
X131468797Y-36929400D02*
X131611654Y-37000828D01*
X131611654Y-37000828D02*
X131825940Y-37000828D01*
X131825940Y-37000828D02*
X131968797Y-36929400D01*
X131968797Y-36929400D02*
X132040226Y-36857971D01*
X133397369Y-37000828D02*
X133397369Y-35500828D01*
X133397369Y-36929400D02*
X133254511Y-37000828D01*
X133254511Y-37000828D02*
X132968797Y-37000828D01*
X132968797Y-37000828D02*
X132825940Y-36929400D01*
X132825940Y-36929400D02*
X132754511Y-36857971D01*
X132754511Y-36857971D02*
X132683083Y-36715114D01*
X132683083Y-36715114D02*
X132683083Y-36286542D01*
X132683083Y-36286542D02*
X132754511Y-36143685D01*
X132754511Y-36143685D02*
X132825940Y-36072257D01*
X132825940Y-36072257D02*
X132968797Y-36000828D01*
X132968797Y-36000828D02*
X133254511Y-36000828D01*
X133254511Y-36000828D02*
X133397369Y-36072257D01*
X134683083Y-36929400D02*
X134540226Y-37000828D01*
X134540226Y-37000828D02*
X134254512Y-37000828D01*
X134254512Y-37000828D02*
X134111654Y-36929400D01*
X134111654Y-36929400D02*
X134040226Y-36786542D01*
X134040226Y-36786542D02*
X134040226Y-36215114D01*
X134040226Y-36215114D02*
X134111654Y-36072257D01*
X134111654Y-36072257D02*
X134254512Y-36000828D01*
X134254512Y-36000828D02*
X134540226Y-36000828D01*
X134540226Y-36000828D02*
X134683083Y-36072257D01*
X134683083Y-36072257D02*
X134754512Y-36215114D01*
X134754512Y-36215114D02*
X134754512Y-36357971D01*
X134754512Y-36357971D02*
X134040226Y-36500828D01*
X137040225Y-36215114D02*
X137254511Y-36286542D01*
X137254511Y-36286542D02*
X137325940Y-36357971D01*
X137325940Y-36357971D02*
X137397368Y-36500828D01*
X137397368Y-36500828D02*
X137397368Y-36715114D01*
X137397368Y-36715114D02*
X137325940Y-36857971D01*
X137325940Y-36857971D02*
X137254511Y-36929400D01*
X137254511Y-36929400D02*
X137111654Y-37000828D01*
X137111654Y-37000828D02*
X136540225Y-37000828D01*
X136540225Y-37000828D02*
X136540225Y-35500828D01*
X136540225Y-35500828D02*
X137040225Y-35500828D01*
X137040225Y-35500828D02*
X137183083Y-35572257D01*
X137183083Y-35572257D02*
X137254511Y-35643685D01*
X137254511Y-35643685D02*
X137325940Y-35786542D01*
X137325940Y-35786542D02*
X137325940Y-35929400D01*
X137325940Y-35929400D02*
X137254511Y-36072257D01*
X137254511Y-36072257D02*
X137183083Y-36143685D01*
X137183083Y-36143685D02*
X137040225Y-36215114D01*
X137040225Y-36215114D02*
X136540225Y-36215114D01*
X138683083Y-37000828D02*
X138683083Y-36215114D01*
X138683083Y-36215114D02*
X138611654Y-36072257D01*
X138611654Y-36072257D02*
X138468797Y-36000828D01*
X138468797Y-36000828D02*
X138183083Y-36000828D01*
X138183083Y-36000828D02*
X138040225Y-36072257D01*
X138683083Y-36929400D02*
X138540225Y-37000828D01*
X138540225Y-37000828D02*
X138183083Y-37000828D01*
X138183083Y-37000828D02*
X138040225Y-36929400D01*
X138040225Y-36929400D02*
X137968797Y-36786542D01*
X137968797Y-36786542D02*
X137968797Y-36643685D01*
X137968797Y-36643685D02*
X138040225Y-36500828D01*
X138040225Y-36500828D02*
X138183083Y-36429400D01*
X138183083Y-36429400D02*
X138540225Y-36429400D01*
X138540225Y-36429400D02*
X138683083Y-36357971D01*
X139611654Y-37000828D02*
X139468797Y-36929400D01*
X139468797Y-36929400D02*
X139397368Y-36786542D01*
X139397368Y-36786542D02*
X139397368Y-35500828D01*
X140397368Y-37000828D02*
X140254511Y-36929400D01*
X140254511Y-36929400D02*
X140183082Y-36786542D01*
X140183082Y-36786542D02*
X140183082Y-35500828D01*
X141183082Y-37000828D02*
X141040225Y-36929400D01*
X141040225Y-36929400D02*
X140968796Y-36857971D01*
X140968796Y-36857971D02*
X140897368Y-36715114D01*
X140897368Y-36715114D02*
X140897368Y-36286542D01*
X140897368Y-36286542D02*
X140968796Y-36143685D01*
X140968796Y-36143685D02*
X141040225Y-36072257D01*
X141040225Y-36072257D02*
X141183082Y-36000828D01*
X141183082Y-36000828D02*
X141397368Y-36000828D01*
X141397368Y-36000828D02*
X141540225Y-36072257D01*
X141540225Y-36072257D02*
X141611654Y-36143685D01*
X141611654Y-36143685D02*
X141683082Y-36286542D01*
X141683082Y-36286542D02*
X141683082Y-36715114D01*
X141683082Y-36715114D02*
X141611654Y-36857971D01*
X141611654Y-36857971D02*
X141540225Y-36929400D01*
X141540225Y-36929400D02*
X141397368Y-37000828D01*
X141397368Y-37000828D02*
X141183082Y-37000828D01*
X142540225Y-37000828D02*
X142397368Y-36929400D01*
X142397368Y-36929400D02*
X142325939Y-36857971D01*
X142325939Y-36857971D02*
X142254511Y-36715114D01*
X142254511Y-36715114D02*
X142254511Y-36286542D01*
X142254511Y-36286542D02*
X142325939Y-36143685D01*
X142325939Y-36143685D02*
X142397368Y-36072257D01*
X142397368Y-36072257D02*
X142540225Y-36000828D01*
X142540225Y-36000828D02*
X142754511Y-36000828D01*
X142754511Y-36000828D02*
X142897368Y-36072257D01*
X142897368Y-36072257D02*
X142968797Y-36143685D01*
X142968797Y-36143685D02*
X143040225Y-36286542D01*
X143040225Y-36286542D02*
X143040225Y-36715114D01*
X143040225Y-36715114D02*
X142968797Y-36857971D01*
X142968797Y-36857971D02*
X142897368Y-36929400D01*
X142897368Y-36929400D02*
X142754511Y-37000828D01*
X142754511Y-37000828D02*
X142540225Y-37000828D01*
X143683082Y-36000828D02*
X143683082Y-37000828D01*
X143683082Y-36143685D02*
X143754511Y-36072257D01*
X143754511Y-36072257D02*
X143897368Y-36000828D01*
X143897368Y-36000828D02*
X144111654Y-36000828D01*
X144111654Y-36000828D02*
X144254511Y-36072257D01*
X144254511Y-36072257D02*
X144325940Y-36215114D01*
X144325940Y-36215114D02*
X144325940Y-37000828D01*
X146183082Y-37000828D02*
X146183082Y-35500828D01*
X146183082Y-35500828D02*
X146754511Y-35500828D01*
X146754511Y-35500828D02*
X146897368Y-35572257D01*
X146897368Y-35572257D02*
X146968797Y-35643685D01*
X146968797Y-35643685D02*
X147040225Y-35786542D01*
X147040225Y-35786542D02*
X147040225Y-36000828D01*
X147040225Y-36000828D02*
X146968797Y-36143685D01*
X146968797Y-36143685D02*
X146897368Y-36215114D01*
X146897368Y-36215114D02*
X146754511Y-36286542D01*
X146754511Y-36286542D02*
X146183082Y-36286542D01*
X148540225Y-36857971D02*
X148468797Y-36929400D01*
X148468797Y-36929400D02*
X148254511Y-37000828D01*
X148254511Y-37000828D02*
X148111654Y-37000828D01*
X148111654Y-37000828D02*
X147897368Y-36929400D01*
X147897368Y-36929400D02*
X147754511Y-36786542D01*
X147754511Y-36786542D02*
X147683082Y-36643685D01*
X147683082Y-36643685D02*
X147611654Y-36357971D01*
X147611654Y-36357971D02*
X147611654Y-36143685D01*
X147611654Y-36143685D02*
X147683082Y-35857971D01*
X147683082Y-35857971D02*
X147754511Y-35715114D01*
X147754511Y-35715114D02*
X147897368Y-35572257D01*
X147897368Y-35572257D02*
X148111654Y-35500828D01*
X148111654Y-35500828D02*
X148254511Y-35500828D01*
X148254511Y-35500828D02*
X148468797Y-35572257D01*
X148468797Y-35572257D02*
X148540225Y-35643685D01*
X149683082Y-36215114D02*
X149897368Y-36286542D01*
X149897368Y-36286542D02*
X149968797Y-36357971D01*
X149968797Y-36357971D02*
X150040225Y-36500828D01*
X150040225Y-36500828D02*
X150040225Y-36715114D01*
X150040225Y-36715114D02*
X149968797Y-36857971D01*
X149968797Y-36857971D02*
X149897368Y-36929400D01*
X149897368Y-36929400D02*
X149754511Y-37000828D01*
X149754511Y-37000828D02*
X149183082Y-37000828D01*
X149183082Y-37000828D02*
X149183082Y-35500828D01*
X149183082Y-35500828D02*
X149683082Y-35500828D01*
X149683082Y-35500828D02*
X149825940Y-35572257D01*
X149825940Y-35572257D02*
X149897368Y-35643685D01*
X149897368Y-35643685D02*
X149968797Y-35786542D01*
X149968797Y-35786542D02*
X149968797Y-35929400D01*
X149968797Y-35929400D02*
X149897368Y-36072257D01*
X149897368Y-36072257D02*
X149825940Y-36143685D01*
X149825940Y-36143685D02*
X149683082Y-36215114D01*
X149683082Y-36215114D02*
X149183082Y-36215114D01*
X151825939Y-37000828D02*
X151825939Y-35500828D01*
D10*
D11*
X160740225Y-74572257D02*
X160597368Y-74500828D01*
X160597368Y-74500828D02*
X160383082Y-74500828D01*
X160383082Y-74500828D02*
X160168796Y-74572257D01*
X160168796Y-74572257D02*
X160025939Y-74715114D01*
X160025939Y-74715114D02*
X159954510Y-74857971D01*
X159954510Y-74857971D02*
X159883082Y-75143685D01*
X159883082Y-75143685D02*
X159883082Y-75357971D01*
X159883082Y-75357971D02*
X159954510Y-75643685D01*
X159954510Y-75643685D02*
X160025939Y-75786542D01*
X160025939Y-75786542D02*
X160168796Y-75929400D01*
X160168796Y-75929400D02*
X160383082Y-76000828D01*
X160383082Y-76000828D02*
X160525939Y-76000828D01*
X160525939Y-76000828D02*
X160740225Y-75929400D01*
X160740225Y-75929400D02*
X160811653Y-75857971D01*
X160811653Y-75857971D02*
X160811653Y-75357971D01*
X160811653Y-75357971D02*
X160525939Y-75357971D01*
X161454510Y-76000828D02*
X161454510Y-74500828D01*
X161454510Y-74500828D02*
X162025939Y-74500828D01*
X162025939Y-74500828D02*
X162168796Y-74572257D01*
X162168796Y-74572257D02*
X162240225Y-74643685D01*
X162240225Y-74643685D02*
X162311653Y-74786542D01*
X162311653Y-74786542D02*
X162311653Y-75000828D01*
X162311653Y-75000828D02*
X162240225Y-75143685D01*
X162240225Y-75143685D02*
X162168796Y-75215114D01*
X162168796Y-75215114D02*
X162025939Y-75286542D01*
X162025939Y-75286542D02*
X161454510Y-75286542D01*
X162883082Y-75929400D02*
X163097368Y-76000828D01*
X163097368Y-76000828D02*
X163454510Y-76000828D01*
X163454510Y-76000828D02*
X163597368Y-75929400D01*
X163597368Y-75929400D02*
X163668796Y-75857971D01*
X163668796Y-75857971D02*
X163740225Y-75715114D01*
X163740225Y-75715114D02*
X163740225Y-75572257D01*
X163740225Y-75572257D02*
X163668796Y-75429400D01*
X163668796Y-75429400D02*
X163597368Y-75357971D01*
X163597368Y-75357971D02*
X163454510Y-75286542D01*
X163454510Y-75286542D02*
X163168796Y-75215114D01*
X163168796Y-75215114D02*
X163025939Y-75143685D01*
X163025939Y-75143685D02*
X162954510Y-75072257D01*
X162954510Y-75072257D02*
X162883082Y-74929400D01*
X162883082Y-74929400D02*
X162883082Y-74786542D01*
X162883082Y-74786542D02*
X162954510Y-74643685D01*
X162954510Y-74643685D02*
X163025939Y-74572257D01*
X163025939Y-74572257D02*
X163168796Y-74500828D01*
X163168796Y-74500828D02*
X163525939Y-74500828D01*
X163525939Y-74500828D02*
X163740225Y-74572257D01*
D10*
D11*
X121254510Y-48800198D02*
X121468796Y-48871626D01*
X121468796Y-48871626D02*
X121540225Y-48943055D01*
X121540225Y-48943055D02*
X121611653Y-49085912D01*
X121611653Y-49085912D02*
X121611653Y-49300198D01*
X121611653Y-49300198D02*
X121540225Y-49443055D01*
X121540225Y-49443055D02*
X121468796Y-49514484D01*
X121468796Y-49514484D02*
X121325939Y-49585912D01*
X121325939Y-49585912D02*
X120754510Y-49585912D01*
X120754510Y-49585912D02*
X120754510Y-48085912D01*
X120754510Y-48085912D02*
X121254510Y-48085912D01*
X121254510Y-48085912D02*
X121397368Y-48157341D01*
X121397368Y-48157341D02*
X121468796Y-48228769D01*
X121468796Y-48228769D02*
X121540225Y-48371626D01*
X121540225Y-48371626D02*
X121540225Y-48514484D01*
X121540225Y-48514484D02*
X121468796Y-48657341D01*
X121468796Y-48657341D02*
X121397368Y-48728769D01*
X121397368Y-48728769D02*
X121254510Y-48800198D01*
X121254510Y-48800198D02*
X120754510Y-48800198D01*
X122183082Y-49157341D02*
X122897368Y-49157341D01*
X122040225Y-49585912D02*
X122540225Y-48085912D01*
X122540225Y-48085912D02*
X123040225Y-49585912D01*
X123325939Y-48085912D02*
X124183082Y-48085912D01*
X123754510Y-49585912D02*
X123754510Y-48085912D01*
X124468796Y-48085912D02*
X125325939Y-48085912D01*
X124897367Y-49585912D02*
X124897367Y-48085912D01*
X125825938Y-48800198D02*
X126325938Y-48800198D01*
X126540224Y-49585912D02*
X125825938Y-49585912D01*
X125825938Y-49585912D02*
X125825938Y-48085912D01*
X125825938Y-48085912D02*
X126540224Y-48085912D01*
X128040224Y-49585912D02*
X127540224Y-48871626D01*
X127183081Y-49585912D02*
X127183081Y-48085912D01*
X127183081Y-48085912D02*
X127754510Y-48085912D01*
X127754510Y-48085912D02*
X127897367Y-48157341D01*
X127897367Y-48157341D02*
X127968796Y-48228769D01*
X127968796Y-48228769D02*
X128040224Y-48371626D01*
X128040224Y-48371626D02*
X128040224Y-48585912D01*
X128040224Y-48585912D02*
X127968796Y-48728769D01*
X127968796Y-48728769D02*
X127897367Y-48800198D01*
X127897367Y-48800198D02*
X127754510Y-48871626D01*
X127754510Y-48871626D02*
X127183081Y-48871626D01*
X128968796Y-48871626D02*
X128968796Y-49585912D01*
X128468796Y-48085912D02*
X128968796Y-48871626D01*
X128968796Y-48871626D02*
X129468796Y-48085912D01*
D12*
%TO.P,C7,1*%
%TO.N,GND*%
X137800000Y-75000000D03*
%TO.P,C7,2*%
%TO.N,/HFXOUT*%
X138760000Y-75000000D03*
%TD*%
D13*
%TO.P,R4,1*%
%TO.N,+3.3V*%
X149690000Y-46400000D03*
%TO.P,R4,2*%
%TO.N,/I2C_SCL*%
X150710000Y-46400000D03*
%TD*%
D14*
%TO.P,U1,1,PA0_FCC_IN*%
%TO.N,unconnected-(U1-PA0_FCC_IN-Pad1)*%
X155950000Y-60348755D03*
%TO.P,U1,2,PA1*%
%TO.N,unconnected-(U1-PA1-Pad2)*%
X155450001Y-60348755D03*
%TO.P,U1,3,PA28*%
%TO.N,unconnected-(U1-PA28-Pad3)*%
X154949999Y-60348755D03*
%TO.P,U1,4,RST_N*%
%TO.N,/RESET*%
X154450000Y-60348755D03*
%TO.P,U1,5,PA31_CLK_OUT*%
%TO.N,unconnected-(U1-PA31_CLK_OUT-Pad5)*%
X153949998Y-60348755D03*
%TO.P,U1,6,VDD*%
%TO.N,+3.3V*%
X153450000Y-60348755D03*
%TO.P,U1,7,VSS*%
%TO.N,GND*%
X152950000Y-60348755D03*
%TO.P,U1,8,PA2_ROSC*%
%TO.N,unconnected-(U1-PA2_ROSC-Pad8)*%
X152449999Y-60348755D03*
%TO.P,U1,9,PA3_LFXIN*%
%TO.N,unconnected-(U1-PA3_LFXIN-Pad9)*%
X151950000Y-60348755D03*
%TO.P,U1,10,PA4_LFCLK_IN_LFXOUT*%
%TO.N,unconnected-(U1-PA4_LFCLK_IN_LFXOUT-Pad10)*%
X151449998Y-60348755D03*
%TO.P,U1,11,PA5_HFXIN_FCC_IN*%
%TO.N,/HFXIN*%
X150949999Y-60348755D03*
%TO.P,U1,12,PA6_HFCLK_IN_HFXOUT*%
%TO.N,/HFXOUT*%
X150450000Y-60348755D03*
D15*
%TO.P,U1,13,PA7_CLK_OUT*%
%TO.N,unconnected-(U1-PA7_CLK_OUT-Pad13)*%
X149748752Y-61050000D03*
%TO.P,U1,14,PB2*%
%TO.N,/I2C_SDA*%
X149748752Y-61549999D03*
%TO.P,U1,15,PB3*%
%TO.N,/I2C_SCL*%
X149748752Y-62050001D03*
%TO.P,U1,16,PA8*%
%TO.N,/UART0_TX*%
X149748752Y-62550000D03*
%TO.P,U1,17,PA9_RTC_OUT_CLK_OUT*%
%TO.N,/UART0_RX*%
X149748752Y-63050002D03*
%TO.P,U1,18,PA10_CLK_OUT*%
%TO.N,/UART1_RX*%
X149748752Y-63550000D03*
%TO.P,U1,19,PA11*%
%TO.N,/SPIO_CLK*%
X149748752Y-64050000D03*
%TO.P,U1,20,PB6*%
%TO.N,/LED-PWR*%
X149748752Y-64550001D03*
%TO.P,U1,21,PB7*%
%TO.N,/LED_GPS*%
X149748752Y-65050000D03*
%TO.P,U1,22,PB8*%
%TO.N,/LED_LORA*%
X149748752Y-65550002D03*
%TO.P,U1,23,PB9*%
%TO.N,unconnected-(U1-PB9-Pad23)*%
X149748752Y-66050001D03*
%TO.P,U1,24,PB14*%
%TO.N,unconnected-(U1-PB14-Pad24)*%
X149748752Y-66550000D03*
D14*
%TO.P,U1,25,PB15*%
%TO.N,unconnected-(U1-PB15-Pad25)*%
X150450000Y-67251248D03*
%TO.P,U1,26,PB16*%
%TO.N,unconnected-(U1-PB16-Pad26)*%
X150949999Y-67251248D03*
%TO.P,U1,27,PA12_FCC_IN*%
%TO.N,/SPIO_MOSI*%
X151449998Y-67251248D03*
%TO.P,U1,28,PA13*%
%TO.N,/SPIO_MISO*%
X151950000Y-67251248D03*
%TO.P,U1,29,PA14_CLK_OUT_A0_12*%
%TO.N,/LORA_CS*%
X152449999Y-67251248D03*
%TO.P,U1,30,PA15_A1_0*%
%TO.N,/LORA_IRQ*%
X152950000Y-67251248D03*
%TO.P,U1,31,PA16_A1_1_FCC_IN*%
%TO.N,/LORA_RST*%
X153450000Y-67251248D03*
%TO.P,U1,32,PA17_A1_2*%
%TO.N,/SD_CS*%
X153949998Y-67251248D03*
%TO.P,U1,33,PA18_A1_3*%
%TO.N,unconnected-(U1-PA18_A1_3-Pad33)*%
X154450000Y-67251248D03*
%TO.P,U1,34,PA19_SWDIO*%
%TO.N,/SWDIO*%
X154949999Y-67251248D03*
%TO.P,U1,35,PA20_SWCLK*%
%TO.N,/SWCLK*%
X155450001Y-67251248D03*
%TO.P,U1,36,PB17_A1_4*%
%TO.N,unconnected-(U1-PB17_A1_4-Pad36)*%
X155950000Y-67251248D03*
D15*
%TO.P,U1,37,PB18_A1_5*%
%TO.N,unconnected-(U1-PB18_A1_5-Pad37)*%
X156651245Y-66550000D03*
%TO.P,U1,38,PB19_A1_6*%
%TO.N,unconnected-(U1-PB19_A1_6-Pad38)*%
X156651245Y-66050001D03*
%TO.P,U1,39,PA21_A1_7_VREF-*%
%TO.N,unconnected-(U1-PA21_A1_7_VREF--Pad39)*%
X156651245Y-65550002D03*
%TO.P,U1,40,PA22_CLK_OUT_A0_7*%
%TO.N,unconnected-(U1-PA22_CLK_OUT_A0_7-Pad40)*%
X156651245Y-65050000D03*
%TO.P,U1,41,PB20_A0_6*%
%TO.N,unconnected-(U1-PB20_A0_6-Pad41)*%
X156651245Y-64550001D03*
%TO.P,U1,42,PB24_A0_5*%
%TO.N,unconnected-(U1-PB24_A0_5-Pad42)*%
X156651245Y-64050000D03*
%TO.P,U1,43,PA23_VREF+*%
%TO.N,unconnected-(U1-PA23_VREF+-Pad43)*%
X156651245Y-63550000D03*
%TO.P,U1,44,PA24_A0_3*%
%TO.N,unconnected-(U1-PA24_A0_3-Pad44)*%
X156651245Y-63050002D03*
%TO.P,U1,45,PA25_A0_2*%
%TO.N,unconnected-(U1-PA25_A0_2-Pad45)*%
X156651245Y-62550000D03*
%TO.P,U1,46,PA26_A0_1*%
%TO.N,/UART1_TX*%
X156651245Y-62050001D03*
%TO.P,U1,47,PA27_RTC_OUT_A0_0*%
%TO.N,unconnected-(U1-PA27_RTC_OUT_A0_0-Pad47)*%
X156651245Y-61549999D03*
%TO.P,U1,48,VCORE*%
%TO.N,Net-(U1-VCORE)*%
X156651245Y-61050000D03*
D16*
%TO.P,U1,49,Thermal_pad*%
%TO.N,GND*%
X153200000Y-63800000D03*
%TD*%
D17*
%TO.P,J3,1,Pin_1*%
%TO.N,/VBUS*%
X122400000Y-54675000D03*
D18*
%TO.P,J3,2,Pin_2*%
%TO.N,GND*%
X122400000Y-52135000D03*
%TD*%
D19*
%TO.P,L1,1,1*%
%TO.N,Net-(U1-VCORE)*%
X152200000Y-47370000D03*
%TO.P,L1,2,2*%
%TO.N,+3.3V*%
X152200000Y-46400000D03*
%TD*%
D20*
%TO.P,C9,1*%
%TO.N,+3.3V*%
X145880000Y-46400000D03*
%TO.P,C9,2*%
%TO.N,GND*%
X144920000Y-46400000D03*
%TD*%
D21*
%TO.P,D2,1,K*%
%TO.N,/LED_GPS*%
X140030000Y-64200000D03*
%TO.P,D2,2,A*%
%TO.N,GND*%
X141000000Y-64200000D03*
%TD*%
D22*
%TO.P,J6,1,CD/DAT3*%
%TO.N,/SD_CS*%
X172900000Y-40200000D03*
%TO.P,J6,2,CMD*%
%TO.N,/SPIO_MOSI*%
X172900000Y-41300000D03*
%TO.P,J6,3,VSS*%
%TO.N,GND*%
X172900000Y-42400000D03*
%TO.P,J6,4,VDD*%
%TO.N,+3.3V*%
X172900000Y-43500000D03*
%TO.P,J6,5,CLK*%
%TO.N,/SPIO_CLK*%
X172900000Y-44600000D03*
%TO.P,J6,6,VSS*%
%TO.N,GND*%
X172900000Y-45700000D03*
%TO.P,J6,7,DAT0*%
%TO.N,/SPIO_MISO*%
X172900000Y-46800000D03*
%TO.P,J6,8,DAT1*%
%TO.N,unconnected-(J6-DAT1-Pad8)*%
X172900000Y-47900000D03*
%TO.P,J6,9,DAT2*%
%TO.N,unconnected-(J6-DAT2-Pad9)*%
X172900000Y-48850000D03*
D23*
%TO.P,J6,10*%
%TO.N,N/C*%
X183400000Y-49800000D03*
D24*
%TO.P,J6,11*%
X177200000Y-49800000D03*
D25*
X187550000Y-49800000D03*
D24*
X172900000Y-38650000D03*
D26*
X188000000Y-36300000D03*
%TD*%
D27*
%TO.P,TP5,1,1*%
%TO.N,/SPIO_CLK*%
X146400000Y-54800000D03*
%TD*%
D28*
%TO.P,U3,1,GND*%
%TO.N,GND*%
X129450000Y-54937500D03*
%TO.P,U3,2,VO*%
%TO.N,+3.3V*%
X131350000Y-54937500D03*
%TO.P,U3,3,VI*%
%TO.N,/VBUS*%
X130400000Y-52662500D03*
%TD*%
D20*
%TO.P,C11,1*%
%TO.N,Net-(U1-VCORE)*%
X152280000Y-49200000D03*
%TO.P,C11,2*%
%TO.N,GND*%
X151320000Y-49200000D03*
%TD*%
D27*
%TO.P,TP3,1,1*%
%TO.N,/UART0_TX*%
X134200000Y-69200000D03*
%TD*%
D29*
%TO.P,U4,1,GND*%
%TO.N,GND*%
X172875000Y-60600000D03*
%TO.P,U4,2,MISO*%
%TO.N,/SPIO_MISO*%
X172875000Y-62600000D03*
%TO.P,U4,3,MOSI*%
%TO.N,/SPIO_MOSI*%
X172875000Y-64600000D03*
%TO.P,U4,4,SCK*%
%TO.N,/SPIO_CLK*%
X172875000Y-66600000D03*
%TO.P,U4,5,NSS*%
%TO.N,/LORA_CS*%
X172875000Y-68600000D03*
%TO.P,U4,6,RESET*%
%TO.N,/LORA_RST*%
X172875000Y-70600000D03*
%TO.P,U4,7,DIO5*%
%TO.N,unconnected-(U4-DIO5-Pad7)*%
X172875000Y-72600000D03*
%TO.P,U4,8,GND*%
%TO.N,GND*%
X172875000Y-74600000D03*
%TO.P,U4,9,ANT*%
%TO.N,/ANT*%
X187925000Y-74600000D03*
%TO.P,U4,10,GND*%
%TO.N,GND*%
X187925000Y-72600000D03*
%TO.P,U4,11,DIO3*%
%TO.N,unconnected-(U4-DIO3-Pad11)*%
X187925000Y-70600000D03*
%TO.P,U4,12,DIO4*%
%TO.N,unconnected-(U4-DIO4-Pad12)*%
X187925000Y-68600000D03*
%TO.P,U4,13,3.3V*%
%TO.N,+3.3V*%
X187925000Y-66600000D03*
%TO.P,U4,14,DIO0*%
%TO.N,/LORA_IRQ*%
X187925000Y-64600000D03*
%TO.P,U4,15,DIO1*%
%TO.N,unconnected-(U4-DIO1-Pad15)*%
X187925000Y-62600000D03*
%TO.P,U4,16,DIO2*%
%TO.N,unconnected-(U4-DIO2-Pad16)*%
X187925000Y-60600000D03*
%TD*%
D27*
%TO.P,TP6,1,1*%
%TO.N,/SWDIO*%
X162200000Y-67000000D03*
%TD*%
D30*
%TO.P,SW1,1,1*%
%TO.N,/RESET*%
X181850000Y-53900000D03*
X188150000Y-53900000D03*
%TO.P,SW1,2,2*%
%TO.N,GND*%
X181850000Y-57700000D03*
X188150000Y-57700000D03*
%TD*%
D17*
%TO.P,J5,1,Pin_1*%
%TO.N,+3.3V*%
X168400000Y-36400000D03*
D18*
%TO.P,J5,2,Pin_2*%
%TO.N,/SWDIO*%
X165860000Y-36400000D03*
%TO.P,J5,3,Pin_3*%
%TO.N,/SWCLK*%
X163320000Y-36400000D03*
%TO.P,J5,4,Pin_4*%
%TO.N,/RESET*%
X160780000Y-36400000D03*
%TO.P,J5,5,Pin_5*%
%TO.N,GND*%
X158240000Y-36400000D03*
%TD*%
D31*
%TO.P,U5,1,GND*%
%TO.N,GND*%
X146412500Y-47812500D03*
%TO.P,U5,2,CSB*%
%TO.N,+3.3V*%
X147212500Y-47812500D03*
%TO.P,U5,3,SDI*%
%TO.N,/I2C_SDA*%
X148012500Y-47812500D03*
%TO.P,U5,4,SCK*%
%TO.N,/I2C_SCL*%
X148812500Y-47812500D03*
%TO.P,U5,5,SDO*%
%TO.N,GND*%
X148812500Y-50187500D03*
%TO.P,U5,6,VDDIO*%
%TO.N,+3.3V*%
X148012500Y-50187500D03*
%TO.P,U5,7,GND*%
%TO.N,GND*%
X147212500Y-50187500D03*
%TO.P,U5,8,VDD*%
%TO.N,+3.3V*%
X146412500Y-50187500D03*
%TD*%
D27*
%TO.P,TP2,1,1*%
%TO.N,GND*%
X122200000Y-73000000D03*
%TD*%
D21*
%TO.P,D3,1,K*%
%TO.N,/LED_LORA*%
X143030000Y-53800000D03*
%TO.P,D3,2,A*%
%TO.N,GND*%
X144000000Y-53800000D03*
%TD*%
D17*
%TO.P,J2,1,Pin_1*%
%TO.N,+3.3V*%
X149520000Y-75600000D03*
D18*
%TO.P,J2,2,Pin_2*%
%TO.N,GND*%
X152060000Y-75600000D03*
%TO.P,J2,3,Pin_3*%
%TO.N,/UART1_RX*%
X154600000Y-75600000D03*
%TO.P,J2,4,Pin_4*%
%TO.N,/UART1_TX*%
X157140000Y-75600000D03*
%TD*%
D13*
%TO.P,R6,1*%
%TO.N,/RESET*%
X126450000Y-57200000D03*
%TO.P,R6,2*%
%TO.N,+3.3V*%
X127470000Y-57200000D03*
%TD*%
D32*
%TO.P,R8,1*%
%TO.N,Net-(J1-CC1)*%
X127400000Y-58800000D03*
%TO.P,R8,2*%
%TO.N,GND*%
X126380000Y-58800000D03*
%TD*%
D12*
%TO.P,C8,1*%
%TO.N,GND*%
X127600000Y-73200000D03*
%TO.P,C8,2*%
%TO.N,/HFXIN*%
X128560000Y-73200000D03*
%TD*%
D33*
%TO.P,U2,1,RS485/GPIO.1*%
%TO.N,unconnected-(U2-RS485{slash}GPIO.1-Pad1)*%
X141650000Y-66150000D03*
D34*
%TO.P,U2,2,CLK/GPIO.0*%
%TO.N,unconnected-(U2-CLK{slash}GPIO.0-Pad2)*%
X141150000Y-65850000D03*
%TO.P,U2,3,GND*%
%TO.N,GND*%
X140650000Y-65850000D03*
%TO.P,U2,4,D+*%
%TO.N,/USB_DP*%
X140150000Y-65850000D03*
%TO.P,U2,5,D-*%
%TO.N,/USB_DM*%
X139650000Y-65850000D03*
D33*
%TO.P,U2,6,VDD*%
%TO.N,+3.3V*%
X139150000Y-66150000D03*
D35*
%TO.P,U2,7,VREGIN*%
%TO.N,/VBUS*%
X138850000Y-66650000D03*
%TO.P,U2,8,VBUS*%
X138850000Y-67150000D03*
%TO.P,U2,9,~{RST}*%
%TO.N,unconnected-(U2-~{RST}-Pad9)*%
X138850000Y-67650000D03*
%TO.P,U2,10,NC*%
%TO.N,unconnected-(U2-NC-Pad10)*%
X138850000Y-68150000D03*
D33*
%TO.P,U2,11,~{SUSPEND}*%
%TO.N,unconnected-(U2-~{SUSPEND}-Pad11)*%
X139150000Y-68650000D03*
D34*
%TO.P,U2,12,GND*%
%TO.N,GND*%
X139650000Y-68950000D03*
%TO.P,U2,13,~{WAKEUP}*%
%TO.N,unconnected-(U2-~{WAKEUP}-Pad13)*%
X140150000Y-68950000D03*
%TO.P,U2,14,SUSPEND*%
%TO.N,unconnected-(U2-SUSPEND-Pad14)*%
X140650000Y-68950000D03*
%TO.P,U2,15,~{CTS}*%
%TO.N,unconnected-(U2-~{CTS}-Pad15)*%
X141150000Y-68950000D03*
D33*
%TO.P,U2,16,~{RTS}*%
%TO.N,unconnected-(U2-~{RTS}-Pad16)*%
X141650000Y-68650000D03*
D35*
%TO.P,U2,17,RXD*%
%TO.N,/UART0_RX*%
X141950000Y-68150000D03*
%TO.P,U2,18,TXD*%
%TO.N,/UART0_TX*%
X141950000Y-67650000D03*
%TO.P,U2,19,~{RXT}/GPIO.3*%
%TO.N,unconnected-(U2-~{RXT}{slash}GPIO.3-Pad19)*%
X141950000Y-67150000D03*
%TO.P,U2,20,~{TXT}/GPIO.2*%
%TO.N,unconnected-(U2-~{TXT}{slash}GPIO.2-Pad20)*%
X141950000Y-66650000D03*
D36*
%TO.P,U2,21,GND*%
%TO.N,GND*%
X140400000Y-67400000D03*
%TD*%
D32*
%TO.P,R7,1*%
%TO.N,Net-(J1-CC2)*%
X126110000Y-73200000D03*
%TO.P,R7,2*%
%TO.N,GND*%
X125090000Y-73200000D03*
%TD*%
D21*
%TO.P,D1,1,K*%
%TO.N,/LED-PWR*%
X143030000Y-58800000D03*
%TO.P,D1,2,A*%
%TO.N,GND*%
X144000000Y-58800000D03*
%TD*%
D27*
%TO.P,TP1,1,1*%
%TO.N,+3.3V*%
X134800000Y-55200000D03*
%TD*%
D37*
%TO.P,J1,A1,GND*%
%TO.N,GND*%
X128485000Y-62350000D03*
%TO.P,J1,A4,VBUS*%
%TO.N,/VBUS*%
X128485000Y-63150000D03*
D38*
%TO.P,J1,A5,CC1*%
%TO.N,Net-(J1-CC1)*%
X128485000Y-64350000D03*
%TO.P,J1,A6,D+*%
%TO.N,unconnected-(J1-D+-PadA6)*%
X128485000Y-65350000D03*
%TO.P,J1,A7,D-*%
%TO.N,unconnected-(J1-D--PadA7)*%
X128485000Y-65850000D03*
%TO.P,J1,A8,SBU1*%
%TO.N,unconnected-(J1-SBU1-PadA8)*%
X128485000Y-66850000D03*
D37*
%TO.P,J1,A9,VBUS*%
%TO.N,/VBUS*%
X128485000Y-68050000D03*
%TO.P,J1,A12,GND*%
%TO.N,GND*%
X128485000Y-68850000D03*
%TO.P,J1,B1,GND*%
X128485000Y-68850000D03*
%TO.P,J1,B4,VBUS*%
%TO.N,/VBUS*%
X128485000Y-68050000D03*
D38*
%TO.P,J1,B5,CC2*%
%TO.N,Net-(J1-CC2)*%
X128485000Y-67350000D03*
%TO.P,J1,B6,D+*%
%TO.N,/USB_DP*%
X128485000Y-66350000D03*
%TO.P,J1,B7,D-*%
%TO.N,/USB_DM*%
X128485000Y-64850000D03*
%TO.P,J1,B8,SBU2*%
%TO.N,unconnected-(J1-SBU2-PadB8)*%
X128485000Y-63850000D03*
D37*
%TO.P,J1,B9,VBUS*%
%TO.N,/VBUS*%
X128485000Y-63150000D03*
%TO.P,J1,B12,GND*%
%TO.N,GND*%
X128485000Y-62350000D03*
D39*
%TO.P,J1,S1,SHIELD*%
%TO.N,unconnected-(J1-SHIELD-PadS1)*%
X127570000Y-61280000D03*
D40*
%TO.N,unconnected-(J1-SHIELD-PadS1)_2*%
X123390000Y-61280000D03*
D39*
%TO.N,unconnected-(J1-SHIELD-PadS1)_3*%
X127570000Y-69920000D03*
D40*
%TO.N,unconnected-(J1-SHIELD-PadS1)_1*%
X123390000Y-69920000D03*
%TD*%
D27*
%TO.P,TP4,1,1*%
%TO.N,/UART0_RX*%
X144800000Y-72200000D03*
%TD*%
D41*
%TO.P,Y1,1,1*%
%TO.N,/HFXIN*%
X156700000Y-50850000D03*
%TO.P,Y1,2,2*%
%TO.N,/HFXOUT*%
X158900000Y-50850000D03*
%TO.P,Y1,3*%
%TO.N,N/C*%
X158900000Y-49150000D03*
%TO.P,Y1,4*%
X156700000Y-49150000D03*
%TD*%
D13*
%TO.P,R5,1*%
%TO.N,+3.3V*%
X147200000Y-46400000D03*
%TO.P,R5,2*%
%TO.N,/I2C_SDA*%
X148220000Y-46400000D03*
%TD*%
D42*
%TO.N,GND*%
X151949400Y-58821500D03*
X151912000Y-48183200D03*
X127038000Y-55652300D03*
X176775700Y-72600000D03*
X158942700Y-44476900D03*
X173704400Y-58257800D03*
%TO.N,/HFXOUT*%
X150525400Y-53751300D03*
X149697100Y-59744200D03*
%TO.N,/HFXIN*%
X148019800Y-59048800D03*
X151438800Y-50830200D03*
%TO.N,/LED-PWR*%
X148373400Y-64518700D03*
X145799000Y-58098000D03*
%TO.N,/LED_GPS*%
X139244800Y-63644800D03*
X147076200Y-65625300D03*
X151457500Y-69410000D03*
X146265100Y-64532000D03*
%TO.N,/LED_LORA*%
X148685100Y-66024200D03*
X145347700Y-53148000D03*
%TO.N,Net-(J1-CC1)*%
X126530100Y-59858000D03*
X127887300Y-59574500D03*
%TO.N,/USB_DM*%
X131721700Y-65800500D03*
X133025200Y-64115600D03*
%TO.N,+3.3V*%
X144240700Y-56379700D03*
X138467800Y-65807500D03*
%TO.N,/UART1_RX*%
X147058500Y-66921000D03*
%TO.N,/UART1_TX*%
X159086600Y-61597500D03*
%TO.N,/RESET*%
X153592400Y-58411300D03*
X164831500Y-54301200D03*
X151683100Y-56374500D03*
X151972400Y-57578000D03*
%TO.N,/SWCLK*%
X162192200Y-64536400D03*
%TO.N,/SWDIO*%
X165106100Y-67572700D03*
%TO.N,/SPIO_MISO*%
X162344500Y-70370800D03*
X164438600Y-61676600D03*
%TO.N,/SPIO_CLK*%
X150509500Y-54800000D03*
X147642000Y-67980100D03*
%TO.N,/SD_CS*%
X161885300Y-41968800D03*
X160887600Y-68591200D03*
%TO.N,/SPIO_MOSI*%
X168025500Y-71123600D03*
X170441400Y-64598400D03*
X174408700Y-41067900D03*
%TO.N,/I2C_SCL*%
X149714600Y-47812500D03*
X151034300Y-47222300D03*
X147456200Y-61520300D03*
%TO.N,/I2C_SDA*%
X148867600Y-48961300D03*
X148445500Y-61110900D03*
%TO.N,/UART0_TX*%
X145460100Y-63065500D03*
X142701700Y-65749000D03*
X137127600Y-68584900D03*
%TO.N,/UART0_RX*%
X142744600Y-69377900D03*
X141600000Y-71200000D03*
X145058300Y-64910200D03*
X144600000Y-72200000D03*
%TO.N,/LORA_RST*%
X168720600Y-67956600D03*
X168904700Y-70952900D03*
%TO.N,/LORA_IRQ*%
X155799900Y-69927300D03*
X157460500Y-67612600D03*
%TO.N,/VBUS*%
X130388400Y-63991500D03*
X131500200Y-66650000D03*
%TD*%
%TO.N,GND*%
D43*
X173704400Y-59770600D02*
X173704400Y-58257800D01*
X148901900Y-46125900D02*
X148538700Y-45762700D01*
X155170400Y-74441000D02*
X155988300Y-75258900D01*
X146978500Y-58800000D02*
X147354300Y-58424200D01*
X172875000Y-60600000D02*
X173704400Y-59770600D01*
X173801700Y-43132000D02*
X173801700Y-42400000D01*
X180140500Y-58257800D02*
X180698300Y-57700000D01*
X141000000Y-64200000D02*
X140650000Y-64550000D01*
X139064600Y-70287100D02*
X139650000Y-69701700D01*
X125737900Y-73847900D02*
X127600000Y-73847900D01*
X127600000Y-73847900D02*
X136647900Y-73847900D01*
X140650000Y-64550000D02*
X140650000Y-65850000D01*
X188150000Y-57700000D02*
X181850000Y-57700000D01*
X127600000Y-73847900D02*
X127600000Y-73200000D01*
X146332500Y-47812500D02*
X146412500Y-47812500D01*
X128169500Y-60176200D02*
X127638200Y-60176200D01*
X173801700Y-43464600D02*
X173968000Y-43298300D01*
X130512900Y-70287100D02*
X130512900Y-69851200D01*
X148538700Y-45762700D02*
X145557300Y-45762700D01*
X152060000Y-75600000D02*
X153219000Y-74441000D01*
X151216200Y-48426300D02*
X151216200Y-49096200D01*
X152950000Y-59793400D02*
X151978100Y-58821500D01*
X139578800Y-76778800D02*
X137800000Y-75000000D01*
X140450000Y-63650000D02*
X141000000Y-64200000D01*
X174775700Y-74600000D02*
X172875000Y-74600000D01*
X150881200Y-76778800D02*
X139578800Y-76778800D01*
X130512900Y-70287100D02*
X139064600Y-70287100D01*
X128485000Y-62350000D02*
X129015000Y-62350000D01*
X151320000Y-49200000D02*
X150332500Y-50187500D01*
X151216200Y-49096200D02*
X151320000Y-49200000D01*
X148812500Y-50261800D02*
X148812500Y-50187500D01*
X127638200Y-60176200D02*
X127285600Y-59823600D01*
X152060000Y-75600000D02*
X150881200Y-76778800D01*
X151459300Y-48183200D02*
X151216200Y-48426300D01*
X144000000Y-53643300D02*
X144000000Y-53800000D01*
X139650000Y-68950000D02*
X139650000Y-69701700D01*
X172900000Y-42400000D02*
X173801700Y-42400000D01*
X136647900Y-73847900D02*
X137800000Y-75000000D01*
X127600000Y-73200000D02*
X130512900Y-70287100D01*
X128485000Y-68850000D02*
X129511700Y-68850000D01*
X144000000Y-58800000D02*
X146978500Y-58800000D01*
X176775700Y-72600000D02*
X174775700Y-74600000D01*
X126380000Y-58800000D02*
X125836500Y-58256500D01*
X151552100Y-58424200D02*
X151949400Y-58821500D01*
X187925000Y-72600000D02*
X176775700Y-72600000D01*
X129015000Y-62350000D02*
X140450000Y-62350000D01*
X150332500Y-50187500D02*
X148812500Y-50187500D01*
X151912000Y-48183200D02*
X151459300Y-48183200D01*
X151978100Y-58821500D02*
X151949400Y-58821500D01*
X160165800Y-45700000D02*
X172900000Y-45700000D01*
X148901900Y-46617900D02*
X148901900Y-46125900D01*
X173801700Y-45700000D02*
X173801700Y-43464600D01*
X140400000Y-67400000D02*
X140650000Y-67150000D01*
X170723300Y-76751700D02*
X172875000Y-74600000D01*
X145557300Y-45762700D02*
X144920000Y-46400000D01*
X146872800Y-50770500D02*
X144000000Y-53643300D01*
X148303800Y-50770500D02*
X148812500Y-50261800D01*
X181850000Y-57700000D02*
X180698300Y-57700000D01*
X152950000Y-63550000D02*
X152950000Y-60348800D01*
X155988300Y-75258900D02*
X155988300Y-76077000D01*
X125090000Y-73200000D02*
X122400000Y-73200000D01*
X156663000Y-76751700D02*
X170723300Y-76751700D01*
X153200000Y-63800000D02*
X152950000Y-63550000D01*
X151216200Y-48426300D02*
X149815400Y-47025500D01*
X140650000Y-67150000D02*
X140650000Y-65850000D01*
X155988300Y-76077000D02*
X156663000Y-76751700D01*
X129015000Y-62350000D02*
X129015000Y-61021700D01*
X144920000Y-46400000D02*
X146332500Y-47812500D01*
X147212500Y-50770500D02*
X146872800Y-50770500D01*
X172900000Y-45700000D02*
X173801700Y-45700000D01*
X127285600Y-59823600D02*
X127285600Y-59705600D01*
X129015000Y-61021700D02*
X128169500Y-60176200D01*
X147212500Y-50770500D02*
X148303800Y-50770500D01*
X149309500Y-47025500D02*
X148901900Y-46617900D01*
X130512900Y-69851200D02*
X129511700Y-68850000D01*
X173968000Y-43298300D02*
X173801700Y-43132000D01*
X153219000Y-74441000D02*
X155170400Y-74441000D01*
X140450000Y-62350000D02*
X140450000Y-63650000D01*
X125090000Y-73200000D02*
X125737900Y-73847900D01*
X127038000Y-55652300D02*
X127752800Y-54937500D01*
X152950000Y-60348800D02*
X152950000Y-59793400D01*
X127752800Y-54937500D02*
X129450000Y-54937500D01*
X147354300Y-58424200D02*
X151552100Y-58424200D01*
X125836500Y-56853800D02*
X127038000Y-55652300D01*
X158942700Y-44476900D02*
X160165800Y-45700000D01*
X122400000Y-73200000D02*
X122200000Y-73000000D01*
X149815400Y-47025500D02*
X149309500Y-47025500D01*
X127285600Y-59705600D02*
X126380000Y-58800000D01*
X173704400Y-58257800D02*
X180140500Y-58257800D01*
X140450000Y-62350000D02*
X144000000Y-58800000D01*
X125836500Y-58256500D02*
X125836500Y-56853800D01*
X147212500Y-50770500D02*
X147212500Y-50187500D01*
%TO.N,/HFXOUT*%
X149899000Y-59542300D02*
X149697100Y-59744200D01*
X143803700Y-71051700D02*
X139855400Y-75000000D01*
X150450000Y-59543800D02*
X150450000Y-59542300D01*
X155998700Y-53751300D02*
X150525400Y-53751300D01*
X150450000Y-59542300D02*
X149899000Y-59542300D01*
X139855400Y-75000000D02*
X138760000Y-75000000D01*
X158900000Y-50850000D02*
X155998700Y-53751300D01*
X150450000Y-60348800D02*
X150450000Y-59643100D01*
X147930600Y-59744200D02*
X143803700Y-63871100D01*
X143803700Y-63871100D02*
X143803700Y-71051700D01*
X149697100Y-59744200D02*
X147930600Y-59744200D01*
X150450000Y-59643100D02*
X150450000Y-59543800D01*
%TO.N,/HFXIN*%
X143402000Y-70885400D02*
X143402000Y-63666600D01*
X151438800Y-50830200D02*
X156680200Y-50830200D01*
X150562100Y-59048800D02*
X148019800Y-59048800D01*
X128560000Y-73200000D02*
X128843000Y-72917000D01*
X143402000Y-63666600D02*
X148019800Y-59048800D01*
X150950000Y-59436700D02*
X150562100Y-59048800D01*
X128843000Y-72917000D02*
X141370400Y-72917000D01*
X141370400Y-72917000D02*
X143402000Y-70885400D01*
X150950000Y-60348800D02*
X150950000Y-59436700D01*
X156680200Y-50830200D02*
X156700000Y-50850000D01*
%TO.N,Net-(U1-VCORE)*%
X151189700Y-50228500D02*
X150427300Y-50990900D01*
X148542400Y-51138500D02*
X148690000Y-50990900D01*
X151176500Y-55922700D02*
X145998600Y-55922700D01*
X150427300Y-50990900D02*
X148690000Y-50990900D01*
X152280000Y-49200000D02*
X152513700Y-48966300D01*
X145322400Y-54358500D02*
X148542400Y-51138500D01*
X152280000Y-49200000D02*
X151251500Y-50228500D01*
X156651200Y-61050000D02*
X156651200Y-59945900D01*
X156651200Y-59945900D02*
X152478100Y-55772800D01*
X145322400Y-55246500D02*
X145322400Y-54358500D01*
X145998600Y-55922700D02*
X145322400Y-55246500D01*
X151326400Y-55772800D02*
X151176500Y-55922700D01*
X152513700Y-47683700D02*
X152200000Y-47370000D01*
X148542400Y-51138500D02*
X148690000Y-50990900D01*
X152513700Y-48966300D02*
X152513700Y-47683700D01*
X151251500Y-50228500D02*
X151189700Y-50228500D01*
X152478100Y-55772800D02*
X151326400Y-55772800D01*
%TO.N,/LED-PWR*%
X143732000Y-58098000D02*
X143030000Y-58800000D01*
X148942300Y-64550000D02*
X148911000Y-64518700D01*
X145799000Y-58098000D02*
X143732000Y-58098000D01*
X148911000Y-64518700D02*
X148373400Y-64518700D01*
X149748800Y-64550000D02*
X148942300Y-64550000D01*
%TO.N,/LED_GPS*%
X146265100Y-64532000D02*
X146265100Y-64814200D01*
X148799100Y-65050000D02*
X149748800Y-65050000D01*
X146265100Y-64814200D02*
X147076200Y-65625300D01*
X151457500Y-69410000D02*
X151202200Y-69410000D01*
X148079700Y-65769400D02*
X148799100Y-65050000D01*
X146265100Y-64708400D02*
X146265100Y-64532000D01*
X139244800Y-63644800D02*
X139474800Y-63644800D01*
X148079700Y-66287500D02*
X148079700Y-65769400D01*
X151457500Y-69410000D02*
X151202200Y-69410000D01*
X139474800Y-63644800D02*
X140030000Y-64200000D01*
X151202200Y-69410000D02*
X148079700Y-66287500D01*
X151202200Y-69410000D02*
X151457500Y-69410000D01*
X146265100Y-64532000D02*
X146265100Y-64708400D01*
%TO.N,/LED_LORA*%
X149748800Y-65550000D02*
X148942300Y-65550000D01*
X144394100Y-54422300D02*
X145347700Y-53468700D01*
X148942300Y-65550000D02*
X148942300Y-65767000D01*
X143030000Y-53800000D02*
X143652300Y-54422300D01*
X143652300Y-54422300D02*
X144394100Y-54422300D01*
X148942300Y-65767000D02*
X148685100Y-66024200D01*
X145347700Y-53468700D02*
X145347700Y-53148000D01*
%TO.N,/USB_DP*%
X137111200Y-64755400D02*
X136667800Y-65198800D01*
X136667800Y-65198800D02*
X131472600Y-65198800D01*
X130321500Y-66350000D02*
X128485000Y-66350000D01*
X131472600Y-65198800D02*
X130321500Y-66349900D01*
X139436000Y-65098300D02*
X139093100Y-64755400D01*
X140150000Y-65098300D02*
X139436000Y-65098300D01*
X130321500Y-66349900D02*
X130321500Y-66350000D01*
X139093100Y-64755400D02*
X137111200Y-64755400D01*
X140150000Y-65850000D02*
X140150000Y-65098300D01*
%TO.N,Net-(J1-CC1)*%
X126163300Y-63098600D02*
X126163300Y-60224800D01*
X128485000Y-64350000D02*
X127414700Y-64350000D01*
X127400000Y-58800000D02*
X127887300Y-59287300D01*
X127414700Y-64350000D02*
X126163300Y-63098600D01*
X127887300Y-59287300D02*
X127887300Y-59574500D01*
X126163300Y-60224800D02*
X126530100Y-59858000D01*
%TO.N,/USB_DM*%
X131253400Y-64850000D02*
X128485000Y-64850000D01*
X139348300Y-65548300D02*
X139650000Y-65850000D01*
X139117800Y-65548300D02*
X139348300Y-65548300D01*
X131721700Y-65800500D02*
X136865800Y-65800500D01*
X138767800Y-65198300D02*
X139117800Y-65548300D01*
X137468000Y-65198300D02*
X138767800Y-65198300D01*
X133025200Y-64115600D02*
X131987800Y-64115600D01*
X131987800Y-64115600D02*
X131253400Y-64850000D01*
X136865800Y-65800500D02*
X137468000Y-65198300D01*
%TO.N,Net-(J1-CC2)*%
X126933400Y-67350000D02*
X126110000Y-68173400D01*
X128485000Y-67350000D02*
X126933400Y-67350000D01*
X126110000Y-68173400D02*
X126110000Y-73200000D01*
%TO.N,+3.3V*%
X146895900Y-49620900D02*
X146412500Y-50104300D01*
X147212500Y-46412500D02*
X147200000Y-46400000D01*
X149689900Y-46331000D02*
X150312600Y-45708300D01*
X144293600Y-46712600D02*
X144293600Y-46068900D01*
X161636200Y-41367100D02*
X161283600Y-41719700D01*
X168827500Y-71813800D02*
X168993800Y-71647500D01*
X148012500Y-50046700D02*
X147586700Y-49620900D01*
X131350000Y-54937500D02*
X131612500Y-55200000D01*
X168993800Y-71647500D02*
X177978600Y-71647500D01*
X152574100Y-58666400D02*
X152574100Y-57328800D01*
X138698300Y-66150000D02*
X138698300Y-66038000D01*
X172900000Y-43500000D02*
X171998300Y-43500000D01*
X168400000Y-36400000D02*
X167248300Y-36400000D01*
X162569200Y-41367100D02*
X161636200Y-41367100D01*
X139812500Y-50187500D02*
X134800000Y-55200000D01*
X129087500Y-57200000D02*
X131350000Y-54937500D01*
X153450000Y-59542300D02*
X152574100Y-58666400D01*
X145982200Y-48401200D02*
X144293600Y-46712600D01*
X149520000Y-75600000D02*
X150671700Y-75600000D01*
X183026100Y-66600000D02*
X187925000Y-66600000D01*
X177978600Y-71647500D02*
X183026100Y-66600000D01*
X135979700Y-56379700D02*
X134800000Y-55200000D01*
X153450000Y-60348800D02*
X153450000Y-59542300D01*
X146412500Y-50187500D02*
X139812500Y-50187500D01*
X147586700Y-49620900D02*
X147212500Y-49620900D01*
X144240700Y-56379700D02*
X135979700Y-56379700D01*
X131612500Y-55200000D02*
X134800000Y-55200000D01*
X150312600Y-45708300D02*
X152200000Y-45708300D01*
X147200000Y-46400000D02*
X145880000Y-46400000D01*
X167248300Y-36400000D02*
X167248300Y-36688000D01*
X149689900Y-46400000D02*
X149689900Y-46331000D01*
X154169900Y-71813800D02*
X168827500Y-71813800D01*
X146412500Y-50104300D02*
X146412500Y-50187500D01*
X127470000Y-57200000D02*
X129087500Y-57200000D01*
X150671700Y-75600000D02*
X150671700Y-75312000D01*
X145060100Y-45302400D02*
X148661300Y-45302400D01*
X147212500Y-48401200D02*
X145982200Y-48401200D01*
X150671700Y-75312000D02*
X154169900Y-71813800D01*
X144837300Y-56976300D02*
X144240700Y-56379700D01*
X144293600Y-46068900D02*
X145060100Y-45302400D01*
X139150000Y-66150000D02*
X138698300Y-66150000D01*
X148012500Y-50187500D02*
X148012500Y-50046700D01*
X152221600Y-56976300D02*
X144837300Y-56976300D01*
X161283600Y-43473500D02*
X171971800Y-43473500D01*
X147212500Y-49620900D02*
X147212500Y-48401200D01*
X147212500Y-49620900D02*
X146895900Y-49620900D01*
X147212500Y-48401200D02*
X147212500Y-47812500D01*
X154434800Y-43473500D02*
X152200000Y-45708300D01*
X167248300Y-36688000D02*
X162569200Y-41367100D01*
X138698300Y-66038000D02*
X138467800Y-65807500D01*
X152200000Y-45708300D02*
X152200000Y-46400000D01*
X171971800Y-43473500D02*
X171998300Y-43500000D01*
X147212500Y-47812500D02*
X147212500Y-46412500D01*
X152574100Y-57328800D02*
X152221600Y-56976300D01*
X149690000Y-46400000D02*
X149689900Y-46400000D01*
X148661300Y-45302400D02*
X149689900Y-46331000D01*
X161283600Y-43473500D02*
X154434800Y-43473500D01*
X161283600Y-41719700D02*
X161283600Y-43473500D01*
%TO.N,/UART1_RX*%
X145663300Y-65525800D02*
X145663300Y-64571400D01*
X145559600Y-64467700D02*
X145559600Y-64385100D01*
X149681900Y-63483100D02*
X149748800Y-63550000D01*
X148699800Y-63466600D02*
X148716300Y-63483100D01*
X147058500Y-66921000D02*
X145663300Y-65525800D01*
X145559600Y-64385100D02*
X146478100Y-63466600D01*
X146478100Y-63466600D02*
X148699800Y-63466600D01*
X145663300Y-64571400D02*
X145559600Y-64467700D01*
X148716300Y-63483100D02*
X149681900Y-63483100D01*
%TO.N,/UART1_TX*%
X159086600Y-61597500D02*
X158634100Y-62050000D01*
X158634100Y-62050000D02*
X156651200Y-62050000D01*
%TO.N,/RESET*%
X164831500Y-54301200D02*
X180297100Y-54301200D01*
X127076600Y-57826600D02*
X126450000Y-57200000D01*
X153592400Y-58411300D02*
X153592400Y-57779100D01*
X146574200Y-57411700D02*
X146407900Y-57578000D01*
X153592400Y-58411300D02*
X154450000Y-59268900D01*
X146407900Y-57578000D02*
X146326200Y-57496300D01*
X181850000Y-53900000D02*
X180698300Y-53900000D01*
X153592400Y-57779100D02*
X152187800Y-56374500D01*
X146574200Y-57411700D02*
X146407900Y-57578000D01*
X151972400Y-57578000D02*
X146740500Y-57578000D01*
X143202500Y-57660300D02*
X143036200Y-57826600D01*
X143202500Y-57660300D02*
X143036200Y-57826600D01*
X146740500Y-57578000D02*
X146574200Y-57411700D01*
X180297100Y-54301200D02*
X180698300Y-53900000D01*
X143036200Y-57826600D02*
X127076600Y-57826600D01*
X152187800Y-56374500D02*
X151683100Y-56374500D01*
X143366500Y-57496300D02*
X143202500Y-57660300D01*
X188150000Y-53900000D02*
X181850000Y-53900000D01*
X146326200Y-57496300D02*
X143366500Y-57496300D01*
X154450000Y-59268900D02*
X154450000Y-60348800D01*
%TO.N,/SWCLK*%
X159915100Y-64536400D02*
X162192200Y-64536400D01*
X157456200Y-66995300D02*
X159915100Y-64536400D01*
X156458200Y-67763800D02*
X157226700Y-66995300D01*
X157226700Y-66995300D02*
X157456200Y-66995300D01*
X156458200Y-67834600D02*
X156458200Y-67763800D01*
X155450000Y-68057800D02*
X156235000Y-68057800D01*
X155450000Y-67251300D02*
X155450000Y-68057800D01*
X156235000Y-68057800D02*
X156458200Y-67834600D01*
%TO.N,/SWDIO*%
X160877400Y-67000000D02*
X159618800Y-68258600D01*
X154950000Y-68057800D02*
X154950000Y-68192200D01*
X162200000Y-67000000D02*
X162772600Y-67572600D01*
X162200000Y-67000000D02*
X160877400Y-67000000D01*
X156954600Y-68424900D02*
X157120900Y-68258600D01*
X162772600Y-67572600D02*
X165106100Y-67572600D01*
X154950000Y-67251300D02*
X154950000Y-68057800D01*
X165106100Y-67572600D02*
X165106100Y-67572700D01*
X154950000Y-68192200D02*
X155241500Y-68483700D01*
X159618800Y-68258600D02*
X157120900Y-68258600D01*
X156895800Y-68483700D02*
X156954600Y-68424900D01*
X156954600Y-68424900D02*
X157120900Y-68258600D01*
X155241500Y-68483700D02*
X156895800Y-68483700D01*
%TO.N,/SPIO_MISO*%
X171481900Y-46800000D02*
X164229800Y-54052100D01*
X152461000Y-68847500D02*
X151950000Y-68336500D01*
X154144100Y-70530600D02*
X154544200Y-70930700D01*
X152814000Y-69467600D02*
X152461000Y-69114600D01*
X152814000Y-69467600D02*
X152935400Y-69589000D01*
X171998300Y-46800000D02*
X171481900Y-46800000D01*
X171951600Y-61676600D02*
X172875000Y-62600000D01*
X154544200Y-70930700D02*
X161784600Y-70930700D01*
X152935400Y-69589000D02*
X153877000Y-70530600D01*
X152814000Y-69467600D02*
X152935400Y-69589000D01*
X151950000Y-67251300D02*
X151950000Y-68057800D01*
X164229800Y-54052100D02*
X164229800Y-61467800D01*
X151950000Y-68336500D02*
X151950000Y-68057800D01*
X172900000Y-46800000D02*
X171998300Y-46800000D01*
X164438600Y-61676600D02*
X171951600Y-61676600D01*
X164229800Y-61467800D02*
X164438600Y-61676600D01*
X152461000Y-69114600D02*
X152461000Y-68847500D01*
X153877000Y-70530600D02*
X154144100Y-70530600D01*
X161784600Y-70930700D02*
X162344500Y-70370800D01*
%TO.N,/SPIO_CLK*%
X171998300Y-44600000D02*
X171273500Y-43875200D01*
X147642000Y-67980100D02*
X147678000Y-67944100D01*
X159928900Y-53391800D02*
X158520700Y-54800000D01*
X147642000Y-67980100D02*
X147678000Y-67944100D01*
X147678000Y-64362900D02*
X148156100Y-63884800D01*
X149748800Y-64050000D02*
X148942300Y-64050000D01*
X172708700Y-66433700D02*
X168309400Y-66433700D01*
X158664900Y-43875200D02*
X158323700Y-44216400D01*
X148156100Y-63884800D02*
X148777100Y-63884800D01*
X147678000Y-67944100D02*
X147642000Y-67980100D01*
X172900000Y-44600000D02*
X171998300Y-44600000D01*
X148777100Y-63884800D02*
X148942300Y-64050000D01*
X168309400Y-66433700D02*
X158520700Y-56645000D01*
X158323700Y-45027300D02*
X159928900Y-46632500D01*
X150509500Y-54800000D02*
X158520700Y-54800000D01*
X147678000Y-67944100D02*
X147678000Y-64362900D01*
X171273500Y-43875200D02*
X158664900Y-43875200D01*
X146400000Y-54800000D02*
X150509500Y-54800000D01*
X159928900Y-46632500D02*
X159928900Y-53391800D01*
X158520700Y-56645000D02*
X158520700Y-54800000D01*
X172875000Y-66600000D02*
X172708700Y-66433700D01*
X158323700Y-44216400D02*
X158323700Y-45027300D01*
%TO.N,/SD_CS*%
X160887600Y-68591200D02*
X160555000Y-68923800D01*
X170229500Y-41968800D02*
X161885300Y-41968800D01*
X160555000Y-68923800D02*
X155065000Y-68923800D01*
X155065000Y-68923800D02*
X153950000Y-67808800D01*
X171998300Y-40200000D02*
X170229500Y-41968800D01*
X153950000Y-67808800D02*
X153950000Y-67251300D01*
X172900000Y-40200000D02*
X171998300Y-40200000D01*
%TO.N,/SPIO_MOSI*%
X152059200Y-69160800D02*
X151450000Y-68551600D01*
X152412300Y-69633900D02*
X152533700Y-69755300D01*
X154110800Y-71332400D02*
X167816700Y-71332400D01*
X172900000Y-41300000D02*
X173801700Y-41300000D01*
X167816700Y-71332400D02*
X168025500Y-71123600D01*
X174033800Y-41067900D02*
X173801700Y-41300000D01*
X172875000Y-64600000D02*
X170443000Y-64600000D01*
X174408700Y-41067900D02*
X174033800Y-41067900D01*
X152059200Y-69280800D02*
X152059200Y-69160800D01*
X152533700Y-69755300D02*
X154110800Y-71332400D01*
X152412300Y-69633900D02*
X152533700Y-69755300D01*
X152412300Y-69633900D02*
X152059200Y-69280800D01*
X170443000Y-64600000D02*
X170441400Y-64598400D01*
X151450000Y-68551600D02*
X151450000Y-67251300D01*
%TO.N,/I2C_SCL*%
X149748800Y-62050000D02*
X147985900Y-62050000D01*
X150710000Y-46400000D02*
X151034300Y-46724300D01*
X147985900Y-62050000D02*
X147456200Y-61520300D01*
X149714600Y-47812500D02*
X148812500Y-47812500D01*
X151034300Y-46724300D02*
X151034300Y-47222300D01*
%TO.N,/I2C_SDA*%
X149748800Y-61550000D02*
X148884600Y-61550000D01*
X148220000Y-46400000D02*
X148012500Y-46607500D01*
X148867600Y-48961300D02*
X148012500Y-48106200D01*
X148884600Y-61550000D02*
X148445500Y-61110900D01*
X148012500Y-46607500D02*
X148012500Y-47812500D01*
X148012500Y-48106200D02*
X148012500Y-47812500D01*
%TO.N,/UART0_TX*%
X145975600Y-62550000D02*
X148942300Y-62550000D01*
X145460100Y-63065500D02*
X145975600Y-62550000D01*
X141950000Y-67650000D02*
X142701700Y-67650000D01*
X142701700Y-67650000D02*
X142701700Y-65749000D01*
X137127600Y-68584900D02*
X134815100Y-68584900D01*
X149748800Y-62550000D02*
X148942300Y-62550000D01*
X134815100Y-68584900D02*
X134200000Y-69200000D01*
%TO.N,/UART0_RX*%
X142744600Y-70575700D02*
X142120300Y-71200000D01*
X141950000Y-68150000D02*
X142701700Y-68150000D01*
X148942300Y-63050000D02*
X146326700Y-63050000D01*
X146326700Y-63050000D02*
X145058300Y-64318400D01*
X145058300Y-64318400D02*
X145058300Y-64910200D01*
X142701700Y-68150000D02*
X142701700Y-69377900D01*
X149748800Y-63050000D02*
X148942300Y-63050000D01*
X142120300Y-71200000D02*
X141600000Y-71200000D01*
X142744600Y-69377900D02*
X142744600Y-70575700D01*
X142701700Y-69377900D02*
X142744600Y-69377900D01*
%TO.N,/LORA_RST*%
X154826200Y-69325500D02*
X167351700Y-69325500D01*
X153450000Y-67949300D02*
X154826200Y-69325500D01*
X172522100Y-70952900D02*
X172875000Y-70600000D01*
X153450000Y-67251300D02*
X153450000Y-67949300D01*
X167351700Y-69325500D02*
X168720600Y-67956600D01*
X168904700Y-70952900D02*
X172522100Y-70952900D01*
%TO.N,/LORA_IRQ*%
X157460500Y-67612600D02*
X159133200Y-65939900D01*
X154819500Y-69927300D02*
X155799900Y-69927300D01*
X179187600Y-64600000D02*
X187925000Y-64600000D01*
X167215200Y-65939900D02*
X168275500Y-67000200D01*
X152950000Y-67251300D02*
X152950000Y-68057800D01*
X168275500Y-67000200D02*
X168778400Y-67000200D01*
X176187600Y-67600000D02*
X179187600Y-64600000D01*
X168778400Y-67000200D02*
X169378200Y-67600000D01*
X169378200Y-67600000D02*
X176187600Y-67600000D01*
X152950000Y-68057800D02*
X154819500Y-69927300D01*
X159133200Y-65939900D02*
X167215200Y-65939900D01*
%TO.N,/LORA_CS*%
X154801900Y-70529000D02*
X156049100Y-70529000D01*
X156850900Y-69727200D02*
X168728000Y-69727200D01*
X152450000Y-67251300D02*
X152450000Y-68057800D01*
X152450000Y-68057800D02*
X152450000Y-68177100D01*
X156049100Y-70529000D02*
X156850900Y-69727200D01*
X172107700Y-69367300D02*
X172875000Y-68600000D01*
X152450000Y-68177100D02*
X154801900Y-70529000D01*
X168921600Y-69533600D02*
X169087900Y-69367300D01*
X168728000Y-69727200D02*
X168921600Y-69533600D01*
X169087900Y-69367300D02*
X172107700Y-69367300D01*
X168921600Y-69533600D02*
X169087900Y-69367300D01*
%TO.N,/VBUS*%
X121248300Y-52659600D02*
X122112000Y-53523300D01*
X138098300Y-66650000D02*
X131500200Y-66650000D01*
X137711700Y-67150000D02*
X136811700Y-68050000D01*
X121248300Y-51658000D02*
X121248300Y-52659600D01*
X138098300Y-67150000D02*
X138098300Y-66650000D01*
X138850000Y-66650000D02*
X138098300Y-66650000D01*
X138850000Y-67150000D02*
X138098300Y-67150000D01*
X122112000Y-53523300D02*
X122400000Y-53523300D01*
X122400000Y-54675000D02*
X122400000Y-53523300D01*
X121923000Y-50983300D02*
X121248300Y-51658000D01*
X138098300Y-67150000D02*
X137711700Y-67150000D01*
X130400000Y-52662500D02*
X128720800Y-50983300D01*
X136811700Y-68050000D02*
X128485000Y-68050000D01*
X129546900Y-63150000D02*
X128485000Y-63150000D01*
X128720800Y-50983300D02*
X121923000Y-50983300D01*
X130388400Y-63991500D02*
X129546900Y-63150000D01*
%TD*%
M02*
