M48
; DRILL file KiCad 10.0.0 date 2026-04-09T17:29:55
; FORMAT={-:-/ absolute / metric / decimal}
; #@! TF.CreationDate,2026-04-09T17:29:55-05:00
; #@! TF.GenerationSoftware,Kicad,Pcbnew,10.0.0
; #@! TF.FileFunction,Plated,1,2,PTH
FMAT,2
METRIC
; #@! TA.AperFunction,Plated,PTH,ViaDrill
T1C0.300
; #@! TA.AperFunction,Plated,PTH,ComponentDrill
T2C0.600
; #@! TA.AperFunction,Plated,PTH,ComponentDrill
T3C1.000
%
G90
G05
T1
X126.53Y-59.858
X127.038Y-55.652
X127.887Y-59.575
X130.388Y-63.991
X131.5Y-66.65
X131.722Y-65.8
X133.025Y-64.116
X137.128Y-68.585
X138.468Y-65.807
X139.245Y-63.645
X141.6Y-71.2
X142.702Y-65.749
X142.745Y-69.378
X144.241Y-56.38
X144.6Y-72.2
X145.058Y-64.91
X145.348Y-53.148
X145.46Y-63.066
X145.799Y-58.098
X146.265Y-64.532
X147.058Y-66.921
X147.076Y-65.625
X147.456Y-61.52
X147.642Y-67.98
X148.02Y-59.049
X148.373Y-64.519
X148.445Y-61.111
X148.685Y-66.024
X148.868Y-48.961
X149.697Y-59.744
X149.715Y-47.812
X150.51Y-54.8
X150.525Y-53.751
X151.034Y-47.222
X151.439Y-50.83
X151.457Y-69.41
X151.683Y-56.374
X151.912Y-48.183
X151.949Y-58.822
X151.972Y-57.578
X153.592Y-58.411
X155.8Y-69.927
X157.46Y-67.613
X158.943Y-44.477
X159.087Y-61.597
X160.888Y-68.591
X161.885Y-41.969
X162.192Y-64.536
X162.344Y-70.371
X164.439Y-61.677
X164.832Y-54.301
X165.106Y-67.573
X168.025Y-71.124
X168.721Y-67.957
X168.905Y-70.953
X170.441Y-64.598
X173.704Y-58.258
X174.409Y-41.068
X176.776Y-72.6
T3
X122.4Y-52.135
X122.4Y-54.675
X149.52Y-75.6
X152.06Y-75.6
X154.6Y-75.6
X157.14Y-75.6
X158.24Y-36.4
X160.78Y-36.4
X163.32Y-36.4
X165.86Y-36.4
X168.4Y-36.4
T2
G00X123.69Y-61.28
M15
G01X123.09Y-61.28
M16
G05
G00X123.69Y-69.92
M15
G01X123.09Y-69.92
M16
G05
G00X128.12Y-61.28
M15
G01X127.02Y-61.28
M16
G05
G00X128.12Y-69.92
M15
G01X127.02Y-69.92
M16
G05
M30
