%TF.GenerationSoftware,KiCad,Pcbnew,10.0.0*%
%TF.CreationDate,2026-04-09T17:29:59-05:00*%
%TF.ProjectId,328,3332382e-6b69-4636-9164-5f7063625858,rev?*%
%TF.SameCoordinates,Original*%
%TF.FileFunction,Legend,Top*%
%TF.FilePolarity,Positive*%
%FSLAX46Y46*%
G04 Gerber Fmt 4.6, Leading zero omitted, Abs format (unit mm)*
G04 Created by KiCad (PCBNEW 10.0.0) date 2026-04-09 17:29:59*
%MOMM*%
%LPD*%
G01*
G04 APERTURE LIST*
%ADD10C,0.120000*%
%ADD11C,0.150000*%
%ADD12C,0.250000*%
%ADD13C,0.100000*%
G04 APERTURE END LIST*
%TO.C,C7*%
D10*
X138172164Y-74640000D02*
X138387836Y-74640000D01*
X138172164Y-75360000D02*
X138387836Y-75360000D01*
%TO.C,R4*%
X150046359Y-46020000D02*
X150353641Y-46020000D01*
X150046359Y-46780000D02*
X150353641Y-46780000D01*
%TO.C,U1*%
D11*
X149699999Y-60299999D02*
X149699999Y-60549999D01*
X149699999Y-60299999D02*
X149949999Y-60299999D01*
X149699999Y-67050001D02*
X149699999Y-67300001D01*
X149699999Y-67300001D02*
X149949999Y-67300001D01*
X156450001Y-60299999D02*
X156700001Y-60299999D01*
X156450001Y-67300001D02*
X156700001Y-67300001D01*
X156700001Y-60299999D02*
X156700001Y-60549999D01*
X156700001Y-67050001D02*
X156700001Y-67300001D01*
D12*
X156075001Y-59043934D02*
G75*
G02*
X155824999Y-59043934I-125001J0D01*
G01*
X155824999Y-59043934D02*
G75*
G02*
X156075001Y-59043934I125001J0D01*
G01*
%TO.C,J3*%
D10*
X121020000Y-53405000D02*
X121020000Y-50755000D01*
X123780000Y-50755000D02*
X121020000Y-50755000D01*
X123780000Y-53405000D02*
X121020000Y-53405000D01*
X123780000Y-53405000D02*
X123780000Y-50755000D01*
X123780000Y-54675000D02*
X123780000Y-56055000D01*
X123780000Y-56055000D02*
X122400000Y-56055000D01*
%TO.C,C9*%
X145507836Y-46040000D02*
X145292164Y-46040000D01*
X145507836Y-46760000D02*
X145292164Y-46760000D01*
%TO.C,D2*%
D13*
X139475000Y-64200000D02*
G75*
G02*
X139375000Y-64200000I-50000J0D01*
G01*
X139375000Y-64200000D02*
G75*
G02*
X139475000Y-64200000I50000J0D01*
G01*
%TO.C,J6*%
D10*
X172740000Y-35980000D02*
X186750000Y-35980000D01*
X172740000Y-37900000D02*
X172740000Y-35980000D01*
X172740000Y-49500000D02*
X172740000Y-49950000D01*
X172740000Y-49950000D02*
X176350000Y-49950000D01*
X178050000Y-49950000D02*
X182750000Y-49950000D01*
X184050000Y-49950000D02*
X185850000Y-49950000D01*
X188660000Y-46850000D02*
X188660000Y-40480000D01*
X188660000Y-46850000D02*
X188810000Y-46850000D01*
X188810000Y-37460000D02*
X188810000Y-37200000D01*
X189010000Y-37660000D02*
X188810000Y-37460000D01*
X189010000Y-37660000D02*
X189010000Y-39970000D01*
X189010000Y-39970000D02*
X188660000Y-40480000D01*
X189010000Y-47060000D02*
X188810000Y-46850000D01*
X189010000Y-48920000D02*
X188810000Y-49120000D01*
X189010000Y-48920000D02*
X189010000Y-47060000D01*
%TO.C,TP5*%
X147350000Y-54800000D02*
G75*
G02*
X145450000Y-54800000I-950000J0D01*
G01*
X145450000Y-54800000D02*
G75*
G02*
X147350000Y-54800000I950000J0D01*
G01*
%TO.C,U3*%
X128840000Y-52890000D02*
X129840000Y-52890000D01*
X128840000Y-54710000D02*
X128840000Y-52890000D01*
X128890000Y-54710000D02*
X128840000Y-54710000D01*
X130790000Y-54710000D02*
X130010000Y-54710000D01*
X130960000Y-52890000D02*
X131960000Y-52890000D01*
X131960000Y-52890000D02*
X131960000Y-54710000D01*
X131960000Y-54710000D02*
X131910000Y-54710000D01*
X130350000Y-55490000D02*
X130020000Y-55250000D01*
X130350000Y-55010000D01*
X130350000Y-55490000D01*
G36*
X130350000Y-55490000D02*
G01*
X130020000Y-55250000D01*
X130350000Y-55010000D01*
X130350000Y-55490000D01*
G37*
%TO.C,C11*%
X151907836Y-48840000D02*
X151692164Y-48840000D01*
X151907836Y-49560000D02*
X151692164Y-49560000D01*
%TO.C,TP3*%
X135150000Y-69200000D02*
G75*
G02*
X133250000Y-69200000I-950000J0D01*
G01*
X133250000Y-69200000D02*
G75*
G02*
X135150000Y-69200000I950000J0D01*
G01*
%TO.C,U4*%
X172300000Y-59500000D02*
X188500000Y-59500000D01*
X172300000Y-75300000D02*
X172300000Y-75700000D01*
X172300000Y-75700000D02*
X188500000Y-75700000D01*
X188500000Y-59500000D02*
X188500000Y-59900000D01*
X188500000Y-75700000D02*
X188500000Y-75300000D01*
X171800000Y-59700000D02*
X171560000Y-59364000D01*
X172040000Y-59364000D01*
X171800000Y-59700000D01*
G36*
X171800000Y-59700000D02*
G01*
X171560000Y-59364000D01*
X172040000Y-59364000D01*
X171800000Y-59700000D01*
G37*
%TO.C,TP6*%
X163150000Y-67000000D02*
G75*
G02*
X161250000Y-67000000I-950000J0D01*
G01*
X161250000Y-67000000D02*
G75*
G02*
X163150000Y-67000000I950000J0D01*
G01*
%TO.C,SW1*%
X182250000Y-54800000D02*
X182250000Y-56800000D01*
X183300000Y-53500000D02*
X183750000Y-53050000D01*
X183300000Y-58100000D02*
X183750000Y-58550000D01*
X183750000Y-53050000D02*
X186250000Y-53050000D01*
X183750000Y-58550000D02*
X186250000Y-58550000D01*
X186700000Y-53500000D02*
X186250000Y-53050000D01*
X186700000Y-58100000D02*
X186250000Y-58550000D01*
X187750000Y-54800000D02*
X187750000Y-56800000D01*
%TO.C,J5*%
X156860000Y-35020000D02*
X156860000Y-37780000D01*
X167130000Y-35020000D02*
X156860000Y-35020000D01*
X167130000Y-35020000D02*
X167130000Y-37780000D01*
X167130000Y-37780000D02*
X156860000Y-37780000D01*
X168400000Y-35020000D02*
X169780000Y-35020000D01*
X169780000Y-35020000D02*
X169780000Y-36400000D01*
%TO.C,U5*%
X145902500Y-50610000D02*
X145902500Y-47390000D01*
X149322500Y-47390000D02*
X149322500Y-50610000D01*
X146402500Y-47280000D02*
X146162500Y-46950000D01*
X146642500Y-46950000D01*
X146402500Y-47280000D01*
G36*
X146402500Y-47280000D02*
G01*
X146162500Y-46950000D01*
X146642500Y-46950000D01*
X146402500Y-47280000D01*
G37*
%TO.C,TP2*%
X123150000Y-73000000D02*
G75*
G02*
X121250000Y-73000000I-950000J0D01*
G01*
X121250000Y-73000000D02*
G75*
G02*
X123150000Y-73000000I950000J0D01*
G01*
%TO.C,D3*%
D13*
X142475000Y-53800000D02*
G75*
G02*
X142375000Y-53800000I-50000J0D01*
G01*
X142375000Y-53800000D02*
G75*
G02*
X142475000Y-53800000I50000J0D01*
G01*
%TO.C,J2*%
D10*
X148140000Y-76980000D02*
X148140000Y-75600000D01*
X149520000Y-76980000D02*
X148140000Y-76980000D01*
X150790000Y-74220000D02*
X158520000Y-74220000D01*
X150790000Y-76980000D02*
X150790000Y-74220000D01*
X150790000Y-76980000D02*
X158520000Y-76980000D01*
X158520000Y-76980000D02*
X158520000Y-74220000D01*
%TO.C,R6*%
X126806359Y-56820000D02*
X127113641Y-56820000D01*
X126806359Y-57580000D02*
X127113641Y-57580000D01*
%TO.C,R8*%
X127043641Y-58420000D02*
X126736359Y-58420000D01*
X127043641Y-59180000D02*
X126736359Y-59180000D01*
%TO.C,C8*%
X127972164Y-72840000D02*
X128187836Y-72840000D01*
X127972164Y-73560000D02*
X128187836Y-73560000D01*
%TO.C,U2*%
X138740000Y-65740000D02*
X139240000Y-65740000D01*
X138740000Y-66240000D02*
X138740000Y-65740000D01*
X138740000Y-68560000D02*
X138740000Y-69060000D01*
X138740000Y-69060000D02*
X139240000Y-69060000D01*
X141560000Y-65740000D02*
X141810000Y-65740000D01*
X142060000Y-66240000D02*
X142060000Y-66040000D01*
X142060000Y-68560000D02*
X142060000Y-69060000D01*
X142060000Y-69060000D02*
X141560000Y-69060000D01*
X142390000Y-65980000D02*
X142060000Y-65740000D01*
X142390000Y-65500000D01*
X142390000Y-65980000D01*
G36*
X142390000Y-65980000D02*
G01*
X142060000Y-65740000D01*
X142390000Y-65500000D01*
X142390000Y-65980000D01*
G37*
%TO.C,R7*%
X125753641Y-72820000D02*
X125446359Y-72820000D01*
X125753641Y-73580000D02*
X125446359Y-73580000D01*
%TO.C,D1*%
D13*
X142475000Y-58800000D02*
G75*
G02*
X142375000Y-58800000I-50000J0D01*
G01*
X142375000Y-58800000D02*
G75*
G02*
X142475000Y-58800000I50000J0D01*
G01*
%TO.C,TP1*%
D10*
X135750000Y-55200000D02*
G75*
G02*
X133850000Y-55200000I-950000J0D01*
G01*
X133850000Y-55200000D02*
G75*
G02*
X135750000Y-55200000I950000J0D01*
G01*
%TO.C,J1*%
X120540000Y-60900000D02*
X120540000Y-70300000D01*
X122440000Y-60900000D02*
X120540000Y-60900000D01*
X122440000Y-70300000D02*
X120540000Y-70300000D01*
X126340000Y-60900000D02*
X124340000Y-60900000D01*
X126340000Y-70300000D02*
X124340000Y-70300000D01*
%TO.C,TP4*%
X145750000Y-72200000D02*
G75*
G02*
X143850000Y-72200000I-950000J0D01*
G01*
X143850000Y-72200000D02*
G75*
G02*
X145750000Y-72200000I950000J0D01*
G01*
%TO.C,Y1*%
X155740000Y-48290000D02*
X155740000Y-51710000D01*
X155740000Y-51710000D02*
X159860000Y-51710000D01*
%TO.C,R5*%
X147556359Y-46020000D02*
X147863641Y-46020000D01*
X147556359Y-46780000D02*
X147863641Y-46780000D01*
%TD*%
M02*
